<?xml version="1.0" encoding="UTF-8"?>
<svg viewBox="18.5 18.5 403 403" width="403" height="403" xmlns="http://www.w3.org/2000/svg">
  <style>
    @keyframes flicker1 {
      0%, 100% { opacity: 0.9; }
      50% { opacity: 0.1; }
    }

    @keyframes flicker2 {
      0%, 100% { opacity: 1; }
      33% { opacity: 0.2; }
      66% { opacity: 0.7; }
    }

    @keyframes flicker3 {
      0%, 75%, 100% { opacity: 0.8; }
      25% { opacity: 0.3; }
    }

    @keyframes flicker4 {
      0%, 90%, 100% { opacity: 0.7; }
      30%, 60% { opacity: 0.2; }
    }

    @keyframes flicker5 {
      0%, 100% { opacity: 0.9; }
      20%, 80% { opacity: 0.4; }
      50% { opacity: 0.1; }
    }

    @keyframes flicker6 {
      0%, 40%, 60%, 100% { opacity: 0.8; }
      10%, 30%, 70%, 90% { opacity: 0.2; }
    }

    @keyframes flicker7 {
      0%, 20%, 40%, 60%, 80%, 100% { opacity: 0.7; }
      10%, 30%, 50%, 70%, 90% { opacity: 0.3; }
    }

    @keyframes flicker8 {
      0%, 100% { opacity: 0.6; }
      25%, 75% { opacity: 0.15; }
    }

    .dot1 {
      animation: flicker1 1.3s infinite;
    }

    .dot2 {
      animation: flicker2 2.7s infinite;
    }

    .dot3 {
      animation: flicker3 3.1s infinite;
    }

    .dot4 {
      animation: flicker4 1.9s infinite;
    }

    .dot5 {
      animation: flicker5 2.3s infinite;
    }

    .dot6 {
      animation: flicker6 3.7s infinite;
    }

    .dot7 {
      animation: flicker7 4.1s infinite;
    }

    .dot8 {
      animation: flicker8 2.5s infinite;
    }
  </style>

  <!-- Original Grid (10x10) -->
  <!-- Row 1 -->
  <circle class="dot1" cx="20" cy="20" r="1.5" fill="#000" />
  <circle class="dot2" cx="40" cy="20" r="1.5" fill="#000" />
  <circle class="dot3" cx="60" cy="20" r="1.5" fill="#000" />
  <circle class="dot4" cx="80" cy="20" r="1.5" fill="#000" />
  <circle class="dot5" cx="100" cy="20" r="1.5" fill="#000" />
  <circle class="dot1" cx="120" cy="20" r="1.5" fill="#000" />
  <circle class="dot2" cx="140" cy="20" r="1.5" fill="#000" />
  <circle class="dot3" cx="160" cy="20" r="1.5" fill="#000" />
  <circle class="dot4" cx="180" cy="20" r="1.5" fill="#000" />
  <circle class="dot5" cx="200" cy="20" r="1.5" fill="#000" />

  <!-- Row 2 -->
  <circle class="dot5" cx="20" cy="40" r="1.5" fill="#000" />
  <circle class="dot4" cx="40" cy="40" r="1.5" fill="#000" />
  <circle class="dot3" cx="60" cy="40" r="1.5" fill="#000" />
  <circle class="dot2" cx="80" cy="40" r="1.5" fill="#000" />
  <circle class="dot1" cx="100" cy="40" r="1.5" fill="#000" />
  <circle class="dot5" cx="120" cy="40" r="1.5" fill="#000" />
  <circle class="dot4" cx="140" cy="40" r="1.5" fill="#000" />
  <circle class="dot3" cx="160" cy="40" r="1.5" fill="#000" />
  <circle class="dot2" cx="180" cy="40" r="1.5" fill="#000" />
  <circle class="dot1" cx="200" cy="40" r="1.5" fill="#000" />

  <!-- Row 3 -->
  <circle class="dot2" cx="20" cy="60" r="1.5" fill="#000" />
  <circle class="dot1" cx="40" cy="60" r="1.5" fill="#000" />
  <circle class="dot5" cx="60" cy="60" r="1.5" fill="#000" />
  <circle class="dot4" cx="80" cy="60" r="1.5" fill="#000" />
  <circle class="dot3" cx="100" cy="60" r="1.5" fill="#000" />
  <circle class="dot2" cx="120" cy="60" r="1.5" fill="#000" />
  <circle class="dot1" cx="140" cy="60" r="1.5" fill="#000" />
  <circle class="dot5" cx="160" cy="60" r="1.5" fill="#000" />
  <circle class="dot4" cx="180" cy="60" r="1.5" fill="#000" />
  <circle class="dot3" cx="200" cy="60" r="1.5" fill="#000" />

  <!-- Row 4 -->
  <circle class="dot3" cx="20" cy="80" r="1.5" fill="#000" />
  <circle class="dot2" cx="40" cy="80" r="1.5" fill="#000" />
  <circle class="dot1" cx="60" cy="80" r="1.5" fill="#000" />
  <circle class="dot5" cx="80" cy="80" r="1.5" fill="#000" />
  <circle class="dot4" cx="100" cy="80" r="1.5" fill="#000" />
  <circle class="dot3" cx="120" cy="80" r="1.5" fill="#000" />
  <circle class="dot2" cx="140" cy="80" r="1.5" fill="#000" />
  <circle class="dot1" cx="160" cy="80" r="1.5" fill="#000" />
  <circle class="dot5" cx="180" cy="80" r="1.5" fill="#000" />
  <circle class="dot4" cx="200" cy="80" r="1.5" fill="#000" />

  <!-- Row 5 -->
  <circle class="dot4" cx="20" cy="100" r="1.5" fill="#000" />
  <circle class="dot3" cx="40" cy="100" r="1.5" fill="#000" />
  <circle class="dot2" cx="60" cy="100" r="1.5" fill="#000" />
  <circle class="dot1" cx="80" cy="100" r="1.5" fill="#000" />
  <circle class="dot5" cx="100" cy="100" r="1.5" fill="#000" />
  <circle class="dot4" cx="120" cy="100" r="1.5" fill="#000" />
  <circle class="dot3" cx="140" cy="100" r="1.5" fill="#000" />
  <circle class="dot2" cx="160" cy="100" r="1.5" fill="#000" />
  <circle class="dot1" cx="180" cy="100" r="1.5" fill="#000" />
  <circle class="dot5" cx="200" cy="100" r="1.5" fill="#000" />

  <!-- Continue with more rows to fill the entire SVG -->
  <!-- Row 6 -->
  <circle class="dot1" cx="20" cy="120" r="1.5" fill="#000" />
  <circle class="dot5" cx="40" cy="120" r="1.5" fill="#000" />
  <circle class="dot4" cx="60" cy="120" r="1.5" fill="#000" />
  <circle class="dot3" cx="80" cy="120" r="1.5" fill="#000" />
  <circle class="dot2" cx="100" cy="120" r="1.5" fill="#000" />
  <circle class="dot1" cx="120" cy="120" r="1.5" fill="#000" />
  <circle class="dot5" cx="140" cy="120" r="1.5" fill="#000" />
  <circle class="dot4" cx="160" cy="120" r="1.5" fill="#000" />
  <circle class="dot3" cx="180" cy="120" r="1.5" fill="#000" />
  <circle class="dot2" cx="200" cy="120" r="1.5" fill="#000" />

  <!-- Row 7 -->
  <circle class="dot5" cx="20" cy="140" r="1.5" fill="#000" />
  <circle class="dot4" cx="40" cy="140" r="1.5" fill="#000" />
  <circle class="dot3" cx="60" cy="140" r="1.5" fill="#000" />
  <circle class="dot2" cx="80" cy="140" r="1.5" fill="#000" />
  <circle class="dot1" cx="100" cy="140" r="1.5" fill="#000" />
  <circle class="dot5" cx="120" cy="140" r="1.5" fill="#000" />
  <circle class="dot4" cx="140" cy="140" r="1.5" fill="#000" />
  <circle class="dot3" cx="160" cy="140" r="1.5" fill="#000" />
  <circle class="dot2" cx="180" cy="140" r="1.5" fill="#000" />
  <circle class="dot1" cx="200" cy="140" r="1.5" fill="#000" />

  <!-- Row 8 -->
  <circle class="dot2" cx="20" cy="160" r="1.5" fill="#000" />
  <circle class="dot1" cx="40" cy="160" r="1.5" fill="#000" />
  <circle class="dot5" cx="60" cy="160" r="1.5" fill="#000" />
  <circle class="dot4" cx="80" cy="160" r="1.5" fill="#000" />
  <circle class="dot3" cx="100" cy="160" r="1.5" fill="#000" />
  <circle class="dot2" cx="120" cy="160" r="1.5" fill="#000" />
  <circle class="dot1" cx="140" cy="160" r="1.5" fill="#000" />
  <circle class="dot5" cx="160" cy="160" r="1.5" fill="#000" />
  <circle class="dot4" cx="180" cy="160" r="1.5" fill="#000" />
  <circle class="dot3" cx="200" cy="160" r="1.5" fill="#000" />

  <!-- Row 9 -->
  <circle class="dot3" cx="20" cy="180" r="1.5" fill="#000" />
  <circle class="dot2" cx="40" cy="180" r="1.5" fill="#000" />
  <circle class="dot1" cx="60" cy="180" r="1.5" fill="#000" />
  <circle class="dot5" cx="80" cy="180" r="1.5" fill="#000" />
  <circle class="dot4" cx="100" cy="180" r="1.5" fill="#000" />
  <circle class="dot3" cx="120" cy="180" r="1.5" fill="#000" />
  <circle class="dot2" cx="140" cy="180" r="1.5" fill="#000" />
  <circle class="dot1" cx="160" cy="180" r="1.5" fill="#000" />
  <circle class="dot5" cx="180" cy="180" r="1.5" fill="#000" />
  <circle class="dot4" cx="200" cy="180" r="1.5" fill="#000" />

  <!-- Row 10 -->
  <circle class="dot4" cx="20" cy="200" r="1.5" fill="#000" />
  <circle class="dot3" cx="40" cy="200" r="1.5" fill="#000" />
  <circle class="dot2" cx="60" cy="200" r="1.5" fill="#000" />
  <circle class="dot1" cx="80" cy="200" r="1.5" fill="#000" />
  <circle class="dot5" cx="100" cy="200" r="1.5" fill="#000" />
  <circle class="dot4" cx="120" cy="200" r="1.5" fill="#000" />
  <circle class="dot3" cx="140" cy="200" r="1.5" fill="#000" />
  <circle class="dot2" cx="160" cy="200" r="1.5" fill="#000" />
  <circle class="dot1" cx="180" cy="200" r="1.5" fill="#000" />
  <circle class="dot5" cx="200" cy="200" r="1.5" fill="#000" />

  <!-- Extended Grid - New rows and columns -->
  <!-- Row 11 -->
  <circle class="dot6" cx="20" cy="220" r="1.5" fill="#000" />
  <circle class="dot7" cx="40" cy="220" r="1.5" fill="#000" />
  <circle class="dot8" cx="60" cy="220" r="1.5" fill="#000" />
  <circle class="dot1" cx="80" cy="220" r="1.5" fill="#000" />
  <circle class="dot2" cx="100" cy="220" r="1.5" fill="#000" />
  <circle class="dot3" cx="120" cy="220" r="1.5" fill="#000" />
  <circle class="dot4" cx="140" cy="220" r="1.5" fill="#000" />
  <circle class="dot5" cx="160" cy="220" r="1.5" fill="#000" />
  <circle class="dot6" cx="180" cy="220" r="1.5" fill="#000" />
  <circle class="dot7" cx="200" cy="220" r="1.5" fill="#000" />
  <circle class="dot8" cx="220" cy="220" r="1.5" fill="#000" />
  <circle class="dot1" cx="240" cy="220" r="1.5" fill="#000" />
  <circle class="dot2" cx="260" cy="220" r="1.5" fill="#000" />
  <circle class="dot3" cx="280" cy="220" r="1.5" fill="#000" />
  <circle class="dot4" cx="300" cy="220" r="1.5" fill="#000" />
  <circle class="dot5" cx="320" cy="220" r="1.5" fill="#000" />
  <circle class="dot6" cx="340" cy="220" r="1.5" fill="#000" />
  <circle class="dot7" cx="360" cy="220" r="1.5" fill="#000" />
  <circle class="dot8" cx="380" cy="220" r="1.5" fill="#000" />
  <circle class="dot1" cx="400" cy="220" r="1.5" fill="#000" />

  <!-- Row 12 -->
  <circle class="dot8" cx="20" cy="240" r="1.5" fill="#000" />
  <circle class="dot5" cx="40" cy="240" r="1.5" fill="#000" />
  <circle class="dot2" cx="60" cy="240" r="1.5" fill="#000" />
  <circle class="dot7" cx="80" cy="240" r="1.5" fill="#000" />
  <circle class="dot4" cx="100" cy="240" r="1.5" fill="#000" />
  <circle class="dot1" cx="120" cy="240" r="1.5" fill="#000" />
  <circle class="dot6" cx="140" cy="240" r="1.5" fill="#000" />
  <circle class="dot3" cx="160" cy="240" r="1.5" fill="#000" />
  <circle class="dot8" cx="180" cy="240" r="1.5" fill="#000" />
  <circle class="dot5" cx="200" cy="240" r="1.5" fill="#000" />
  <circle class="dot2" cx="220" cy="240" r="1.5" fill="#000" />
  <circle class="dot7" cx="240" cy="240" r="1.5" fill="#000" />
  <circle class="dot4" cx="260" cy="240" r="1.5" fill="#000" />
  <circle class="dot1" cx="280" cy="240" r="1.5" fill="#000" />
  <circle class="dot6" cx="300" cy="240" r="1.5" fill="#000" />
  <circle class="dot3" cx="320" cy="240" r="1.5" fill="#000" />
  <circle class="dot8" cx="340" cy="240" r="1.5" fill="#000" />
  <circle class="dot5" cx="360" cy="240" r="1.5" fill="#000" />
  <circle class="dot2" cx="380" cy="240" r="1.5" fill="#000" />
  <circle class="dot7" cx="400" cy="240" r="1.5" fill="#000" />

  <!-- Row 13 -->
  <circle class="dot1" cx="20" cy="260" r="1.5" fill="#000" />
  <circle class="dot6" cx="40" cy="260" r="1.5" fill="#000" />
  <circle class="dot3" cx="60" cy="260" r="1.5" fill="#000" />
  <circle class="dot8" cx="80" cy="260" r="1.5" fill="#000" />
  <circle class="dot5" cx="100" cy="260" r="1.5" fill="#000" />
  <circle class="dot2" cx="120" cy="260" r="1.5" fill="#000" />
  <circle class="dot7" cx="140" cy="260" r="1.5" fill="#000" />
  <circle class="dot4" cx="160" cy="260" r="1.5" fill="#000" />
  <circle class="dot1" cx="180" cy="260" r="1.5" fill="#000" />
  <circle class="dot6" cx="200" cy="260" r="1.5" fill="#000" />
  <circle class="dot3" cx="220" cy="260" r="1.5" fill="#000" />
  <circle class="dot8" cx="240" cy="260" r="1.5" fill="#000" />
  <circle class="dot5" cx="260" cy="260" r="1.5" fill="#000" />
  <circle class="dot2" cx="280" cy="260" r="1.5" fill="#000" />
  <circle class="dot7" cx="300" cy="260" r="1.5" fill="#000" />
  <circle class="dot4" cx="320" cy="260" r="1.5" fill="#000" />
  <circle class="dot1" cx="340" cy="260" r="1.5" fill="#000" />
  <circle class="dot6" cx="360" cy="260" r="1.5" fill="#000" />
  <circle class="dot3" cx="380" cy="260" r="1.5" fill="#000" />
  <circle class="dot8" cx="400" cy="260" r="1.5" fill="#000" />

  <!-- Row 14 -->
  <circle class="dot4" cx="20" cy="280" r="1.5" fill="#000" />
  <circle class="dot1" cx="40" cy="280" r="1.5" fill="#000" />
  <circle class="dot7" cx="60" cy="280" r="1.5" fill="#000" />
  <circle class="dot3" cx="80" cy="280" r="1.5" fill="#000" />
  <circle class="dot8" cx="100" cy="280" r="1.5" fill="#000" />
  <circle class="dot5" cx="120" cy="280" r="1.5" fill="#000" />
  <circle class="dot2" cx="140" cy="280" r="1.5" fill="#000" />
  <circle class="dot6" cx="160" cy="280" r="1.5" fill="#000" />
  <circle class="dot4" cx="180" cy="280" r="1.5" fill="#000" />
  <circle class="dot1" cx="200" cy="280" r="1.5" fill="#000" />
  <circle class="dot7" cx="220" cy="280" r="1.5" fill="#000" />
  <circle class="dot3" cx="240" cy="280" r="1.5" fill="#000" />
  <circle class="dot8" cx="260" cy="280" r="1.5" fill="#000" />
  <circle class="dot5" cx="280" cy="280" r="1.5" fill="#000" />
  <circle class="dot2" cx="300" cy="280" r="1.5" fill="#000" />
  <circle class="dot6" cx="320" cy="280" r="1.5" fill="#000" />
  <circle class="dot4" cx="340" cy="280" r="1.5" fill="#000" />
  <circle class="dot1" cx="360" cy="280" r="1.5" fill="#000" />
  <circle class="dot7" cx="380" cy="280" r="1.5" fill="#000" />
  <circle class="dot3" cx="400" cy="280" r="1.5" fill="#000" />

  <!-- Row 15 -->
  <circle class="dot5" cx="20" cy="300" r="1.5" fill="#000" />
  <circle class="dot2" cx="40" cy="300" r="1.5" fill="#000" />
  <circle class="dot6" cx="60" cy="300" r="1.5" fill="#000" />
  <circle class="dot4" cx="80" cy="300" r="1.5" fill="#000" />
  <circle class="dot1" cx="100" cy="300" r="1.5" fill="#000" />
  <circle class="dot7" cx="120" cy="300" r="1.5" fill="#000" />
  <circle class="dot3" cx="140" cy="300" r="1.5" fill="#000" />
  <circle class="dot8" cx="160" cy="300" r="1.5" fill="#000" />
  <circle class="dot5" cx="180" cy="300" r="1.5" fill="#000" />
  <circle class="dot2" cx="200" cy="300" r="1.5" fill="#000" />
  <circle class="dot6" cx="220" cy="300" r="1.5" fill="#000" />
  <circle class="dot4" cx="240" cy="300" r="1.5" fill="#000" />
  <circle class="dot1" cx="260" cy="300" r="1.5" fill="#000" />
  <circle class="dot7" cx="280" cy="300" r="1.5" fill="#000" />
  <circle class="dot3" cx="300" cy="300" r="1.5" fill="#000" />
  <circle class="dot8" cx="320" cy="300" r="1.5" fill="#000" />
  <circle class="dot5" cx="340" cy="300" r="1.5" fill="#000" />
  <circle class="dot2" cx="360" cy="300" r="1.5" fill="#000" />
  <circle class="dot6" cx="380" cy="300" r="1.5" fill="#000" />
  <circle class="dot4" cx="400" cy="300" r="1.5" fill="#000" />

  <!-- Row 16 -->
  <circle class="dot7" cx="20" cy="320" r="1.5" fill="#000" />
  <circle class="dot3" cx="40" cy="320" r="1.5" fill="#000" />
  <circle class="dot8" cx="60" cy="320" r="1.5" fill="#000" />
  <circle class="dot5" cx="80" cy="320" r="1.5" fill="#000" />
  <circle class="dot2" cx="100" cy="320" r="1.5" fill="#000" />
  <circle class="dot6" cx="120" cy="320" r="1.5" fill="#000" />
  <circle class="dot4" cx="140" cy="320" r="1.5" fill="#000" />
  <circle class="dot1" cx="160" cy="320" r="1.5" fill="#000" />
  <circle class="dot7" cx="180" cy="320" r="1.5" fill="#000" />
  <circle class="dot3" cx="200" cy="320" r="1.5" fill="#000" />
  <circle class="dot8" cx="220" cy="320" r="1.5" fill="#000" />
  <circle class="dot5" cx="240" cy="320" r="1.5" fill="#000" />
  <circle class="dot2" cx="260" cy="320" r="1.5" fill="#000" />
  <circle class="dot6" cx="280" cy="320" r="1.5" fill="#000" />
  <circle class="dot4" cx="300" cy="320" r="1.5" fill="#000" />
  <circle class="dot1" cx="320" cy="320" r="1.5" fill="#000" />
  <circle class="dot7" cx="340" cy="320" r="1.5" fill="#000" />
  <circle class="dot3" cx="360" cy="320" r="1.5" fill="#000" />
  <circle class="dot8" cx="380" cy="320" r="1.5" fill="#000" />
  <circle class="dot5" cx="400" cy="320" r="1.5" fill="#000" />

  <!-- Row 17 -->
  <circle class="dot2" cx="20" cy="340" r="1.5" fill="#000" />
  <circle class="dot8" cx="40" cy="340" r="1.5" fill="#000" />
  <circle class="dot4" cx="60" cy="340" r="1.5" fill="#000" />
  <circle class="dot1" cx="80" cy="340" r="1.5" fill="#000" />
  <circle class="dot7" cx="100" cy="340" r="1.5" fill="#000" />
  <circle class="dot3" cx="120" cy="340" r="1.5" fill="#000" />
  <circle class="dot6" cx="140" cy="340" r="1.5" fill="#000" />
  <circle class="dot5" cx="160" cy="340" r="1.5" fill="#000" />
  <circle class="dot2" cx="180" cy="340" r="1.5" fill="#000" />
  <circle class="dot8" cx="200" cy="340" r="1.5" fill="#000" />
  <circle class="dot4" cx="220" cy="340" r="1.5" fill="#000" />
  <circle class="dot1" cx="240" cy="340" r="1.5" fill="#000" />
  <circle class="dot7" cx="260" cy="340" r="1.5" fill="#000" />
  <circle class="dot3" cx="280" cy="340" r="1.5" fill="#000" />
  <circle class="dot6" cx="300" cy="340" r="1.5" fill="#000" />
  <circle class="dot5" cx="320" cy="340" r="1.5" fill="#000" />
  <circle class="dot2" cx="340" cy="340" r="1.5" fill="#000" />
  <circle class="dot8" cx="360" cy="340" r="1.5" fill="#000" />
  <circle class="dot4" cx="380" cy="340" r="1.5" fill="#000" />
  <circle class="dot1" cx="400" cy="340" r="1.5" fill="#000" />

  <!-- Row 18 -->
  <circle class="dot6" cx="20" cy="360" r="1.5" fill="#000" />
  <circle class="dot4" cx="40" cy="360" r="1.5" fill="#000" />
  <circle class="dot1" cx="60" cy="360" r="1.5" fill="#000" />
  <circle class="dot7" cx="80" cy="360" r="1.5" fill="#000" />
  <circle class="dot3" cx="100" cy="360" r="1.5" fill="#000" />
  <circle class="dot8" cx="120" cy="360" r="1.5" fill="#000" />
  <circle class="dot5" cx="140" cy="360" r="1.5" fill="#000" />
  <circle class="dot2" cx="160" cy="360" r="1.5" fill="#000" />
  <circle class="dot6" cx="180" cy="360" r="1.5" fill="#000" />
  <circle class="dot4" cx="200" cy="360" r="1.5" fill="#000" />
  <circle class="dot1" cx="220" cy="360" r="1.5" fill="#000" />
  <circle class="dot7" cx="240" cy="360" r="1.5" fill="#000" />
  <circle class="dot3" cx="260" cy="360" r="1.5" fill="#000" />
  <circle class="dot8" cx="280" cy="360" r="1.5" fill="#000" />
  <circle class="dot5" cx="300" cy="360" r="1.5" fill="#000" />
  <circle class="dot2" cx="320" cy="360" r="1.5" fill="#000" />
  <circle class="dot6" cx="340" cy="360" r="1.5" fill="#000" />
  <circle class="dot4" cx="360" cy="360" r="1.5" fill="#000" />
  <circle class="dot1" cx="380" cy="360" r="1.5" fill="#000" />
  <circle class="dot7" cx="400" cy="360" r="1.5" fill="#000" />

  <!-- Row 19 -->
  <circle class="dot3" cx="20" cy="380" r="1.5" fill="#000" />
  <circle class="dot7" cx="40" cy="380" r="1.5" fill="#000" />
  <circle class="dot5" cx="60" cy="380" r="1.5" fill="#000" />
  <circle class="dot2" cx="80" cy="380" r="1.5" fill="#000" />
  <circle class="dot6" cx="100" cy="380" r="1.5" fill="#000" />
  <circle class="dot4" cx="120" cy="380" r="1.5" fill="#000" />
  <circle class="dot1" cx="140" cy="380" r="1.5" fill="#000" />
  <circle class="dot8" cx="160" cy="380" r="1.5" fill="#000" />
  <circle class="dot3" cx="180" cy="380" r="1.5" fill="#000" />
  <circle class="dot7" cx="200" cy="380" r="1.5" fill="#000" />
  <circle class="dot5" cx="220" cy="380" r="1.5" fill="#000" />
  <circle class="dot2" cx="240" cy="380" r="1.5" fill="#000" />
  <circle class="dot6" cx="260" cy="380" r="1.5" fill="#000" />
  <circle class="dot4" cx="280" cy="380" r="1.5" fill="#000" />
  <circle class="dot1" cx="300" cy="380" r="1.5" fill="#000" />
  <circle class="dot8" cx="320" cy="380" r="1.5" fill="#000" />
  <circle class="dot3" cx="340" cy="380" r="1.5" fill="#000" />
  <circle class="dot7" cx="360" cy="380" r="1.5" fill="#000" />
  <circle class="dot5" cx="380" cy="380" r="1.5" fill="#000" />
  <circle class="dot2" cx="400" cy="380" r="1.5" fill="#000" />

  <!-- Row 20 -->
  <circle class="dot8" cx="20" cy="400" r="1.5" fill="#000" />
  <circle class="dot3" cx="40" cy="400" r="1.5" fill="#000" />
  <circle class="dot6" cx="60" cy="400" r="1.5" fill="#000" />
  <circle class="dot4" cx="80" cy="400" r="1.5" fill="#000" />
  <circle class="dot1" cx="100" cy="400" r="1.5" fill="#000" />
  <circle class="dot7" cx="120" cy="400" r="1.5" fill="#000" />
  <circle class="dot2" cx="140" cy="400" r="1.5" fill="#000" />
  <circle class="dot5" cx="160" cy="400" r="1.5" fill="#000" />
  <circle class="dot8" cx="180" cy="400" r="1.5" fill="#000" />
  <circle class="dot3" cx="200" cy="400" r="1.5" fill="#000" />
  <circle class="dot6" cx="220" cy="400" r="1.5" fill="#000" />
  <circle class="dot4" cx="240" cy="400" r="1.5" fill="#000" />
  <circle class="dot1" cx="260" cy="400" r="1.5" fill="#000" />
  <circle class="dot7" cx="280" cy="400" r="1.5" fill="#000" />
  <circle class="dot2" cx="300" cy="400" r="1.5" fill="#000" />
  <circle class="dot5" cx="320" cy="400" r="1.5" fill="#000" />
  <circle class="dot8" cx="340" cy="400" r="1.5" fill="#000" />
  <circle class="dot3" cx="360" cy="400" r="1.5" fill="#000" />
  <circle class="dot6" cx="380" cy="400" r="1.5" fill="#000" />
  <circle class="dot4" cx="400" cy="400" r="1.5" fill="#000" />

  <!-- Original 10x10 grid content needs to be extended to 20x20 - add these columns to existing rows -->
  <!-- Adding columns 11-20 to Row 1 -->
  <circle class="dot6" cx="220" cy="20" r="1.5" fill="#000" />
  <circle class="dot7" cx="240" cy="20" r="1.5" fill="#000" />
  <circle class="dot8" cx="260" cy="20" r="1.5" fill="#000" />
  <circle class="dot1" cx="280" cy="20" r="1.5" fill="#000" />
  <circle class="dot2" cx="300" cy="20" r="1.5" fill="#000" />
  <circle class="dot3" cx="320" cy="20" r="1.5" fill="#000" />
  <circle class="dot4" cx="340" cy="20" r="1.5" fill="#000" />
  <circle class="dot5" cx="360" cy="20" r="1.5" fill="#000" />
  <circle class="dot6" cx="380" cy="20" r="1.5" fill="#000" />
  <circle class="dot7" cx="400" cy="20" r="1.5" fill="#000" />

  <!-- Adding columns 11-20 to Row 2 -->
  <circle class="dot8" cx="220" cy="40" r="1.5" fill="#000" />
  <circle class="dot7" cx="240" cy="40" r="1.5" fill="#000" />
  <circle class="dot6" cx="260" cy="40" r="1.5" fill="#000" />
  <circle class="dot5" cx="280" cy="40" r="1.5" fill="#000" />
  <circle class="dot4" cx="300" cy="40" r="1.5" fill="#000" />
  <circle class="dot3" cx="320" cy="40" r="1.5" fill="#000" />
  <circle class="dot2" cx="340" cy="40" r="1.5" fill="#000" />
  <circle class="dot1" cx="360" cy="40" r="1.5" fill="#000" />
  <circle class="dot8" cx="380" cy="40" r="1.5" fill="#000" />
  <circle class="dot7" cx="400" cy="40" r="1.5" fill="#000" />

  <!-- Adding columns 11-20 to Row 3 -->
  <circle class="dot1" cx="220" cy="60" r="1.5" fill="#000" />
  <circle class="dot8" cx="240" cy="60" r="1.5" fill="#000" />
  <circle class="dot7" cx="260" cy="60" r="1.5" fill="#000" />
  <circle class="dot6" cx="280" cy="60" r="1.5" fill="#000" />
  <circle class="dot5" cx="300" cy="60" r="1.5" fill="#000" />
  <circle class="dot4" cx="320" cy="60" r="1.5" fill="#000" />
  <circle class="dot3" cx="340" cy="60" r="1.5" fill="#000" />
  <circle class="dot2" cx="360" cy="60" r="1.5" fill="#000" />
  <circle class="dot1" cx="380" cy="60" r="1.5" fill="#000" />
  <circle class="dot8" cx="400" cy="60" r="1.5" fill="#000" />

  <!-- Adding columns 11-20 to Row 4 -->
  <circle class="dot2" cx="220" cy="80" r="1.5" fill="#000" />
  <circle class="dot1" cx="240" cy="80" r="1.5" fill="#000" />
  <circle class="dot8" cx="260" cy="80" r="1.5" fill="#000" />
  <circle class="dot7" cx="280" cy="80" r="1.5" fill="#000" />
  <circle class="dot6" cx="300" cy="80" r="1.5" fill="#000" />
  <circle class="dot5" cx="320" cy="80" r="1.5" fill="#000" />
  <circle class="dot4" cx="340" cy="80" r="1.5" fill="#000" />
  <circle class="dot3" cx="360" cy="80" r="1.5" fill="#000" />
  <circle class="dot2" cx="380" cy="80" r="1.5" fill="#000" />
  <circle class="dot1" cx="400" cy="80" r="1.5" fill="#000" />

  <!-- Adding columns 11-20 to Row 5 -->
  <circle class="dot3" cx="220" cy="100" r="1.5" fill="#000" />
  <circle class="dot2" cx="240" cy="100" r="1.5" fill="#000" />
  <circle class="dot1" cx="260" cy="100" r="1.5" fill="#000" />
  <circle class="dot8" cx="280" cy="100" r="1.5" fill="#000" />
  <circle class="dot7" cx="300" cy="100" r="1.5" fill="#000" />
  <circle class="dot6" cx="320" cy="100" r="1.5" fill="#000" />
  <circle class="dot5" cx="340" cy="100" r="1.5" fill="#000" />
  <circle class="dot4" cx="360" cy="100" r="1.5" fill="#000" />
  <circle class="dot3" cx="380" cy="100" r="1.5" fill="#000" />
  <circle class="dot2" cx="400" cy="100" r="1.5" fill="#000" />

  <!-- Adding columns 11-20 to Row 6 -->
  <circle class="dot4" cx="220" cy="120" r="1.5" fill="#000" />
  <circle class="dot3" cx="240" cy="120" r="1.5" fill="#000" />
  <circle class="dot2" cx="260" cy="120" r="1.5" fill="#000" />
  <circle class="dot1" cx="280" cy="120" r="1.5" fill="#000" />
  <circle class="dot8" cx="300" cy="120" r="1.5" fill="#000" />
  <circle class="dot7" cx="320" cy="120" r="1.5" fill="#000" />
  <circle class="dot6" cx="340" cy="120" r="1.5" fill="#000" />
  <circle class="dot5" cx="360" cy="120" r="1.5" fill="#000" />
  <circle class="dot4" cx="380" cy="120" r="1.5" fill="#000" />
  <circle class="dot3" cx="400" cy="120" r="1.5" fill="#000" />

  <!-- Adding columns 11-20 to Row 7 -->
  <circle class="dot5" cx="220" cy="140" r="1.5" fill="#000" />
  <circle class="dot4" cx="240" cy="140" r="1.5" fill="#000" />
  <circle class="dot3" cx="260" cy="140" r="1.5" fill="#000" />
  <circle class="dot2" cx="280" cy="140" r="1.5" fill="#000" />
  <circle class="dot1" cx="300" cy="140" r="1.5" fill="#000" />
  <circle class="dot8" cx="320" cy="140" r="1.5" fill="#000" />
  <circle class="dot7" cx="340" cy="140" r="1.5" fill="#000" />
  <circle class="dot6" cx="360" cy="140" r="1.5" fill="#000" />
  <circle class="dot5" cx="380" cy="140" r="1.5" fill="#000" />
  <circle class="dot4" cx="400" cy="140" r="1.5" fill="#000" />

  <!-- Adding columns 11-20 to Row 8 -->
  <circle class="dot6" cx="220" cy="160" r="1.5" fill="#000" />
  <circle class="dot5" cx="240" cy="160" r="1.5" fill="#000" />
  <circle class="dot4" cx="260" cy="160" r="1.5" fill="#000" />
  <circle class="dot3" cx="280" cy="160" r="1.5" fill="#000" />
  <circle class="dot2" cx="300" cy="160" r="1.5" fill="#000" />
  <circle class="dot1" cx="320" cy="160" r="1.5" fill="#000" />
  <circle class="dot8" cx="340" cy="160" r="1.5" fill="#000" />
  <circle class="dot7" cx="360" cy="160" r="1.5" fill="#000" />
  <circle class="dot6" cx="380" cy="160" r="1.5" fill="#000" />
  <circle class="dot5" cx="400" cy="160" r="1.5" fill="#000" />

  <!-- Adding columns 11-20 to Row 9 -->
  <circle class="dot7" cx="220" cy="180" r="1.5" fill="#000" />
  <circle class="dot6" cx="240" cy="180" r="1.5" fill="#000" />
  <circle class="dot5" cx="260" cy="180" r="1.5" fill="#000" />
  <circle class="dot4" cx="280" cy="180" r="1.5" fill="#000" />
  <circle class="dot3" cx="300" cy="180" r="1.5" fill="#000" />
  <circle class="dot2" cx="320" cy="180" r="1.5" fill="#000" />
  <circle class="dot1" cx="340" cy="180" r="1.5" fill="#000" />
  <circle class="dot8" cx="360" cy="180" r="1.5" fill="#000" />
  <circle class="dot7" cx="380" cy="180" r="1.5" fill="#000" />
  <circle class="dot6" cx="400" cy="180" r="1.5" fill="#000" />

  <!-- Adding columns 11-20 to Row 10 -->
  <circle class="dot8" cx="220" cy="200" r="1.5" fill="#000" />
  <circle class="dot7" cx="240" cy="200" r="1.5" fill="#000" />
  <circle class="dot6" cx="260" cy="200" r="1.5" fill="#000" />
  <circle class="dot5" cx="280" cy="200" r="1.5" fill="#000" />
  <circle class="dot4" cx="300" cy="200" r="1.5" fill="#000" />
  <circle class="dot3" cx="320" cy="200" r="1.5" fill="#000" />
  <circle class="dot2" cx="340" cy="200" r="1.5" fill="#000" />
  <circle class="dot1" cx="360" cy="200" r="1.5" fill="#000" />
  <circle class="dot8" cx="380" cy="200" r="1.5" fill="#000" />
  <circle class="dot7" cx="400" cy="200" r="1.5" fill="#000" />
</svg>
