<svg enable-background="new 0 0 560.6 135.7" height="135.7" viewBox="0 0 560.6 135.7" width="560.6" xmlns="http://www.w3.org/2000/svg"><g opacity=".87"><path d="m175.1 44.7-.1 26.5 23-26.4 22.7.1-25.7 27.4 25.8 44.4-22.7-.1-13.1-24.3c-2.7-4.9-5-6.9-7-6.2s-3 1.8-3 3.2v27.3l-18.9-.1.2-92.9h9.7c2.4 0 4.8.9 6.5 2.7 1.7 1.6 2.7 3.9 2.7 6.2z"/><path d="m222.2 43 19.5.1-.2 73.6-19.5-.1zm18.3-24.7h-16.2c-.9 0-1.6.7-1.6 1.6v16.2c0 .9.7 1.6 1.6 1.6h16.2c.9 0 1.6-.7 1.6-1.6v-16.2c-.1-.8-.8-1.5-1.6-1.6z"/><path d="m293 69.6c-.4-2.6-1.3-5.2-2.8-7.4-2.2-3-5.5-4.5-10.1-4.5-6.5 0-11 3.2-13.4 9.6-1.3 3.4-1.9 7.9-1.9 13.6 0 5.4.6 9.7 1.9 13 2.3 6.1 6.6 9.2 13 9.2 4.5 0 7.7-1.2 9.6-3.6 2-2.7 3.2-6 3.5-9.4l19.7.1c-.5 6-2.8 11.8-6.4 16.6-6.1 8.4-15 12.6-26.9 12.6s-20.6-3.6-26.1-10.6-8.3-16.2-8.3-27.3c0-12.6 3.1-22.4 9.3-29.5s14.7-10.5 25.6-10.5c9.2 0 16.8 2.1 22.7 6.3s9.3 11.5 10.4 22z"/><path d="m416.8 52.5c-5.5-7-13.1-10.5-22.8-10.5-5.4 0-9.8 1.1-13.3 3.3-3.2 2-6 4.7-8.1 7.8l-.2-3.4-.1-33.9h-9.7c-2.4 0-4.8.9-6.5 2.7-1.7 1.6-2.7 3.9-2.7 6.2v11l-.1 35.5-22.8-26.1-22.7.1 25.7 27.5-25.8 44.4 22.7-.1 13.2-24.4c2.7-4.9 5-6.9 7-6.2 1.1.3 2 1 2.6 1.9l-.1 28.7 19 .1v-.2h.4v-8.5c1.8 2.7 4.1 5.1 6.8 7 3.7 2.4 8.6 3.7 14.7 3.7 9.7 0 17.3-3.7 22.8-11.2s8.2-17 8.2-28.4c.1-11-2.7-20-8.2-27zm-14.4 44.8c-2.6 3.9-7 6.2-11.7 6-5.8 0-10.1-2.1-12.9-6.2s-4.2-9.4-4.2-15.7c0-5.4.7-9.7 2.1-13.1 2.7-6.3 7.5-9.5 14.5-9.5s11.7 3.3 14.3 9.8c1.4 3.4 2 7.8 2 13 .1 6.4-1.3 11.7-4.1 15.7z"/><path d="m488.4 108.5c-6.2 7.7-15.7 11.5-28.3 11.4s-22.1-3.9-28.3-11.6-9.3-16.9-9.2-27.7c-.2-10 3.2-19.8 9.4-27.6s15.7-11.6 28.3-11.6 22.1 4 28.3 11.8 9.5 17.6 9.2 27.6c0 10.8-3.2 20-9.4 27.7zm-15.4-10.7c3-4 4.6-9.7 4.6-17.1s-1.5-13.1-4.5-17-7.3-6-13-6-10 2-13 5.9-4.6 9.6-4.6 17 1.5 13.1 4.5 17.1 7.4 6 13 6 10-1.9 13-5.9z"/><path d="m487.9 117.5 25.2-37.2-24-36.3 23.6.1 12.3 21.3 12-21.3 22.9.1-24.3 35.8 25 37.7-24-.1-12.6-22.2-12.9 22.1z"/></g><path d="m124.7.3c-7.7 0-15.4 0-23-.1-15.7 0-31.3-.1-47-.1-12.7 0-25.4-.1-38-.1h-5.3c-6.1.1-11 5-11.1 11.1 0 7.7 0 15.4-.1 23 0 15.7-.1 31.3-.1 47 0 12.6-.1 25.3-.1 37.9v5.3c.1 6.1 5 11 11.1 11.1 7.7 0 15.4 0 23 .1 15.7 0 31.3.1 47 .1 12.6 0 25.3.1 37.9.1h5.3c6.1-.1 11-5 11.1-11.1 0-7.7 0-15.4.1-23 0-15.7.1-31.3.1-47 0-12.6.1-25.3.1-37.9v-5.3c0-6.1-4.9-11-11-11.1zm-105.4 87.3v-27.7h16.1c7.3 0 11.7 4.4 11.7 11.7v16.1s-27.8-.1-27.8-.1zm52.1 27.6c-1.9 4-7.1 7.3-11.8 7.5h-.2l-14.7-.5 51.7-109.2h22.6z" fill="#cbdb29"/><path d="m19.3 87.6v-27.7h16.1c7.3 0 11.7 4.4 11.7 11.7v16.1s-27.8-.1-27.8-.1z" opacity=".87"/><path d="m71.4 115.2c-1.9 4-7.1 7.3-11.8 7.5h-.2l-14.7-.5 51.7-109.2h22.6z" opacity=".87"/></svg>