<svg width="148" height="30" viewBox="0 0 148 30" fill="none" xmlns="http://www.w3.org/2000/svg">
<path d="M24.0012 0C24.0012 0 35.0514 0 36.6799 0C38.3083 0 44.9245 2.03203 44.9245 9.41484C44.9245 16.7977 38.3083 18.6141 36.738 18.6141L48 30H37.5709L26.4043 18.75C26.4043 18.75 15.0446 18.75 14.3467 18.75C13.6488 18.75 11.2829 17.6227 11.2829 15.0398C11.2829 12.457 13.6488 11.25 14.3467 11.25C15.0446 11.25 35.3422 11.25 35.7493 11.25C36.1564 11.25 37.5337 10.8984 37.5337 9.41484C37.5337 7.93125 36.196 7.59844 35.7493 7.59844C35.3027 7.59844 15.0446 7.59844 14.3467 7.59844C13.6488 7.59844 7.5607 8.59453 7.5607 15.0398C7.5607 21.4852 13.6488 22.657 14.3467 22.657C15.0446 22.657 24.3897 22.657 24.3897 22.657L31.6386 29.9602C31.6386 29.9602 15.0446 29.9602 14.3467 29.9602C10.8339 29.9602 0 27.1102 0 15.0398C0 3.2625 10.8572 0 14.3467 0C16.0124 0 24.0012 0 24.0012 0Z" fill="#5667E7"/>
<path d="M73.632 0.399994H68.196C67.422 0.399994 66.864 0.957994 66.864 1.69599V11.704C66.864 12.424 67.422 13 68.196 13H73.632C74.424 13 74.964 12.424 74.964 11.704V9.18399H72.768V10.606C72.768 10.84 72.678 10.966 72.426 10.966H69.402C69.15 10.966 69.06 10.84 69.06 10.606V2.79399C69.06 2.55999 69.15 2.43399 69.402 2.43399H72.426C72.678 2.43399 72.768 2.55999 72.768 2.79399V4.21599H74.964V1.69599C74.964 0.957994 74.424 0.399994 73.632 0.399994Z" fill="#5667E7"/>
<path d="M84.5227 13H86.7547L83.0467 0.399994H80.6887L76.9807 13H79.2127L79.9867 10.192H83.7487L84.5227 13ZM80.5447 8.15799L81.8767 3.31599L83.1907 8.15799H80.5447Z" fill="#5667E7"/>
<path d="M99.8434 0.399994H96.7654L94.2814 7.94199L91.7974 0.399994H88.8094V13H91.0054V4.46799L93.3454 11.416H95.2354L97.6474 4.21599V13H99.8434V0.399994Z" fill="#5667E7"/>
<path d="M108.949 0.399994H102.541V13H104.737V8.60799H108.949C109.741 8.60799 110.281 8.03199 110.281 7.31199V1.69599C110.281 0.957994 109.741 0.399994 108.949 0.399994ZM108.085 2.79399V6.21399C108.085 6.42999 107.995 6.55599 107.743 6.55599H104.737V2.43399H107.743C107.995 2.43399 108.085 2.55999 108.085 2.79399Z" fill="#5667E7"/>
<path d="M118.582 13H120.814L117.106 0.399994H114.748L111.04 13H113.272L114.046 10.192H117.808L118.582 13ZM114.604 8.15799L115.936 3.31599L117.25 8.15799H114.604Z" fill="#5667E7"/>
<path d="M122.923 13H125.119V0.399994H122.923V13Z" fill="#5667E7"/>
<path d="M134.596 0.399994H129.16C128.386 0.399994 127.828 0.957994 127.828 1.69599V11.704C127.828 12.424 128.386 13 129.16 13H134.596C135.388 13 135.928 12.424 135.928 11.704V5.70999H131.878V7.65399H133.732V10.606C133.732 10.84 133.642 10.966 133.39 10.966H130.366C130.114 10.966 130.024 10.84 130.024 10.606V2.79399C130.024 2.55999 130.114 2.43399 130.366 2.43399H133.39C133.642 2.43399 133.732 2.55999 133.732 2.79399V4.01799H135.928V1.69599C135.928 0.957994 135.388 0.399994 134.596 0.399994Z" fill="#5667E7"/>
<path d="M145.071 0.399994V8.644L141.111 0.399994H138.591V13H140.751V4.70199L144.747 13H147.231V0.399994H145.071Z" fill="#5667E7"/>
<path d="M73.686 17.4H66.9V30H69.096V25.05H72.426C72.696 25.05 72.822 25.194 72.822 25.464V30H75.018V25.176C75.018 24.6 74.712 24.168 74.082 24.042C74.712 23.88 75.018 23.466 75.018 22.89V18.696C75.018 17.958 74.46 17.4 73.686 17.4ZM72.822 19.794V22.602C72.822 22.872 72.696 23.016 72.426 23.016H69.096V19.434H72.48C72.732 19.434 72.822 19.56 72.822 19.794Z" fill="#5667E7"/>
<path d="M84.9681 19.434V17.4H77.7141V30H84.9681V27.966H79.9101V24.708H83.6901V22.656H79.9101V19.434H84.9681Z" fill="#5667E7"/>
<path d="M94.7806 19.434V17.4H87.5086V30H89.7046V24.762H93.5026V22.728H89.7046V19.434H94.7806Z" fill="#5667E7"/>
<path d="M97.0056 30H99.2016V17.4H97.0056V30Z" fill="#5667E7"/>
<path d="M108.427 17.4V25.644L104.467 17.4H101.947V30H104.107V21.702L108.103 30H110.587V17.4H108.427Z" fill="#5667E7"/>
<path d="M120.525 19.434V17.4H113.271V30H120.525V27.966H115.467V24.708H119.247V22.656H115.467V19.434H120.525Z" fill="#5667E7"/>
<path d="M129.852 17.4H123.066V30H125.262V25.05H128.592C128.862 25.05 128.988 25.194 128.988 25.464V30H131.184V25.176C131.184 24.6 130.878 24.168 130.248 24.042C130.878 23.88 131.184 23.466 131.184 22.89V18.696C131.184 17.958 130.626 17.4 129.852 17.4ZM128.988 19.794V22.602C128.988 22.872 128.862 23.016 128.592 23.016H125.262V19.434H128.646C128.898 19.434 128.988 19.56 128.988 19.794Z" fill="#5667E7"/>
<path d="M143.044 17.4H140.704L138.112 23.934L135.52 17.4H133.18L137.014 26.382V30H139.21V26.346L143.044 17.4Z" fill="#5667E7"/>
</svg>
