<svg viewBox="0 0 321.2 51" xmlns="http://www.w3.org/2000/svg" xmlns:xlink="http://www.w3.org/1999/xlink"><linearGradient id="a" gradientTransform="matrix(1 0 0 -1 0 52)" gradientUnits="userSpaceOnUse" x1="4.7" x2="46.1" y1="44.2" y2="6.2"><stop offset="0" stop-color="#064af4"/><stop offset=".5" stop-color="#06abdc"/><stop offset="1" stop-color="#04e79e"/></linearGradient><path d="m43.3 1.5c2.6 0 4.7 1.8 4.7 4v40.1c0 2.2-2.1 4-4.7 4h-38.6c-2.6-.1-4.7-1.9-4.7-4.1v-15.3c0-1.7 1.8-2.7 3.3-1.9l1.9 1.1c1 .6 2.4.2 3-.8s.2-2.4-.8-3l-6.3-3.7c-.7-.3-1.1-1-1.1-1.8v-.4c0-1.7 1.9-2.8 3.3-1.9l19.5 12.1c.7.4 1.6.4 2.3 0l12.3-7.7c1-.6 1.3-2 .7-3s-2-1.3-3-.7l-10 6.3c-.7.4-1.6.4-2.3 0l-21.8-13.5c-.6-.4-1-1.1-1-1.9v-3.9c0-2.2 2.1-4 4.7-4z" fill="url(#a)" fill-rule="evenodd"/><path d="m57.3 9.6h6.5l13.8 21.5v-21.5h5.9v31.5h-6l-14.3-22.2v22.2h-5.9zm39.6 32c-1.9 0-3.6-.3-5.1-.9s-2.8-1.5-3.9-2.6-1.9-2.4-2.5-3.8c-.6-1.5-.9-3.1-.9-4.8s.3-3.3.9-4.8 1.5-2.8 2.6-3.9c2.3-2.3 5.5-3.6 8.7-3.5 1.8 0 3.4.3 4.8.9 1.5.6 2.7 1.4 3.8 2.5 1.1 1 1.9 2.3 2.5 3.8s.9 3.2.9 4.8v2.2h-18.5c.4 1.5 1.2 2.7 2.3 3.6 1.2.9 2.6 1.3 4.4 1.3s2.5-.3 3.5-.8c1-.6 1.7-1.3 2.3-2.3l4.9 2.9c-1.1 1.6-2.6 2.9-4.3 3.9s-3.8 1.5-6.4 1.5zm-.2-19.2c-1.5 0-2.8.4-3.9 1.2s-1.9 1.9-2.4 3.3h12.4c-.4-1.5-1.1-2.6-2.2-3.3-1.1-.8-2.4-1.2-3.9-1.2zm10.9-4.6h6.3l5.7 15.7 5.8-15.7h6.2l-9.2 23.3h-5.9zm35.1 23.8c-1.9 0-3.6-.3-5.1-.9s-2.8-1.5-3.9-2.6-1.9-2.4-2.5-3.8c-.6-1.5-.9-3.1-.9-4.8s.3-3.3.9-4.8 1.5-2.8 2.6-3.9 2.4-2 3.9-2.6 3.2-1 4.8-1c1.8 0 3.4.3 4.8.9s2.7 1.4 3.8 2.5c1.1 1 1.9 2.3 2.5 3.8s.9 3.1.9 4.8v2.2h-18.5c.4 1.5 1.2 2.7 2.3 3.6 1.2.9 2.6 1.3 4.4 1.3s2.5-.3 3.5-.8c1-.6 1.7-1.3 2.3-2.3l4.9 2.9c-1.1 1.6-2.6 2.9-4.3 3.9s-3.8 1.5-6.4 1.5zm-.2-19.2c-1.5 0-2.8.4-3.9 1.2s-1.9 1.9-2.4 3.3h12.4c-.4-1.5-1.1-2.6-2.2-3.3-1.1-.8-2.4-1.2-3.9-1.2zm14-4.6h5.9v3.6c.6-1.4 1.4-2.4 2.5-3 1.1-.7 2.4-1 3.9-1s1.5 0 2.2.3c.7.2 1.3.4 1.8.6l-2.2 5.9c-.4-.3-.8-.5-1.3-.6-.6-.2-1.2-.3-1.8-.3-1.5 0-2.7.4-3.7 1.3-.9.8-1.4 2.2-1.4 4.2v12.3h-5.9zm16.7-8.2h13c3.5 0 6.2.8 8.1 2.3s2.9 3.7 2.9 6.5-.3 2.7-1 3.8c-.6 1.1-1.5 1.9-2.7 2.6 1.3.7 2.3 1.6 3 2.8s1.1 2.6 1.1 4.2-.3 2.9-.8 4.1c-.5 1.1-1.3 2.1-2.2 2.9-1 .8-2.2 1.4-3.6 1.8s-3 .6-4.7.6h-13.1zm6 18.2v7.9h7.2c1.7 0 2.9-.3 3.8-1s1.3-1.7 1.3-2.9-.4-2.2-1.2-2.9-2.2-1-4.1-1h-7zm0-12.8v7.3h7.3c1.6 0 2.8-.3 3.5-1s1.1-1.6 1.1-2.7-.4-2-1.2-2.6c-.7-.6-1.9-1-3.5-1zm32.2 26.6c-1.8 0-3.4-.3-4.9-1-1.5-.6-2.8-1.5-3.9-2.6s-2-2.4-2.6-3.9-.9-3.1-.9-4.7c0-1.7.3-3.2.9-4.7s1.5-2.8 2.6-3.9 2.5-2 3.9-2.6c1.5-.6 3.2-1 4.9-1s3.3.3 4.8 1c1.5.6 2.8 1.5 3.9 2.6s2 2.4 2.6 3.9 1 3 1 4.7-.3 3.2-1 4.7c-.6 1.4-1.5 2.8-2.6 3.9s-2.5 2-3.9 2.6c-1.5.6-3.1 1-4.9 1zm.1-5.6c.9 0 1.7-.2 2.5-.5s1.4-.8 2-1.4 1-1.3 1.3-2c.3-.8.5-1.7.5-2.6s-.2-1.7-.5-2.5-.8-1.5-1.3-2.1c-.6-.6-1.3-1.1-2-1.4-.8-.3-1.6-.5-2.5-.5s-1.7.2-2.5.5-1.4.8-2 1.4-1.1 1.3-1.4 2.1-.5 1.7-.5 2.5.2 1.8.5 2.6.8 1.5 1.4 2c.6.6 1.3 1 2 1.4.8.3 1.6.5 2.5.5zm22.2 5.6c-2.9 0-5.1-.9-6.7-2.6s-2.4-4.1-2.4-7.2v-14h6.1v13.2c0 1.6.4 2.9 1.2 3.9s2 1.4 3.6 1.4 2.6-.5 3.5-1.5 1.4-2.4 1.4-4.2v-12.8h6s0 23.3 0 23.3h-6s0-2.9 0-2.9c-.7 1.1-1.7 1.9-2.9 2.5s-2.4.9-3.9.9zm15.4-23.8h6v2.9c.7-1.1 1.7-1.9 2.9-2.5s2.5-.9 4-.9c2.8 0 5 .9 6.6 2.6s2.5 4.1 2.5 7.1v14.1h-6.1v-13.2c0-1.7-.4-3-1.2-3.9-.8-1-2-1.5-3.5-1.5s-2.6.5-3.5 1.5c-1 1-1.4 2.4-1.4 4.2v12.9h-6v-23.3zm34.9 23.8c-1.8 0-3.4-.3-4.9-1-1.5-.6-2.8-1.5-3.9-2.6s-2-2.4-2.6-3.8c-.6-1.5-.9-3.1-.9-4.8s.3-3.3.9-4.8c.6-1.4 1.5-2.7 2.6-3.8s2.4-2 3.9-2.5c1.5-.6 3.2-1 4.8-1 1.4 0 2.6.2 3.8.6 1.1.3 2.2.8 3.2 1.5 1 .6 1.8 1.4 2.5 2.3s1.4 1.9 1.8 3l-5.5 2.2c-.5-1.3-1.2-2.2-2.2-2.9s-2.2-1.1-3.5-1.1-1.7.2-2.5.5-1.5.8-2 1.4c-.6.6-1.1 1.3-1.4 2.1s-.5 1.7-.5 2.5.2 1.7.5 2.5.8 1.5 1.4 2.1 1.3 1 2.1 1.4c.8.3 1.6.5 2.5.5 1.4 0 2.6-.4 3.5-1.1 1-.8 1.8-1.7 2.2-2.9l5.6 2.3c-1 2.1-2.5 4-4.4 5.4s-4.2 2.1-7 2.1zm24.2 0c-1.9 0-3.6-.3-5.1-.9s-2.8-1.5-3.9-2.6-1.9-2.4-2.5-3.8c-.6-1.5-.9-3.1-.9-4.8s.3-3.3.9-4.8 1.5-2.8 2.6-3.9c2.3-2.3 5.5-3.6 8.7-3.5 1.8 0 3.4.3 4.8.9s2.7 1.4 3.8 2.5c1.1 1 1.9 2.3 2.5 3.8s.9 3.1.9 4.8v2.2h-18.5c.4 1.5 1.2 2.7 2.3 3.6 1.2.9 2.6 1.3 4.4 1.3s2.5-.3 3.5-.8c1-.6 1.7-1.3 2.3-2.3l4.9 2.9c-1.1 1.6-2.6 2.9-4.3 3.9s-3.8 1.5-6.4 1.5zm-.1-19.2c-1.5 0-2.8.4-3.9 1.2s-1.9 1.9-2.4 3.3h12.4c-.4-1.5-1.1-2.6-2.2-3.3-1.1-.8-2.4-1.2-3.9-1.2z"/></svg>