<svg viewBox="0 0 288 288" xmlns="http://www.w3.org/2000/svg"><path d="m149.1 193.9c0 .5-.4 1.2-1.2 1.7l-57.8 32.6c-1.6.9-4.1.9-5.6 0l-28.7-16.6c-.7-.4-1.2-1-1.2-1.7v-11.2c0 .6.3 1.2 1.2 1.7l28.5 16.6c1.6.9 4.1.9 5.6 0l57.8-32.6c.8-.4 1.2-1 1.2-1.7v11.2h.1z" fill="#ffd682"/><path d="m56 197.1c-1.6.9-1.6 2.4 0 3.2l28.7 16.6c1.6.9 4.1.9 5.6 0l57.8-32.6c1.6-.9 1.6-2.4 0-3.2l-28.7-16.6c-1.6-.9-4.1-.9-5.6 0z" fill="#fff2d7"/><g fill="#ffd682"><path d="m116 164.5v26c-.1 0-29 16.7-29 16.7v-26c.1 0 29-16.7 29-16.7z"/><path d="m87.1 181.3v26c-.1 0-9.1-5.2-9.1-5.2v-25.9c.1 0 9.1 5.1 9.1 5.1z"/><path d="m116 164.5-28.9 16.7-9-5.1 28.8-16.7z"/></g><path d="m167.8 124.1c0 4.9-3.5 11-7.7 13.4l-126.9 73.3c-2.2 1.3-4.1 1.4-5.5.5l-2.3-1.4-10.6-6.1c-1.5-.8-2.3-2.6-2.3-5v-8.8l-.3-92.4c0-4.9 3.5-10.9 7.7-13.4l126.9-73.2c2.1-1.3 4.1-1.4 5.5-.5l12.7 7.4h.1c1.5.7 2.3 2.5 2.3 5l.2 92.4v8.8z" fill="#f2a600"/><path d="m155.8 121.6-118.7 68.5-.2-85c0-.8 1.2-2.6 1.9-3.1l116.8-67.4z" fill="#fff2d7"/><path d="m167.4 115.3v8.8c0 4.9-3.5 10.9-7.7 13.4l-126.8 73.3c-4.3 2.5-7.8.5-7.8-4.4v-8.8l142.4-82.2z" fill="#ffd682"/><path d="m25.3 197.5v12.4l-10.6-6.1c-1.5-.8-2.3-2.6-2.3-5v-8.8l12.9 7.4z" fill="#ffd682"/><path d="m99.7 161.7c0 2.2-1.6 4.9-3.5 6-1.9 1.2-3.5.2-3.5-2s1.6-4.9 3.5-6 3.5-.2 3.5 2z" fill="#cc8109"/><path d="m179.6 285.2-14.6-7.6-.2-85.2 14.6 7.7z" fill="#ffd682"/><path d="m179.4 200.1-14.6-7.7 95.1-56.7 14.6 7.7z" fill="#ffd682"/><path d="m276.5 144.4.2 85.1-95.1 56.7-.2-85.1z" fill="#fff2d7"/><path d="m228.7 184c4.7-2.7 8.6-.5 8.7 4.9 0 5.4-3.9 12.1-8.6 14.8s-8.6.5-8.6-4.9 3.9-12.1 8.6-14.8zm0 23.3c9.6-5.5 17.7-1.8 18.7 8.5.1 1.2-.7 2.8-1.8 3.5l-33.7 19.4c-1.2.6-2 0-1.9-1.3 1-11.4 8.9-24.5 18.6-30z" fill="#feb600"/><path d="m209.4 247.7v4l52.7-30.4v2.9l-52.7 30.3v4l-2.5 1.5v-3.9l-5.3 3v-2.9l5.3-3v-4c-.1 0 2.5-1.5 2.5-1.5z" fill="#feb600"/><path d="m152.5 193.9v-11.2c0-1.8-1-3.5-2.8-4.5l-26.7-15.5 38.8-22.4c5.2-3 9.4-10.2 9.4-16.3l-.3-101.2c0-3.7-1.5-6.5-4.1-7.8-.4-.4-5.6-3.3-12.8-7.5-2.5-1.5-5.8-1.2-8.8.6l-126.9 73.2c-5.2 3.1-9.4 10.2-9.3 16.3l.3 101.2c0 3.6 1.4 6.4 3.9 7.8 10.2 4.1 13.2 11.7 21.8 6.9l16.5-9.5v5.9c0 1 .4 2.9 2.8 4.5l28.7 16.5c2.7 1.6 6.5 1.5 9 0l57.7-32.6c1.8-.9 2.9-2.6 2.9-4.5h-.1zm-125.6 14.4c0-.4 0-10.5 0-9.8l137.6-79.4 1.5-.8v6c0 4.4-3.1 9.8-6.9 12.1-.4.2-121.5 70.1-126.8 73.2-2.3 1.4-4.5 1.4-5.2-1.2h-.1zm123.8-195 7.4 4.4-126 72.7c-2.2 1.3-4.2 3.3-5.6 5.8l-9-4.4c1.2-1.9 2.6-3.7 4.3-4.6l126.7-73.3c.8-.4 1.4-.6 1.9-.6zm-127 194h-.2c0-.1-7.9-4.7-7.9-4.7-.9-.6-1.5-1.9-1.5-3.7v-6.1c.4.2 10.1 6 9.7 5.6 0 .7 0 9.4 0 8.9zm14.8-102c0-.5.8-1.8 1-2l114.5-66.1.2 83.4-115.5 66.7-.2-82.1zm125.7-82.4.3 92.3-7 4.1-.2-84.8c0-.6-.3-1-.8-1.4-.5-.3-1-.3-1.6 0l-116.9 67.7c-1 .7-2.3 2.9-2.5 4.4l.2 84.5-8.7 5-.3-89.5c0-4.4 3.1-9.8 6.9-12.1l126.9-73.3c.3-.1.5-.3.7-.3 2.3 1.6 2.9.9 2.9 3.5zm-139.3 76c-.8 2.1-1.4 4.2-1.4 6.3l.3 89.7-8.1-4.6-.2-92.5c0-.9.2-2 .5-3s8.9 4.3 8.9 4.3h-.1zm120.9 94.1-56.8 32.1v-6c.2 0 .3 0 .5-.2.3 0 1-.4 1.4-.5l54.9-31zm0-9.2-56.5 31.9c-.6.4-2.7.6-4 0l-26.9-15.6 18.2-10.5v12.5c0 .5.2 1 .7 1.4l9 5.2c.3.1.5.2.8.2s.5 0 .7-.2l28.8-16.7c.5-.3.7-.8.7-1.4v-23.3h.3l28.1 16.3h-.1zm-66.2 4 6-3.5v20.3l-6-3.5v-13.5zm9.1-5.3c.4-.2 27.4-15.7 25.7-14.6v21.8l-25.7 15v-22.1zm-5 35.8c.4.2 1.3.5 2.2.7v6.1c-3.9-2.2-28.3-16.4-27.8-16.2v-5.6zm195.1-75.3c0-1.3-.7-2.3-1.8-2.9l-14.6-7.7c-1-.6-2.3-.5-3.2 0l-95.1 56.7c-.9.6-1.6 1.7-1.6 2.8l.2 85.1c0 1.3.7 2.3 1.8 2.9l14.6 7.6c.5.3 1 .4 1.6.4s1.2-.2 1.7-.5l95.1-56.7c.9-.6 1.6-1.7 1.6-2.9l-.2-85.1v.3zm-99.4 53.1-10-5.2 90.6-54.1 10 5.2c-124 74-81.3 48.5-90.6 54.1zm-12.2 80-.2-80.1 10.1 5.3.3 80.1zm14.2-75.8c9.3-5.5-33.6 20.1 90.7-54.2l.2 80-90.6 54.1z" fill="#a8680c"/><path d="m129.5 77.5c2.7-1.6 4.8-5.3 4.8-8.4s-2.2-4.3-4.8-2.7c-2.7 1.6-4.8 5.3-4.8 8.4s.6 2.7 1.6 3.2c.7.3 1.7.3 2.7-.2.1 0 .3-.1.5-.2" fill="#796d9e"/><path d="m130.1 70c.7 0 1 .8.7 1.9l-1.9 5.9c-1 .5-2 .5-2.7.2l1.9-6c.2-.8.7-1.5 1.4-1.8.2-.1.4-.2.6-.2zm-18 53 .7-2.4c1-.5 2-.5 2.8-.2l-1.9 6c-.2.7-.7 1.4-1.3 1.8-.5.3-1 .3-1.3 0l-2.6-2.8c.6-1.3 1.5-2.5 2.5-3.5l1 1.2h-.1z" fill="#796d9e"/><path d="m121.5 121.2c0 5.9-4.1 12.9-9.1 15.8s-9.2.6-9.2-5.2 1.2-6.3 2.8-9.2c.7-1.3 1.6-2.4 2.5-3.3 1.2-1.4 2.4-2.4 3.8-3.2.7-.4 1.6-.7 2.3-.9.9-.3 1.9-.4 2.7-.2 2.5.4 4.1 2.7 4.2 6.4z" fill="#feb600"/><path d="m114.6 115 9.8-31.3c.8.1 1.8 0 2.7-.2l-9.8 31.3c-.8-.1-1.8 0-2.8.2zm-22.4-13.9 16.3 18c-.9 1-1.8 2.2-2.5 3.5l-16.3-18.1c.9-1 1.8-2.2 2.5-3.3z" fill="#feb600"/><path d="m87.1 95.4 2.6 2.9c-.6 1.3-1.5 2.5-2.5 3.3l-1.2-1.3-.8 2.6c-1 .4-2 .4-2.7 0l2-5.9c.2-.7.7-1.4 1.3-1.7h.1c.5-.3.9-.3 1.3 0z" fill="#796d9e"/><path d="m69.5 141 11-32.4c.8.2 1.7.2 2.7 0l-11 32.3c-.8-.2-1.7-.2-2.7 0z" fill="#feb600"/><path d="m67 158.2c2.7-1.6 4.8-5.2 4.8-8.4s-.5-2.6-1.5-3.1c-.7-.4-1.7-.4-2.7 0-.2 0-.4.2-.6.3-2.7 1.6-4.8 5.3-4.8 8.4s2.2 4.3 4.8 2.7" fill="#796d9e"/><path d="m65.7 152.6 2-6c1-.4 2-.4 2.7 0l-2 5.9c-.3.7-.8 1.5-1.4 1.8-.2.1-.4.2-.6.2-.7 0-1-.8-.7-1.9z" fill="#796d9e"/><path d="m138.6 66.7c0 5.9-4.1 12.9-9.1 15.8-.7.4-1.5.7-2.2 1-1 .3-1.9.3-2.8.2-2.5-.4-4.1-2.7-4.1-6.4 0-5.8 4.1-12.9 9.1-15.8 5.1-2.9 9.2-.5 9.2 5.2z" fill="#feb600"/><path d="m95.1 91.8c0 3-1.2 6.4-2.8 9.3-.7 1.3-1.6 2.4-2.5 3.3-1.2 1.3-2.4 2.3-3.8 3.1-.9.5-1.9.9-2.7 1.2-.9.2-1.9.2-2.6 0-2.3-.5-3.9-2.8-3.9-6.3 0-5.8 4.1-12.9 9.1-15.8 5.1-2.9 9.2-.5 9.2 5.2z" fill="#feb600"/><path d="m76.1 147.4c0 5.9-4.1 12.9-9.1 15.8s-9.1.6-9.2-5.2c0-5.9 4.1-12.9 9.1-15.8.9-.5 1.8-.8 2.6-1.2.9-.2 1.9-.2 2.7 0 2.3.5 3.8 2.8 3.8 6.3h.1z" fill="#feb600"/><path d="m175.8 236.4c.8.2 1.7.4 2.7.3-.8-.3-1.8-.4-2.7-.3z" fill="#8f85ad"/></svg>