<svg viewBox="0 0 288 288" xmlns="http://www.w3.org/2000/svg"><path d="m113.9 266.5 20.2 11.7 141.4-81.4-57.7-33.5-3 1.7 54.8 31.8-135.4 78-17.2-10-2.9 1.7z" fill="#d31f33"/><path d="m14.3 113.3 123.5 81.9-28.2 16.3 2.9 1.7 31.2-18-123.5-81.9 28.3-16.4-2.9-1.7z" fill="#d31f33"/><path d="m145.8 49.9v22.8c-.1 1.1-.9 2.2-2.3 3.1l-59.6 34.6c-2.9 1.7-7.7 1.7-10.6 0l-60-34.6c-1.5-.9-2.2-2-2.2-3.1v-22.8c0 1.1.8 2.2 2.3 3.1l60 34.7c3 1.7 7.7 1.7 10.6 0l59.6-34.7c1.5-.8 2.2-1.9 2.2-3z" fill="#ffedee"/><path d="m143.2 46.8c2.9 1.7 2.9 4.4 0 6.1l-59.6 34.6c-2.9 1.7-7.7 1.7-10.6 0l-60.1-34.5c-3-1.7-2.9-4.4 0-6.1l59.6-34.7c2.9-1.7 7.7-1.7 10.6 0l60 34.7z" fill="#ffc0c6"/><path d="m32.5 49.9 45.3-26.3 45.7 26.4-45.3 26.3z" fill="#ffacb0"/><g fill="#ff5b67"><path d="m30.6 71.9c-.7-.4-1.3 0-1.3.8s.6 1.8 1.3 2.3l26.7 15.4c.7.4 1.3 0 1.3-.7 0-.8-.6-1.9-1.3-2.3l-26.7-15.4zm-11.8-6.9c-.8-.5-1.4 0-1.4.8 0 .9.6 2 1.4 2.4.8.5 1.4 0 1.4-.8 0-.9-.6-2-1.4-2.4zm5.4 3.1c-.8-.5-1.4 0-1.4.8 0 .9.6 2 1.4 2.4s1.4 0 1.4-.8c0-.9-.6-2-1.4-2.4z"/><path d="m126.5 71.9c.7-.4 1.3 0 1.3.8s-.6 1.8-1.3 2.3l-26.7 15.4c-.7.4-1.3 0-1.3-.7 0-.8.6-1.9 1.3-2.3l26.7-15.4zm11.8-6.9c.8-.5 1.4 0 1.4.8 0 .9-.6 2-1.4 2.4-.8.5-1.4 0-1.4-.8 0-.9.6-2 1.4-2.4zm-5.4 3.1c.8-.5 1.4 0 1.4.8 0 .9-.6 2-1.4 2.4s-1.4 0-1.4-.8c0-.9.6-2 1.4-2.4z"/><path d="m63.6 90.9c-.8-.5-1.4 0-1.4.8 0 .9.6 2 1.4 2.4s1.4 0 1.4-.8c0-.9-.6-2-1.4-2.4zm5.4 3.1c-.8-.5-1.4 0-1.4.8 0 .9.6 2 1.4 2.4.8.5 1.4 0 1.4-.8 0-.9-.6-2-1.4-2.4z"/><path d="m93.5 90.9c.8-.5 1.4 0 1.4.8 0 .9-.6 2-1.4 2.4s-1.4 0-1.4-.8c0-.9.6-2 1.4-2.4zm-5.4 3.1c.8-.5 1.4 0 1.4.8 0 .9-.6 2-1.4 2.4s-1.4 0-1.4-.8c0-.9.6-2 1.4-2.4z"/></g><path d="m139.4 233.1v16.2c0 .8-.6 1.6-1.6 2.2l-42.2 24.5c-2.1 1.2-5.4 1.2-7.5 0l-42.6-24.6c-1-.6-1.6-1.4-1.5-2.2v-16.2c0 .8.6 1.6 1.6 2.2l42.5 24.6c2.1 1.2 5.4 1.2 7.5 0l42.3-24.6c1-.6 1.5-1.4 1.5-2.2z" fill="#ffedee"/><path d="m137.5 231c2.1 1.2 2.1 3.1 0 4.4l-42.2 24.6c-2.1 1.2-5.4 1.2-7.5 0l-42.5-24.6c-2.1-1.2-2.1-3.1 0-4.3l42.2-24.6c2.1-1.2 5.4-1.2 7.5 0l42.5 24.6z" fill="#ffc0c6"/><path d="m269.4 83.1-16.6-9.6c-2.4-1.4-5.3-1.9-8.6-1.5l16.6 9.6c3.2-.4 6.1 0 8.6 1.5z" fill="#8f85ad"/><path d="m254.2 64.8-16.6-9.6c-4.2-2.5-10.1-2.1-16.5 1.6-1.6.9-3.1 2-4.6 3.2l16.6 9.6c1.4-1.2 2.9-2.3 4.6-3.2 6.4-3.7 12.2-4 16.5-1.6zm-109.9 110.4 16.6 9.6c-4.4-2.5-7-8-7.1-15.7 0-8.3 3.1-17.6 8.1-25.6l-16.6-9.6c-5 8-8.1 17.4-8.1 25.6 0 7.7 2.7 13.2 7.1 15.7z" fill="#ffacb0"/><path d="m171.3 87 16.6 9.7c3.3-12.5 12.2-25.1 22.7-31.2 6.8-3.9 13-4.3 17.4-1.7l-16.6-9.7c-4.4-2.5-10.5-2.2-17.3 1.7-10.5 6.1-19.3 18.7-22.7 31.2zm16 9.7-16.6-9.6c-1 .5-1.9.9-2.9 1.4-12.9 7.4-23.2 25.4-23.1 40 0 2 .2 3.8.6 5.4l16.6 9.6c-.4-1.6-.6-3.5-.6-5.4 0-14.6 10.2-32.5 23.1-40 1-.6 1.9-1 2.9-1.4z" fill="#ffacb0"/><path d="m210.6 65.5c-10.5 6.1-19.3 18.7-22.7 31.2-1 .5-1.9.9-2.9 1.4-12.9 7.4-23.2 25.4-23.1 40 0 2 .2 3.8.6 5.4-5 8-8.1 17.4-8.1 25.6 0 15.6 10.9 21.8 24.4 13.9l73.4-42.4c13.4-7.7 24.3-26.5 24.3-42 0-11.9-6.6-18.3-15.7-17.1 0-.6 0-1.3 0-1.9 0-14.7-10.5-20.5-23.2-13.2-1.6.9-3.1 2-4.6 3.2-3.7-7.9-12.3-10-22.5-4.1z" fill="#ffc8cb"/><path d="m104.6 225.9c6.9 4 7 10.5 0 14.5-6.9 4-18.2 4-25.1 0-7-4-7-10.6 0-14.6 6.9-4 18.2-4 25.1 0z" fill="#ffacb0"/><path d="m144.6 197.4c-3 1.7-7.9 1.7-10.9 0s-3-4.6 0-6.3 7.9-1.7 10.8 0c3 1.7 3 4.6 0 6.3zm133.3 2.5c-3 1.7-7.9 1.7-10.9 0s-3-4.6 0-6.3 7.9-1.7 10.8 0c3 1.7 3 4.6 0 6.3zm-138.1 79c-3 1.7-7.9 1.7-10.9 0s-3-4.6 0-6.3 7.9-1.7 10.8 0c3 1.7 3 4.6 0 6.3zm-115.9-162.5c-3 1.7-7.9 1.7-10.9 0s-3-4.6 0-6.3 7.9-1.7 10.8 0c3 1.7 3 4.6 0 6.3z" fill="#ffacb0"/><path d="m31.1 49.8c0 .6.3 1 .7 1.3l45.7 26.4c.2.1.5.2.7.2s.6 0 .8-.2l45.3-26.3c.5-.3.7-.8.7-1.3s-.3-1-.7-1.3l-45.7-26.4c-.5-.3-1-.3-1.5 0l-45.3 26.3c-.5.3-.7.8-.7 1.3zm46.8-24.6 42.7 24.7-42.4 24.6-42.7-24.7z" fill="#d31f33"/><path d="m85.5 113.2 59.6-34.6c3.3-1.9 3.7-4.5 3.7-5.8v-22.8c.2-2.3-1.2-4.4-3.6-5.9l-60.1-34.7c-3.8-2.2-10-2.2-13.8 0l-59.6 34.7c-2.4 1.4-3.7 3.5-3.7 5.8v22.8c-.2 2.3 1.2 4.4 3.7 5.9l60.1 34.6c3.8 2.2 9.9 2.3 13.8 0zm-3.5-98.3 60.1 34.6c.3.2.5.4.6.4v1.6s-.1 0-.2.1l-59.6 34.7c-2.5 1.3-6.3 1.4-8.7 0l-59.9-34.5v-1.7s.2-.3.6-.6l59.7-34.5c1.9-1.1 5.5-1.1 7.4 0zm-2 93.5s0 0 0 0v-18.1s0 0 0 0c.2-.2 2.1 0 4.7-1.4l57.9-33.7v17.3c-.1 0-.3.3-.7.6l-59.6 34.6c-.6.3-1.4.6-2.3.7zm-7.8-19.5c1.4.8 3 1.3 4.8 1.4v18.1c-.8-.1-1.5-.3-2.1-.7l-60-34.6c-.3-.2-.6-.4-.6-.4v-17.2s58 33.5 58 33.5zm67.2 139.3-42.6-24.6c-3-1.7-7.7-1.7-10.7 0l-42.3 24.6c-1.9 1.1-3.1 2.9-3.1 4.9v16.1c-.1 1.9 1 3.8 3 5l42.6 24.5c1.5.9 3.4 1.4 5.4 1.4s3.9-.5 5.3-1.3l42.3-24.6c1.9-1.2 3.1-3 3.1-4.9v-16.1c.1-2-1-3.8-3-5zm-45.7-19.1 42.5 24.6v.7l-41.7 24.2c-.6.3-1.4.6-2.2.6-.5 0-.9 0-1.4 0-.8 0-1.6-.3-2.2-.6l-41.7-24.1v-.8l42.2-24.5c1.1-.6 3.3-.6 4.4 0zm-46.6 29 39.9 23c.9.5 2 .9 3.2 1v11.4c-.2 0-.5-.2-.6-.2l-42.5-24.6zm46.1 35.5s0 0 0 0v-11.5c1.1-.1 2.2-.5 3.1-1l39.9-23.2v10.8s-42.3 24.5-42.3 24.5c-.2.1-.5.2-.7.3zm177.8-193.3-7.1-4.1c-.9-7.5-4.6-12.3-8-14 0 0-.2-.1-.3-.2l-16.4-9.5c-5.4-3.1-12.5-2.5-19.6 1.6-.3.2-.7.4-1 .6l-5.6-3.2c-5.5-3.3-13-2.6-20.5 1.7-10.6 6.1-19.8 18.4-23.8 31.7-14.6 7.3-26.5 26.9-26.5 43.6 0 1.7.2 3.3.4 4.9-5.1 8.5-7.9 18-7.9 26.2 0 8.6 3.1 15.2 8.6 18.4l16.1 9.4s.2 0 .2.1c6.3 3.9 14.2 2.2 20.8-1.6l73.4-42.4c23.3-13.4 35.1-52.7 17.2-63.1zm-10.9 2.5c.4.4 1.2 0 2.6 0 2.7 2.4 10.5 2.6 10.6 15.8 0 14.4-10.1 32-22.7 39.3l-73.4 42.4c-5.5 3.1-10.6 3.8-14.1 1.8-.1 0-.2-.1-.3-.2l-4.6-2.7c-1.5-2.6-2.3-6-2.3-10.1 0-7.7 2.8-16.8 7.8-24.8.2-.3.3-.7.2-1.1-.4-1.5-.6-3.2-.6-5.1 0-13.8 9.6-32.3 25-40h.1c.3-.1.5-.3.6-.6.1-.1.2-.3.2-.4 3.9-14.4 16.9-31.9 30.6-33.4 9.5-.7 11.3 6.3 12.2 7.1.2.1.4.3.6.3 1.7.3 6.7-6.1 14.9-6.3 7.7 3.5 9.5 7.3 9.9 13.2v.3c.1 1.8 1.3 2.2 1.7 2.6 0 .4-.2 1.6.7 1.9zm-50.3-26 5.3 3.1v.2c0 1 .7 1 1.1 1.4-13.1 3.5-24.4 18.8-29.1 33l-12.5-7.2c3.4-11.8 11.8-23.3 21-28.6 5.4-3.1 10.6-3.8 14.1-1.7zm33.8 5.6c-.5.1-.6.1-2.2.7t0 0c-2.7 1.1-5.2 2.4-7.6 4.2-2.9-4.6-6.6-5.5-10.4-8.1 11.2-6.2 14.7 1 20.4 3.1zm-70.9 27.5 11.4 6.7c-16.5 11-24.4 28.1-24.4 41.5 0 .9 0 1.8.1 2.6l-10.9-6.4c0-.4 0-.8 0-1.2-.3-1.4-.5-3-.5-4.7 0-13.6 9.7-30.3 21.6-37.2 2.4-1.3 2-1 2.6-1.3zm-24.9 47.1 12.1 7c-4.8 8.2-7.5 17.2-7.5 25.1 0 2.6.3 5.1.9 7.2l-6.8-3.9c-3.5-2.1-5.5-6.7-5.5-13s2.4-15.1 6.7-22.5z" fill="#d31f33"/><path d="m78.8 241.7c7.6 4.3 19.4 4.2 26.6 0 7.9-4.6 7.8-12.5 0-17.1-7.2-4.2-19.5-4.2-26.6 0-7.9 4.6-7.9 12.5 0 17.2zm25.1-14.6c5.7 3.2 6.2 8.4 0 12s-17.4 3.6-23.6 0c-5.6-3.2-6.3-8.4 0-12 6.5-3.8 17.1-3.8 23.6 0zm90.9-101.3c-4.1 2.4-7.4 8.1-7.4 12.8s3.3 6.6 7.5 4.2c4.1-2.3 7.4-8 7.3-12.7 0-4.7-3.3-6.6-7.4-4.3zm25.4-14.7c-4.1 2.4-7.5 8.1-7.4 12.8 0 4.7 3.3 6.6 7.5 4.2 4-2.3 7.3-8 7.3-12.7s-3.3-6.6-7.4-4.2zm25.5-14.7c-4.1 2.4-7.4 8-7.4 12.8 0 4.7 3.3 6.5 7.5 4.2 4.1-2.3 7.4-8 7.4-12.7s-3.3-6.6-7.4-4.2z" fill="#d31f33"/></svg>