<svg height="288" width="288" xmlns="http://www.w3.org/2000/svg"><svg enable-background="new 0 0 68 68" height="288" viewBox="0 0 68 68" width="288" xmlns="http://www.w3.org/2000/svg"><path d="m41.986 7.671-.009 21.58-36.57 21.108.009-21.57z" fill="#eeedf3"/><path d="m41.2921371 4.2301455c-.3436699-.1964674-.8346596-.1571498-1.374733.1571498l-32.581973 18.8145842c-1.0900397.6285992-1.9836121 2.170248-1.9836121 3.4369164l.0589166 23.7245617h.009829v2.2585945c.0098295.628479.2258358 1.0704422.5793328 1.276619l-.5891619-.3437881-2.7102649-1.5613098c-.3633265-.2160072-.5793326-.6579666-.5793326-1.2863274l-.0098293-2.2585945-.0589162-23.7343904c-.0098293-1.2667885.8935723-2.7986088 1.983552-3.4369183l32.5819716-18.8047537c.5499649-.3241291 1.050724-.3536172 1.4140511-.1474404z" fill="#eeedf3"/><path d="m39.9198685 4.3876767c1.1014481-.6359229 1.9962883-.1259336 1.9998779 1.1397176l.0633583 23.7230377-36.5692396 21.1132612h.0064158l-.0697732-23.7230377c-.0035882-1.2656517.8914289-2.8090153 1.9928694-3.4449329z" fill="#fff"/><path d="m39.9198685 4.3876767c1.1014481-.6359229 1.9962883-.1259336 1.9998779 1.1397176l.0633583 2.1447644-36.5692396 21.1132608h.0064158l-.0697732-2.1447639c-.0035882-1.2656517.8914289-2.8090153 1.9928694-3.4449329zm2.0568084 24.8627563.0064163 2.2630768c.0035896 1.2656498-.8854408 2.8054638-1.9868927 3.4413891l-32.5764889 18.8080444c-1.107429.6393738-2.0022693.1294785-2.0058575-1.1361732l-.0064158-2.2630768z" fill="#c6c1d6"/><path d="m17.2319202 48.0957222 4.2755108 3.3234406c1.1485996.7820549 3.2080421.8334084 4.4736309.1027222l9.9764767-5.759922c1.2556992-.7249794 1.1836662-1.9237633-.1725998-2.5859222l-5.6795177-2.5128365z" fill="#d3cfdf"/><path d="m5.4107356 50.3633575v3.1914253l-2.7102649-1.5613098c-.3633265-.2160072-.5793326-.6579666-.5793326-1.2863274l-.0098293-2.2585945z" fill="#c6c1d6"/><path d="m24.4070339 41.2345123c0 .5091362-.3636742 1.123333-.7920151 1.3738098-.4282913.2505722-.7919655.0485344-.7919655-.4525108 0-.5091362.3555851-1.1152458.7919655-1.365818.428341-.250473.7920151-.0484352.7920151.444519zm-15.2658319-17.6213779c.3905802-.225502.7197447-.0378761.7210674.4289036.0013237.4666595-.3257284 1.024128-.7163086 1.24963-.406209.2345238-.7353477.0559063-.7366705-.4107513-.0013237-.4667798.3257027-1.0332585.7319117-1.2677823zm2.960617-1.7093125c.3983946-.2300148.7275591-.042387.7288818.4243927.0013237.4666576-.3257284 1.0241261-.724123 1.2541389s-.72752.0513897-.7288427-.4152699c-.0013237-.4667796.3256894-1.0332488.7240839-1.2632617zm2.9684315-1.7138252c.3983946-.2300129.7275581-.042387.7288818.4243927.0013227.4666576-.3257284 1.0241261-.724123 1.2541409-.406209.2345238-.7353344.0558987-.7366571-.410759-.0013237-.4667797.3256893-1.0332508.7318983-1.2677746z" fill="#6b5f8e"/><path d="m8.134 38.112-.006 7.537 9.794-5.653.004-7.539z" fill="#cdc8db"/><path d="m39.265 20.135-9.794 5.655-.003 7.542 9.791-5.652z" fill="#d4d0df"/><path d="m17.926 32.457-.004 7.539 11.546-6.664.003-7.542z" fill="#948bb1"/><path d="m8.134 30.359 31.131-17.977-.006 4.709-31.131 17.97z" fill="#fff"/><path d="m65.4412994 23.2590561c-.2685852-.1534538-.6394196-.1342525-1.0422592.1023293l-15.3908005 8.8815269c-.7992706.4667625-1.4514923 1.5921478-1.4514923 2.5192719l.0895309 30.0079346c0 .4603577.1598549.7800674.4219971.9335251l-2.9910927-1.7292213c-.2621841-.1470528-.4284363-.4731636-.4284363-.9336014l-.0831299-30.0079346c-.0063591-.920723.6458206-2.0525055 1.4514923-2.5128689l15.3844032-8.8878498c.4092369-.23666.7801094-.2558613 1.0422516-.1024075z" fill="#eeedf3"/><path d="m65.9476089 54.1995697c.0068741.9271202-.6455612 2.0534325-1.4559402 2.5203857l-15.3835754 8.8799438c-.810421.467041-1.4628181.0961609-1.4628181-.8309631l-.089283-30.0049286c0-.9271202.6523972-2.0534286 1.4559441-2.5203819l15.3835716-8.8799458c.8103867-.4670391 1.462822-.0961571 1.469696.8310452z" fill="#eeedf3"/><path d="m65.9476089 26.2147369-18.3916168 10.6210137v-2.071743c0-.9271202.6523972-2.0534286 1.4559441-2.5203819l15.3835716-8.8799458c.8103867-.4670391 1.462822-.0961571 1.469696.8310452z" fill="#c6c1d6"/><path d="m58.218 28.925-2.932 1.694" fill="#c1ccd6"/><path d="m47.6698685 62.8520279 18.3023148-10.5693817.0892792 2.0201645c.0000076.9271126-.6523895 2.0534172-1.4559402 2.5203705l-15.3835489 8.8798828c-.8103828.467041-1.4628181.0961609-1.469696-.8310394z" fill="#c6c1d6"/><path d="m47.879 33.525-3.046-1.62" fill="#98acc3"/><g fill="#403956"><path d="m41.6749725 3.5848155-3.2700195-1.9100341c-.6199951-.3499756-1.4099731-.3000488-2.1599731.1500244l-32.5900264 18.8099369c-1.3299561.7800293-2.3599854 2.5700684-2.3499756 4.0800781l.0700073 25.9899902c0 .8800049.3300171 1.5700684.9500121 1.9399414l3.289978 1.9001465c.6746402.3995361 1.4880066.2630463 2.1799927-.130127l9.3800049-5.4199219 3.9100342 3.0400391c1.3878651.9578552 3.7602749.9932213 5.2699585.1398926l9.9800415-5.7600098c1.7214088-.9955254 1.7454643-2.9537315-.25-3.9199219l-4.3200073-1.9200439 8.6199951-4.9699707c1.3200073-.7700195 2.3499756-2.5699463 2.3499756-4.0999756l-.059998-25.9799808c0-1.0550971-.5347633-1.7537415-1-1.9400635zm-34.6199946 49.52002c-.2799683.1600342-.539978.2299805-.6799927.1500244l-.5700073-.3300781c-.0528879-.2376747-.0211692-.3534851-.0299683-2.369873l35.4599605-20.4700928v1.4200439c0 1.0100098-.7299805 2.3000488-1.5999756 2.8000488-1.8756409 1.0778237-31.5056391 18.1798401-32.5800166 18.7999268zm-1.289978-3.3599853c0-28.4358959 0-18.6283188 0-20.75l35.1799922-20.3200684.2399902-.1398926.039978 20.7399902zm35.1799922-44.8500982c.0100098 0 .0100098.0100098.0199585.0100098h.0100098c.0900269.0500488.2000122.2399902.2000122.6201172l.0100098 2.2099609-35.4299923 20.4499517-.0499878-1.5500488c0-.9752922.6123853-2.3306637 1.8099976-3.1298828 34.6262698-19.9812265 32.615623-18.858554 32.8599848-18.940064zm-33.7800289 18.0000005c-.6967673.4121838-1.3587785 1.2468891-1.4599609 1.5h-.0100098s-.0002441.0004883-.0004272.0007324l-2.4422607-1.1948242c.0010986-.0019531.0015869-.0039063.0026855-.0058594.2999878-.5300293.7099609-1 1.1599731-1.2700195l32.5800167-18.809937c.1645622-.0952587.5160103-.2361853.6599731-.1400146l2 1.1599121zm-4.3599853 1.8100586c0-.2687988.0498657-.5673828.1588745-.8659668l2.4016113 1.1750488c-.0476961.1575756-.3604736.7932892-.3604736 1.6408691v.0500488c.0002408.1116428.0499878 23.16362.0499878 23.0500488l-2.1900024-1.2700195zm-.3300171 24.3500977c.1012151.0588455 2.7476587 1.5974655 2.5800171 1.5.000422.1006927.0106606 2.5453033.0100098 2.3898926l-2.1900024-1.25c-.2600098-.1599121-.4000244-.5100098-.4000244-.9899902v-1.6499024zm32.980041-5.2000733c.7554932.353611.904068.8001785.1300049 1.2600098l-9.9800415 5.7598877c-1.0350208.585083-2.7849045.5201454-3.6400146-.0499268l-3.3799438-2.6400146 11.5699463-6.6799316z"/><path d="m39.0949554 19.834816c-12.5701237 7.2536697 6.8517456-3.9634151-31.1399536 17.9700928-.1000366.0698242-.1700439.1799316-.1700439.3099365l-.0099487 7.5299072c0 .130127.0699463.2399902.1799927.3100586.0499883.0300293.1099858.0400391.1699834.0400391s.1199951-.0100098.1799927-.0400391c.9817257-.5667725 28.5323296-16.4731236 31.1300049-17.9699707.1099854-.0600586.1699829-.1799316.1699829-.3000488l.0100098-7.5500488c0-.1298828-.0700073-.2399902-.1699829-.2999268-.109986-.0699463-.2500006-.0699463-.3500373 0zm-30.6099844 18.4799804 9.0900259-5.25v6.7301025l-9.1000357 5.25zm9.7900382-5.6600341 10.8499756-6.2600098-.0100098 6.7399902-10.8399658 6.25zm20.6299438-5.1799317-9.0899658 5.25.0100098-6.7299805 9.0899658-5.25zm.1900024-15.4000244-31.1399531 17.9801026c-.1000366.0599365-.1700439.1799316-.1700439.2999268l-.0099487 4.7099609c0 .1199951.0699463.2401123.1799927.3000488.1188979.0711365.2258363.0618782.3499761 0l31.1300049-17.9700928c.1099854-.0599365.1699829-.1799316.1699829-.2999268l.0100098-4.710083c0-.1298828-.0700073-.2399902-.1699829-.3099365-.1099865-.0599365-.2500011-.0599365-.3500378 0zm-.1900024 4.8099365-30.4299917 17.5700684.0100098-3.8900146 30.4299927-17.5799561zm16.2052612 13.4311524c-.4007721.2320271-.051136.8375244.3505859.6064453 2.4241638-1.5393772 3.3734741-1.6302738 3.0605469-2.1723633-.0966796-.1665039-.8665809.2359123-3.4111328 1.565918z"/><path d="m66.614975 24.1948013c0-.6899414-.2700195-1.25-.75-1.5500488l-3.039978-1.7600098c-.5100098-.2999268-1.1700439-.2600098-1.7999878.1000977l-15.3800049 8.8800049c-1.0300293.5999756-1.8400269 1.9899902-1.8300171 3.1700439l.0800171 30.0100098c0 .7199707.2999878 1.2999268.8099976 1.579834l2.9899902 1.7301025c.4526787.26754 1.1042213.2974701 1.7799683-.0999756l15.3900146-8.8900146c1.0499878-.5999756 1.8400269-1.9700928 1.8300171-3.1700439zm-21.1599732 39.1400147c-.0100098-.0200195-.0599976-.1099854-.0599976-.2999268l-.0800171-30.0100098c0-.1401367.0199585-.2797852.0699463-.4298096l2.0498047 1.0904541c-.1497803.3598633-.2297363.7294922-.2297363 1.0793457 0 11.6585007-.0551414-20.24049.0899658 29.6298828zm2.4499512-28.5699463c0-.8000488.5900269-1.8200684 1.2800293-2.2199707l15.3900146-8.880127c.0100098-.0100098.0299683-.0200195.039978-.0200195l.4400024.2600098c.1133194.1699791.0312424.5574722.0700073 2.380127l-17.2200316 9.9399413zm-.1599731-1.7099609c-.0003662.0006104-.0005493.0012207-.0009155.0019531l-2.0769653-1.1049805c.1898804-.3287354.4487915-.6175537.7279053-.7770996 17.4604568-10.0364342 15.1498108-8.8266087 15.6699829-9l1.8399658 1.0600586c-15.4341928 9.0972481-15.3415986 8.4754944-16.1599732 9.8200684zm.1699829 3.9799804 17.210022-9.9400635.0599976 25.2299805-17.2000122 9.9400635zm.1100464 26.0100098 17.1699829-9.9101563c-.050621.2632294.3419113 2.1066284-1.0800171 2.9400635-9.2019157 5.2835083-15.4507256 8.9801025-15.6599731 8.9801025l-.0200195-.0100098-.3300171-.1900635z"/><path d="m56.3251801 59.9849625 1.0810547-.6241455c.2781982-.1606445.5050659-.5498047.5041504-.8695068-.0009155-.3195801-.229248-.4498291-.5074463-.2891846l-1.0810547.6242676c-.2781372.1605225-.5018311.5516357-.5009155.8713379.0009155.31958.2260741.4477538.5042114.2872314zm-10.2129517-21.1776123-.0050659 2.487793c-.0004272.1549072.1146851.354248.2494507.4321289.1411743.0814209.2506104.0117188.2510376-.1430664l.0050659-2.487793c.0004883-.1622314-.1082764-.3505859-.2493896-.4321289-.1347657-.0777588-.2506104-.019043-.2510987.1430664zm-.0081177 4.2751464-.0050659 2.487793c-.0004272.1549072.1146851.354248.2494507.4321289.1411743.0814209.2506104.0117188.2510376-.1430664l.0050659-2.487793c.0004272-.1622314-.1082764-.3505859-.2494507-.4321289-.1347046-.0777588-.2506103-.0190429-.2510376.1430664z"/></g><path d="m63.254 46.277-13.05 7.53-.041-14.99 13.051-7.53z" fill="#d3cfdf"/><path d="m63.2647324 49.4566307c.2417679-.1395836.4373665-.0280304.4381523.2496872.0007629.2688446-.1935654.6054039-.4353294.7449875l-13.0465431 7.5324249c-.2417412.1395683-.4295387.023632-.4302979-.2452126-.0007896-.2777176.1857376-.6098938.4274788-.7494621z" fill="#d3cfdf"/><path d="m54.6990395 43.2218781c.2663956 1.2509308 1.3514824 1.6738358 2.6517296.9231415.1015129-.058609.2016563-.1233673.3002281-.1928177-.0606613 1.3245926-.9902573 2.8888893-2.1263161 3.5447922-1.1853523.6843643-2.1476631.13591-2.1514969-1.2170639-.0029259-1.0316239.5449104-2.2366067 1.3258553-3.0580521z" fill="#b7b1cb"/><path d="m57.3331108 37.9172325c1.4972725-.8644524 2.7099609-.1644859 2.7148361 1.5560188.0045471 1.6038322-1.0421371 3.5254631-2.3969498 4.4789505-.0985718.0694504-.1987152.1342087-.3002281.1928177-1.3002472.7506943-2.385334.3277893-2.6517296-.9231415-.0403709-.1894913-.0624695-.3975677-.0631104-.6239929-.0048789-1.7205085 1.1999131-3.816204 2.6971818-4.6806526z" fill="#9e95b9" opacity=".5"/></svg></svg>