<svg viewBox="0 0 288 288" xmlns="http://www.w3.org/2000/svg"><path d="m246.4 123.3c0 .3-.2.6-.6.8l-15.8 9.2c-.8.4-2 .4-2.8 0-.7-.4-.8-1.1 0-1.6l15.3-8.9v-8.5c-1.7-.2-3.3-.7-4.6-1.4-3.6-2.1-3.6-5.4 0-7.5 3.5-2.1 9.3-2.1 12.9 0s3.6 5.4 0 7.5c-1.3.7-2.9 1.2-4.5 1.4v9zm-1.9-11c1.3 0 2.6-.3 3.6-.9 2-1.2 2-3.1 0-4.3s-5.4-1.2-7.4 0c-2.1 1.2-2 3.1 0 4.3 1 .6 2.3.9 3.6.9s0 0 0 0zm-64.6-27.4c0 .3-.2.6-.5.8l-15.8 9.2c-.8.4-2 .4-2.8 0s-.8-1.1 0-1.6l15.3-8.9v-8.5c-1.7-.2-3.3-.7-4.6-1.4-3.6-2.1-3.6-5.4 0-7.5 3.5-2.1 9.3-2.1 12.9 0s3.6 5.4 0 7.5c-1.3.7-2.8 1.2-4.5 1.4v8.9zm-2-11c1.3 0 2.6-.3 3.6-.9 2-1.2 2-3.1 0-4.3s-5.4-1.2-7.4 0c-2.1 1.2-2 3.1 0 4.3 1 .6 2.3.9 3.6.9s0 0 0 0zm24.8 24.2c0 .3-.2.6-.6.8l-15.8 9.2c-.8.4-2 .5-2.8 0-.8-.4-.8-1.2 0-1.6l15.3-8.9v-8.5c-1.7-.2-3.3-.7-4.6-1.4-3.6-2.1-3.6-5.4 0-7.5 3.5-2.1 9.3-2.1 12.9 0s3.6 5.4 0 7.5c-1.3.7-2.8 1.2-4.5 1.4v9zm-1.9-11.1c1.3 0 2.6-.3 3.6-.9 2-1.2 2-3.1 0-4.3-2.1-1.2-5.4-1.2-7.4 0-2.1 1.2-2 3.1 0 4.3 1 .6 2.3.9 3.6.9s0 0 0 0zm23.7 23.7c0 .3-.2.6-.5.8l-15.8 9.2c-.8.4-2 .4-2.8 0s-.8-1.1 0-1.6l15.3-8.9v-8.5c-1.7-.2-3.3-.7-4.6-1.4-3.6-2.1-3.6-5.4 0-7.5 3.5-2.1 9.3-2.1 12.9 0s3.6 5.4 0 7.5c-1.3.7-2.9 1.2-4.5 1.4v8.9zm-1.9-11c1.3 0 2.6-.3 3.6-.9 2-1.2 2-3.1 0-4.3s-5.4-1.2-7.4 0c-2.1 1.2-2 3.1 0 4.3 1 .6 2.3.9 3.6.9s0 0 0 0zm-106 113.7c3.6 2.1 3.6 5.4 0 7.5s-9.3 2.1-12.9 0-3.6-5.4 0-7.5c1.3-.7 2.9-1.2 4.5-1.4v-9c0-.3.1-.6.5-.8l15.8-9.2c.8-.4 2-.4 2.8 0 .7.4.7 1.1 0 1.6l-15.3 8.9v8.5c1.7.2 3.3.7 4.6 1.4zm-10.1 5.9c2 1.2 5.4 1.2 7.4 0s2-3.1 0-4.3c-1-.6-2.3-.9-3.6-.9s0 0 0 0c-1.3 0-2.6.3-3.6.9-2 1.2-2 3.1 0 4.3m-34.8-31.7c3.6 2.1 3.6 5.4 0 7.5s-9.4 2.1-12.9 0c-3.6-2.1-3.6-5.4 0-7.5 1.3-.7 2.9-1.2 4.5-1.4v-9c0-.3.1-.6.5-.8l15.8-9.2c.8-.4 2-.4 2.8 0 .7.4.7 1.1 0 1.6l-15.3 8.9v8.5c1.7.2 3.3.7 4.6 1.4zm-10.1 5.9c2 1.2 5.4 1.2 7.4 0s2-3.1 0-4.3c-1-.6-2.3-.9-3.6-.9s0 0 0 0c-1.3 0-2.6.3-3.6.9-2 1.2-2 3.1 0 4.3m31.7 6.7c3.6 2.1 3.6 5.4 0 7.5s-9.4 2.1-12.9 0c-3.6-2.1-3.6-5.4 0-7.5 1.3-.7 2.8-1.2 4.5-1.4v-8.9c0-.3.2-.6.5-.8l15.8-9.2c.8-.4 2-.5 2.8 0 .8.4.8 1.2 0 1.6l-15.3 8.9v8.5c1.7.2 3.3.7 4.5 1.4zm-10.1 5.9c2.1 1.2 5.4 1.2 7.4 0s2-3.1 0-4.3c-1-.6-2.3-.9-3.6-.9s0 0 0 0c-1.3 0-2.7.3-3.6.9-2 1.2-2 3.1 0 4.3m-33.7-31.1c3.6 2.1 3.6 5.4 0 7.5s-9.4 2.1-12.9 0c-3.6-2.1-3.6-5.4 0-7.5 1.3-.7 2.9-1.2 4.5-1.4v-9c0-.3.1-.6.5-.8l15.8-9.2c.8-.4 2-.4 2.8 0s.8 1.2 0 1.6l-15.3 8.9v8.5c1.7.2 3.3.7 4.6 1.4zm-10.1 5.9c2 1.2 5.4 1.2 7.4 0s2-3.1 0-4.3c-1-.6-2.3-.9-3.6-.9s0 0 0 0c-1.3 0-2.6.3-3.6.9-2 1.2-2 3.1 0 4.3" fill="#fa8a3f"/><path d="m59.2 132.6c.8.4.8 1.2 0 1.6s-2 .4-2.8 0l-15.4-8.9h-14.6c-.3.9-1.1 1.9-2.4 2.6-3.6 2.1-9.4 2.1-12.9 0-3.6-2.1-3.6-5.4 0-7.5 3.5-2.1 9.3-2.1 12.9 0 1.3.7 2.1 1.7 2.5 2.6h15.4c.5 0 1 .1 1.4.3l15.9 9.2zm-45.3-6.3c2 1.2 5.4 1.2 7.4 0 1-.6 1.5-1.3 1.5-2.1s0 0 0 0c0-.8-.5-1.5-1.5-2.1-2-1.2-5.4-1.2-7.4 0-2.1 1.2-2 3.1 0 4.3m68-7c.8.4.8 1.2 0 1.6s-2 .4-2.8 0l-15.4-8.9h-14.6c-.4 1-1.2 1.9-2.4 2.6-3.5 2.1-9.3 2.1-12.9 0s-3.6-5.4 0-7.5 9.4-2.1 12.9 0c1.3.7 2.1 1.7 2.4 2.6h15.5c.5 0 1 .1 1.4.3l15.9 9.2zm-45.3-6.3c2 1.2 5.4 1.2 7.4 0 1-.6 1.5-1.3 1.5-2.1s0 0 0 0c0-.8-.5-1.5-1.5-2.1-2-1.2-5.4-1.2-7.4 0s-2 3.1 0 4.3m67-6.4c.8.4.8 1.2 0 1.6s-2 .4-2.8 0l-15.4-8.9h-14.6c-.3.9-1.1 1.9-2.4 2.6-3.6 2.1-9.4 2.1-12.9 0-3.6-2.1-3.6-5.4 0-7.5 3.5-2.1 9.3-2.1 12.9 0 1.3.7 2.1 1.7 2.5 2.6h15.4c.5 0 1 .1 1.4.3l15.9 9.2zm-45.3-6.3c2 1.2 5.4 1.2 7.4 0 1-.6 1.5-1.3 1.5-2.1s0 0 0 0c0-.8-.5-1.5-1.5-2.1-2-1.2-5.4-1.2-7.4 0-2.1 1.2-2 3.1 0 4.3m67-6.4c.8.4.8 1.2 0 1.6-.7.4-2 .4-2.8 0l-15.4-8.9h-14.6c-.3 1-1.1 1.9-2.4 2.6-3.5 2.1-9.3 2.1-12.9 0s-3.6-5.4 0-7.5 9.4-2.1 12.9 0c1.3.7 2.1 1.7 2.4 2.6h15.5c.5 0 1 .1 1.4.3l15.9 9.2zm-45.3-6.3c2 1.2 5.4 1.2 7.4 0 1-.6 1.5-1.3 1.5-2.1s0 0 0 0c0-.8-.5-1.5-1.5-2.1-2-1.2-5.4-1.2-7.4 0s-2 3.1 0 4.3m174.2 85.3c3.6 2.1 3.6 5.4 0 7.5-3.5 2.1-9.3 2.1-12.9 0-1.3-.7-2.1-1.7-2.5-2.6h-15.4c-.5 0-1-.1-1.4-.3l-15.9-9.2c-.8-.4-.8-1.2 0-1.6s2-.4 2.8 0l15.4 8.9h14.6c.3-.9 1.2-1.9 2.4-2.6 3.6-2.1 9.4-2.1 12.9 0zm-10.1 5.9c2 1.2 5.4 1.2 7.4 0 2.1-1.2 2-3.1 0-4.3s-5.4-1.2-7.4 0c-1 .6-1.5 1.3-1.5 2.1s0 0 0 0c0 .8.5 1.5 1.5 2.1m32.8-19c3.6 2.1 3.6 5.4 0 7.5s-9.3 2.1-12.9 0c-1.3-.7-2.1-1.7-2.4-2.6h-15.5c-.5 0-1-.1-1.4-.3l-15.9-9.2c-.8-.4-.8-1.2 0-1.6.7-.4 2-.4 2.8 0l15.4 8.9h14.6c.3-1 1.1-1.9 2.4-2.6 3.6-2.1 9.3-2.1 12.9 0zm-10.2 5.9c2 1.2 5.4 1.2 7.4 0s2-3.1 0-4.3-5.4-1.2-7.4 0c-1 .6-1.5 1.3-1.5 2.1s0 0 0 0c0 .8.5 1.5 1.5 2.1m-55.9 32.6c3.6 2.1 3.6 5.4 0 7.5s-9.3 2.1-12.9 0c-1.3-.7-2.1-1.7-2.4-2.6h-15.5c-.5 0-1-.1-1.4-.3l-15.9-9.2c-.8-.4-.8-1.2 0-1.6s2-.4 2.8 0l15.4 8.9h14.6c.4-1 1.2-1.9 2.4-2.6 3.5-2.1 9.3-2.1 12.9 0zm-10.1 5.9c2 1.2 5.4 1.2 7.4 0s2-3.1 0-4.3-5.4-1.2-7.4 0c-1 .6-1.5 1.4-1.5 2.1s0 0 0 0c0 .8.5 1.5 1.5 2.1m31.8-18.4c3.6 2.1 3.6 5.4 0 7.5s-9.3 2.1-12.9 0c-1.3-.7-2.1-1.7-2.4-2.6h-15.5c-.5 0-1-.1-1.4-.3l-15.9-9.2c-.8-.4-.8-1.2 0-1.6.7-.4 2-.4 2.8 0l15.4 8.9h14.6c.3-1 1.1-1.9 2.4-2.6 3.6-2.1 9.3-2.1 12.9 0zm-10.2 5.9c2 1.2 5.4 1.2 7.4 0s2-3.1 0-4.3-5.4-1.2-7.4 0c-1 .6-1.5 1.3-1.5 2.1s0 0 0 0c0 .8.5 1.5 1.5 2.1" fill="#e17126"/><path d="m226.2 129.7c4.4 2.5 4.4 6.7 0 9.2l-74.1 43c-4.4 2.5-11.5 2.6-15.9 0l-74.5-43c-4.4-2.6-4.4-6.7 0-9.3l74.1-43c4.4-2.5 11.5-2.5 16 0l74.5 43z" fill="#8f85ad"/><path d="m229.6 134.4v19.3c0 1.7-1.1 3.3-3.3 4.6l-74 43c-4.4 2.5-11.6 2.5-15.9 0l-74.5-43c-2.2-1.3-3.3-3-3.3-4.7v-19.2c0 1.7 1.2 3.3 3.4 4.6l74.5 43c4.4 2.5 11.6 2.5 15.9 0l74-43c2.2-1.3 3.2-2.9 3.3-4.6z" fill="#ffefe4"/><path d="m226.2 129.7c4.4 2.5 4.4 6.7 0 9.2l-74.1 43c-4.4 2.5-11.5 2.6-15.9 0l-74.5-43c-4.4-2.6-4.4-6.7 0-9.3l74.1-43c4.4-2.5 11.5-2.5 16 0l74.5 43z" fill="#ffd2b3"/><path d="m144.4 183.9v19.3" fill="#eaf0f6"/><path d="m227.8 127-74.5-43c-5.2-3-14-3-19.2 0l-74 43c-3 1.7-4.7 4.4-4.8 7.2v.2 19.2c0 2.9 1.7 5.6 4.9 7.4l74.5 43c5.4 3.1 13.8 3.1 19.1 0l74.1-43c3.1-1.8 4.8-4.5 4.8-7.3v-19.3c0-2.9-1.7-5.6-4.9-7.4zm-3.2 28.5-74 43c-1.2.7-2.9 1.2-4.7 1.3v-14.6c2.8-.2 5.5-1.1 7.1-2l73.4-42.6v13c0 .4-.6 1.2-1.7 1.8zm-163-1.9v-13c101.3 58.5 66.4 38.3 74 42.7 2 1.2 4.6 1.8 7.4 2v14.6c-1.9-.1-3.7-.6-5.1-1.4l-74.5-43c-1.3-.7-1.7-1.5-1.7-1.9zm164.8-19.2v2.7c-1.1.8-1.5.9-74.9 43.6-3.7 2.2-10.8 2.1-14.4 0-7.6-4.4 27.6 15.9-74.5-43-.3-.2-.6-.4-.9-.6v-2.3c0-.1 0-.3 0-.4 0-.6.6-1.3 1.6-1.9l74-43c3.2-1.9 9.5-1.8 12.8 0l74.5 43c1.2.7 1.7 1.4 1.7 1.9z" fill="#bd4d04"/><path d="m199 125.7v17.3s-39.8 23.2-39.8 23.2h-29.8s-40.2-23.2-40.2-23.2v-17.3s39.8-23.2 39.8-23.2h29.8s40.2 23.2 40.2 23.2z" fill="#fff"/><path d="m145.9 112.9c1-.6 1.5-1.3 1.4-2.1 0-.8-.4-1.5-1.4-2.1s-2.2-.9-3.7-.9c-1.4 0-2.6.3-3.5.9-1 .6-1.5 1.3-1.6 2.1 0 .8.6 1.5 1.5 2.1 1 .6 2.2.9 3.5.9 1.5 0 2.7-.3 3.7-.9z" fill="#fa8a3f"/><path d="m179.9 129.4-26.9-15.7-5.7 3.3 26.9 15.7z" fill="#fa8a3f"/><path d="m119 123.6 51.1 11.5-6.4 3.7-11.6-2.6-17.8 10.3 4.5 6.7-6.4 3.7-19.7-29.6 6.4-3.7zm25.1 10.8-21.1-4.7 8.2 12.2 12.9-7.4z" fill="#e17126"/></svg>