<svg viewBox="0 0 228 228" xmlns="http://www.w3.org/2000/svg"><path d="m102.6 224.2-18-10.5v-22.5s17.9 10.5 17.9 10.5v22.5z" fill="#9cffcc"/><path d="m77.7 212.4-18-10.4c-1.9-1.1-3.1-3.4-3.1-6.7v-24.3l17.9 10.4v24.3c0 3.3 1.2 5.6 3.1 6.7z" fill="#9cffcc"/><path d="m131.7 23c3.4-2 6.8-3.6 10-4.9 30.8-12.3 54.4 4.7 54.5 41.6 0 15.1-3.9 31.5-10.6 47.1-.3.7-6.2 13.1-9.4 18.4-3.5 5.9-7.5 11.5-11.7 16.8v46.4c.1 0-61.9 35.8-61.9 35.8v-22.5l-17.3 10c-5.8 3.3-10.5.7-10.5-6v-24.3l-19.2 2.5 13.4-36.2c-.9-4.9-1.3-10.4-1.1-16.3 1-35.4 23.5-77.9 52.8-100.8 1.8-1.4 3.6-2.7 5.4-3.9 1.9-1.3 3.9-2.5 5.8-3.6h-.2z" fill="#daffed"/><path d="m177.5 18.5c-9.5-5.5-21.9-5.9-35.8-.4-3.2 1.3-6.6 2.9-10 4.9-1.9 1.1-3.8 2.3-5.8 3.6-1.8 1.2-3.6 2.5-5.4 3.9-29.4 22.9-51.9 65.4-52.8 100.9-.2 5.9.3 11.4 1.1 16.3l-13.4 36.2-18-10.4 13.4-36.2c-.9-5-1.3-10.4-1.1-16.3 1-35.5 23.5-77.9 52.9-100.8 1.8-1.4 3.6-2.7 5.4-3.9 1.9-1.3 3.9-2.5 5.8-3.6 3.4-2 6.7-3.6 10-4.8 13.9-5.5 26.3-5.1 35.8.4l18 10.4v-.2z" fill="#9cffcc"/><path d="m146.3 38.2c-.2 0-.3 0-.5 0z" fill="#d4d0df"/><path d="m169.6 93.3c3.1 7.8-3 23.3-14 28.8-3.3 12.1-12.2 16.8-12.6 17.3-.1 0-.3.2-.4.2-5 2.8-9.4 2-11.6-1.5-2.3 6.1-6.7 12-11.8 15s-.2 0-.2.1c-5.7 3.2-10.5 1.8-12.5-2.8-8.9 6.7-17.6.7-14-12.6-6.5-2.2-5.8-12-3-18.8-9.1-3.6-4-21 4.5-29.2 1.4-7.3 6.3-15.1 12.3-19 .2-.6.3-1.2.5-1.8v-.2c1.6-2.9 2.4-8.4 10.6-14.6s0 0 .2-.2 0 0 .2-.2h.2.2s.6-.4.7-.4c5-2.7 9.3-1.9 11.5 1.5 2.7-7.4 8-13.1 12.2-15.3h.1.2.2s.1 0 .1 0h.3.2.1l.8-.3h.9c2.4-.7 3.9-.6 5.4 0h.4s.2 0 .3 0h.1c.3.2.6.3.8.5.9.7 1.9 1.9 2.6 3.4 6-3.1 11-1 12.4 4.7 9.8-2 12.8 11.2 4.7 23.9 4.5 5.3 1.3 15.8-2.8 22.1z" fill="#9cffcc"/><g fill="#099e4e"><path d="m158.3 5.5c-43.6-25.3-112.8 49.8-114.6 115.5 0 5.6.2 11.1 1.1 16.1l-13.1 35.4c-.5 1.4 0 3.1 1.4 3.9l17.6 10.2v8.9c0 4.4 1.7 7.8 4.7 9.4l18 10.5c1.8 1 3.9 1.3 6.2.8.5.5.8.6 18.5 10.8.5.3 1.1.5 1.6.5s1.1-.2 1.6-.4l62.1-35.8c1-.6 1.6-1.7 1.6-2.8l-.2-45.2c3.9-4.9 7.7-10.4 11.3-16.3 1.9-3.1 5-9.1 9.2-17.9l.4-.9c7.2-16.6 10.9-33.4 10.9-48.4 0-37.2-19.6-43.5-38.3-54.3zm-105.9 174.7c-6.1-3.6-13.8-8-13.8-8 12.8-35.1 12.9-33.7 12.6-35.3-7.2-41.3 22.4-96.1 55.8-117.9 31.9-21.8 49.6-6.7 51.4-6.1-47.8 0-103.3 76.2-93.9 134.9-.2.4-11.4 30.6-12 32.5zm6.1 19.1c-.9-.5-1.4-1.9-1.4-3.9v-10.5l13.2-1.7v23l-11.9-6.9zm26.4 12.7 13.3-7.7v15.4l-13.3-7.8zm73.5-69.9v44.5c.1 0-57.3 33.2-57.3 33.2v-18c0-.5-.3-1-.8-1.3 0 0-.2-.1-.3-.2h-.4c-.3 0-.5 0-.8.2l-2.2 1.3-13.3 7.6h-.2c-2.7-1.4-5.2 2.1-6.9.3-.3-.3-2.2-1.3-2.7-1.5-.4-1.7-.2-1.3-.3-26.6v-.5c0-.3-.2-.5-.4-.6 0-.1-.3-.2-.4-.3h-.7l-4.4.6-10.8 1.4c0-.2-.5-.6-1.1-.9.2-.5 12.2-32.8 12.2-33.5-10.1-58.5 49.7-140.2 97-131.3.4.3 7.7 4.4 8.1 4.7 11.2 6.4 17.4 20.1 17.4 38.6.1 45.8-31.8 78.3-31.8 82.3z"/><path d="m171.3 71.2c6.7-11.1 5.8-26.4-5.4-25.5-1.9-5.3-7.1-7.4-12.8-5-1.3-2.2-2.5-2.8-3.3-3.3h-.1c-.1 0-.2 0-.3 0-.2 0-.4-.2-.6-.2-2.6-.9-5.5-.4-6.5 0-.1 0-.3 0-.4 0 0 0-.9.4-1.4.6-.3 0-.7.3-1 .6-3.9 2-8.9 6.9-11.9 13.8-5.1-4.2-12.7.2-13.5.9-.4 0-6.9 4.6-10.4 13.2-.3.7-.6 1.4-.8 1.9v.4c-.2.5-.3.8-.4 1.4-6 4.1-10.9 11.6-12.4 19.2-7.9 7.8-14 25.3-5 30.6-2.3 6.5-2.9 15.7 3.1 18.9-1.1 5.2-.6 9.7 1.7 12.7 2.9 3.8 8.4 4.4 13.5 1.3 2.6 3.9 7.8 5.3 13.8 1.9 0 0 .2 0 .2-.1.9 0 7.7-4.9 11.6-13.6 2.9 2.4 7.3 2.5 11.7 0 1.6-.3 10.4-6.9 13.6-17.8 10.9-5.8 17.1-21.1 14.4-29.6 3.6-5.8 7.1-16.2 3-22.4h-.3zm-54.2 78.2c-8.7 5-13.8-4.5-7.2-15.8 1.8-3.2 4.4-6 7.2-7.6 2.2-1.3 2.2-5.1 0-3.9-10 5.8-14.4 17.9-13.3 25.8 0-.2 0-.3 0-.6-7.1 4.5-12.3-.5-10.2-9.3 2.5-.7 6.1-2.9 8.6-5 .9-.7 1.4-2.1 1.3-3-.6-3-3.1 2.2-10 4-6.1-1.2-5.3-10.1-2.2-16 0 0 0 0 .2-.4 1.8-3.3 5.3-6.6 8.2-9.1.9-.8 1.5-2.1 1.3-3-.8-3.7-9.9 7.3-11.2 9.5-6.2-2.8-3.2-14.3 2.2-20.5.4 11.9 6.3 5.5 4.8 3.2-1.8-2.8-1.2-6.4-1.4-8.1v.2c.8-5.3 4.1-11.1 8.4-14.4 0-.7.2-1.4.3-2.1-1.5 9.6 2.8 17.2 13.1 11.3.9-.5 1.7-1.8 1.7-2.9s-.8-1.5-1.7-.9c-7.3 4.2-12.2-2.2-9.8-9.4.8-.8.9-8.1 9.7-14 .6-.5 1.1-1 1.4-1.5-.3.6-.7 1.2-1.4 1.5 2.8-1.6 5.3-1.8 7.2-.7 2.2 1.3 2.9 2.9 3.1 9.1v-3c0 18.4-.6 34.1 0 69 0 6.4-4.4 14.2-10.1 17.6zm22-107.3c-.1.5-.2 1 0 0zm26.8 49.8c-.4.2-.8.4-1.1.6.5-.5 1.2-.8 1.1-.6zm-1.2.7c-4.5 5.3-9.4 3.9-10.1 7.7-.8 4.3 8-1.8 9.9-3.4 2 6.1-2.8 17.1-10.1 21 1.5-16.1-15.2-12.2-15.2-6.7s.7 1.5 1.7 1c19.4-11.2 7.2 32.2-7.2 24.2-5.3-3.1-1.9-7.4-3.2-75 0-6.4 4.4-14.3 10.2-17.6-.5.3-.9.3-1.2 0 .3 0 .9 0 1.7-.4 8.5-4.5 13.1 4.9 6.7 16-1.8 3.2-4.4 6-7.2 7.6-.9.6-1.7 1.8-1.7 2.9 0 5.4 16.4-9.5 15.1-23.8 6-2.4 11.3 2.2 7.2 14.1-1.3 3.4 3.9 4.6 4.8-8.8 7.1 0 7.2 10.2 2.2 18 .2 0 .3.2.5.3-1.6-1-4.7-1.2-9.6.3-2.2.8-2.9 4.9-.7 4.2 6.5-2.1 7.8-.5 8.2-.4.4.5 2.5 1.7 2.5 6.3s-1.7 8.6-4.4 12.3z"/></g></svg>