<svg viewBox="0 0 288 288" xmlns="http://www.w3.org/2000/svg"><path d="m148.9 198c0 .5-.4 1.1-1.1 1.6l-55.3 31.2c-1.5.9-3.9.9-5.4 0l-27.4-15.9c-.7-.4-1.1-1-1.1-1.6v-10.7c0 .6.3 1.1 1.1 1.6l27.3 15.9c1.5.9 3.9.9 5.4 0l55.3-31.2c.8-.4 1.1-1 1.1-1.6v10.7z" fill="#ffd682"/><path d="m59.8 201c-1.5.9-1.5 2.3 0 3.1l27.4 15.9c1.5.9 3.9.9 5.4 0l55.3-31.2c1.5-.9 1.5-2.3 0-3.1l-27.4-15.9c-1.5-.9-3.9-.9-5.4 0z" fill="#fff2d7"/><g fill="#ffd682"><path d="m117.2 169.9v24.9s-27.7 16-27.7 16v-24.9s27.7-16 27.7-16z"/><path d="m89.6 185.9v24.9s-8.7-5-8.7-5v-24.8s8.7 4.9 8.7 4.9z"/><path d="m117.2 169.9-27.6 16-8.6-4.9 27.5-16z"/></g><path d="m166.8 131.2c0 4.7-3.3 10.5-7.4 12.8l-121.4 70.1c-2.1 1.2-3.9 1.3-5.3.5l-2.2-1.3-10.1-5.8c-1.4-.8-2.2-2.5-2.2-4.8v-8.4l-.3-88.4c0-4.7 3.3-10.4 7.4-12.8l121.4-70c2-1.2 3.9-1.3 5.3-.5l12.1 7.1h.1c1.4.7 2.2 2.4 2.2 4.8l.2 88.4v8.4h.2z" fill="#f2a600"/><path d="m155.3 128.8-113.5 65.5-.2-81.3c0-.8 1.1-2.5 1.8-3l111.7-64.5.2 83.2z" fill="#fff2d7"/><path d="m166.4 122.8v8.4c0 4.7-3.3 10.4-7.4 12.8l-121.3 70.1c-4.1 2.4-7.5.5-7.5-4.2v-8.4l136.2-78.6z" fill="#ffd682"/><path d="m30.5 201.4v11.9l-10.1-5.8c-1.4-.8-2.2-2.5-2.2-4.8v-8.4z" fill="#ffd682"/><path d="m101.6 167.2c0 2.1-1.5 4.7-3.3 5.7-1.8 1.1-3.3.2-3.3-1.9s1.5-4.7 3.3-5.7 3.3-.2 3.3 1.9z" fill="#cc8109"/><path d="m178.1 285.3-14-7.3-.2-81.5 14 7.4z" fill="#ffd682"/><path d="m177.9 203.9-14-7.4 90.9-54.2 14 7.4z" fill="#ffd682"/><path d="m268.8 149.7.2 81.4-90.9 54.2-.2-81.4z" fill="#fff2d7"/><path d="m226 186.6c4.5-2.6 8.2-.5 8.3 4.7 0 5.2-3.7 11.6-8.2 14.2s-8.2.5-8.2-4.7 3.7-11.6 8.2-14.2zm0 22.3c9.2-5.3 16.9-1.7 17.9 8.1.1 1.1-.7 2.7-1.7 3.3l-32.2 18.6c-1.1.6-1.9 0-1.8-1.2 1-10.9 8.5-23.4 17.8-28.7z" fill="#feb600"/><path d="m204.7 248.5v3.8l50.4-29.1v2.8l-50.4 29v3.8l-2.4 1.4v-3.7l-5.1 2.9v-2.8l5.1-2.9v-3.8c-.1 0 2.4-1.4 2.4-1.4z" fill="#feb600"/><path d="m152.1 198v-10.7c0-1.7-1-3.3-2.7-4.3l-25.5-14.8 37.1-21.4c5-2.9 9-9.8 9-15.6l-.3-96.8c0-3.5-1.4-6.2-3.9-7.5-.4-.4-5.4-3.2-12.2-7.2-2.4-1.4-5.5-1.1-8.4.6l-121.4 70c-5 3-9 9.8-8.9 15.6l.3 96.8c0 3.4 1.3 6.1 3.7 7.5 9.8 3.9 12.6 11.2 20.8 6.6l15.8-9.1v5.6c0 1 .4 2.8 2.7 4.3l27.4 15.8c2.6 1.5 6.2 1.4 8.6 0l55.2-31.2c1.7-.9 2.8-2.5 2.8-4.3h-.1zm-120.1 13.7c0-.4 0-10 0-9.4l131.6-75.9 1.4-.8v5.7c0 4.2-3 9.4-6.6 11.6-.4.2-116.2 67-121.3 70-2.2 1.3-4.3 1.3-5-1.1zm118.4-186.4 7.1 4.2-120.5 69.5c-2.1 1.2-4 3.2-5.4 5.5l-8.6-4.2c1.1-1.8 2.5-3.5 4.1-4.4l121.2-70.1c.8-.4 1.3-.6 1.8-.6h.3zm-121.4 185.5h-.2c0-.1-7.6-4.5-7.6-4.5-.9-.6-1.4-1.8-1.4-3.5v-5.8c.4.2 9.7 5.7 9.3 5.4 0 .7 0 9 0 8.5zm14.1-97.6c0-.5.8-1.7 1-1.9l109.5-63.2.2 79.8-110.5 63.8zm120.2-78.8.3 88.3-6.7 3.9-.2-81.1c0-.6-.3-1-.8-1.3s-1-.3-1.5 0l-111.8 64.7c-1 .7-2.2 2.8-2.4 4.2l.2 80.8-8.3 4.8-.3-85.6c0-4.2 3-9.4 6.6-11.6l121.4-70c.3-.1.5-.3.7-.3 2.2 1.5 2.8.9 2.8 3.3zm-133.2 72.7c-.8 2-1.3 4-1.3 6l.3 85.8-7.7-4.4-.2-88.5c0-.9.2-1.9.5-2.9s8.5 4.1 8.5 4.1h-.1zm115.6 90-54.3 30.7v-5.7c.2 0 .3 0 .5-.2.3 0 1-.4 1.3-.5l52.5-29.6v5.4zm0-8.8-54 30.5c-.6.4-2.6.6-3.8 0l-25.7-14.9 17.4-10v12c0 .5.2 1 .7 1.3l8.6 5c.3.1.5.2.8.2s.5 0 .7-.2l27.5-16c.5-.3.7-.8.7-1.3v-22.3h.3l26.9 15.6zm-63.3 3.8 5.7-3.3v19.4l-5.7-3.3v-12.9zm8.7-5c.4-.2 26.2-15 24.6-14v20.8l-24.6 14.3zm-4.8 34.2c.4.2 1.2.5 2.1.7v5.8c-3.7-2.1-27.1-15.7-26.6-15.5v-5.4l24.5 14.3zm186.6-72c0-1.2-.7-2.2-1.7-2.8l-14-7.4c-1-.6-2.2-.5-3.1 0l-90.9 54.2c-.9.6-1.5 1.6-1.5 2.7l.2 81.4c0 1.2.7 2.2 1.7 2.8l14 7.3c.5.3 1 .4 1.5.4s1.1-.2 1.6-.5l90.9-54.2c.9-.6 1.5-1.6 1.5-2.8l-.2-81.4zm-95 50.8-9.6-5 86.6-51.7 9.6 5c-118.6 70.8-77.7 46.4-86.6 51.7zm-9.8 75.5-.2-76.6 9.7 5.1.3 76.6zm11.7-71.5c8.9-5.3-32.1 19.2 86.7-51.8l.2 76.5-86.6 51.7z" fill="#a8680c"/><path d="m130.1 86.7c2.6-1.5 4.6-5.1 4.6-8s-2.1-4.1-4.6-2.6c-2.6 1.5-4.6 5.1-4.6 8s.6 2.6 1.5 3.1c.7.3 1.6.3 2.6-.2 0 0 .3 0 .5-.2" fill="#796d9e"/><path d="m130.7 79.5c.7 0 1 .8.7 1.8l-1.8 5.6c-1 .5-1.9.5-2.6.2l1.8-5.7c.2-.8.7-1.4 1.3-1.7.2 0 .4-.2.6-.2zm-17.2 50.7.7-2.3c1-.5 1.9-.5 2.7-.2l-1.8 5.7c-.2.7-.7 1.3-1.2 1.7-.5.3-1 .3-1.2 0l-2.5-2.7c.6-1.2 1.4-2.4 2.4-3.3l1 1.1z" fill="#796d9e"/><path d="m122.5 128.4c0 5.6-3.9 12.3-8.7 15.1s-8.8.6-8.8-5 1.1-6 2.7-8.8c.7-1.2 1.5-2.3 2.4-3.2 1.1-1.3 2.3-2.3 3.6-3.1.7-.4 1.5-.7 2.2-.9.9-.3 1.8-.4 2.6-.2 2.4.4 3.9 2.6 4 6.1z" fill="#feb600"/><path d="m115.9 122.5 9.4-29.9c.8 0 1.7 0 2.6-.2l-9.4 29.9c-.8 0-1.7 0-2.7.2zm-21.4-13.3 15.6 17.2c-.9 1-1.7 2.1-2.4 3.3l-15.6-17.3c.9-1 1.7-2.1 2.4-3.2z" fill="#feb600"/><path d="m89.6 103.8 2.5 2.8c-.6 1.2-1.4 2.4-2.4 3.2l-1.1-1.2-.8 2.5c-1 .4-1.9.4-2.6 0l1.9-5.6c.2-.7.7-1.3 1.2-1.6.5-.3.9-.3 1.2 0z" fill="#796d9e"/><path d="m72.8 147.4 10.5-31c.8.2 1.6.2 2.6 0l-10.5 30.9c-.8-.2-1.6-.2-2.6 0z" fill="#feb600"/><path d="m70.4 163.8c2.6-1.5 4.6-5 4.6-8s-.5-2.5-1.4-3c-.7-.4-1.6-.4-2.6 0-.2 0-.4.2-.6.3-2.6 1.5-4.6 5.1-4.6 8s2.1 4.1 4.6 2.6" fill="#796d9e"/><path d="m69.1 158.5 1.9-5.7c1-.4 1.9-.4 2.6 0l-1.9 5.6c-.3.7-.8 1.4-1.3 1.7-.2.1-.4.2-.6.2-.7 0-1-.8-.7-1.8z" fill="#796d9e"/><path d="m138.8 76.3c0 5.6-3.9 12.3-8.7 15.1-.7.4-1.4.7-2.1 1-1 .3-1.8.3-2.7.2-2.4-.4-3.9-2.6-3.9-6.1 0-5.5 3.9-12.3 8.7-15.1 4.9-2.8 8.8-.5 8.8 5h-.1z" fill="#feb600"/><path d="m97.2 100.3c0 2.9-1.1 6.1-2.7 8.9-.7 1.2-1.5 2.3-2.4 3.2-1.1 1.2-2.3 2.2-3.6 3-.9.5-1.8.9-2.6 1.1-.9.2-1.8.2-2.5 0-2.2-.5-3.7-2.7-3.7-6 0-5.5 3.9-12.3 8.7-15.1 4.9-2.8 8.8-.5 8.8 5z" fill="#feb600"/><path d="m79.1 153.5c0 5.6-3.9 12.3-8.7 15.1s-8.7.6-8.8-5c0-5.6 3.9-12.3 8.7-15.1.9-.5 1.7-.8 2.5-1.1.9-.2 1.8-.2 2.6 0 2.2.5 3.6 2.7 3.6 6z" fill="#feb600"/><path d="m174.4 238.6c.8.2 1.6.4 2.6.3-.8-.3-1.7-.4-2.6-.3z" fill="#8f85ad"/></svg>