<svg viewBox="0 0 288 288" xmlns="http://www.w3.org/2000/svg"><path d="m139.3 191c0 .5-.4 1.1-1.1 1.6l-55.3 31.2c-1.5.9-3.9.9-5.4 0l-27.4-15.9c-.7-.4-1.1-1-1.1-1.6v-10.7c0 .6.3 1.1 1.1 1.6l27.3 15.9c1.5.9 3.9.9 5.4 0l55.3-31.2c.8-.4 1.1-1 1.1-1.6v10.7z" fill="#d3cfdf"/><path d="m50.2 194c-1.5.9-1.5 2.3 0 3.1l27.4 15.9c1.5.9 3.9.9 5.4 0l55.3-31.2c1.5-.9 1.5-2.3 0-3.1l-27.4-15.9c-1.5-.9-3.9-.9-5.4 0z" fill="#eeedf3"/><g fill="#d3cfdf"><path d="m107.6 162.9-.1 24.9-27.6 16 .1-24.9z"/><path d="m80 178.9-.1 24.9-8.6-5 .1-24.8z"/><path d="m107.6 162.9-27.6 16-8.6-4.9 27.5-16z"/></g><path d="m157.2 124.2c0 4.7-3.3 10.5-7.4 12.8l-121.4 70.1c-2.1 1.2-3.9 1.3-5.3.5l-2.2-1.3-10.1-5.8c-1.4-.8-2.2-2.5-2.2-4.8v-8.4s-.3-88.4-.3-88.4c0-4.7 3.3-10.4 7.4-12.8l121.4-70c2-1.2 3.9-1.3 5.3-.5l12.1 7.1h.1c1.4.7 2.2 2.4 2.2 4.8l.2 88.4v8.4z" fill="#8f85ad"/><path d="m108.8 45.5-3.2 1.9-12.3-2.7 3.2-1.9z" fill="#a59dbe"/><path d="m105.6 47.4-7.2 4.2-12.3-2.8 7.2-4.1z" fill="#d3cfdf"/><path d="m98.4 51.6-3.2 1.8-12.3-2.7 3.2-1.9z" fill="#a59dbe"/><path d="m89.3 56.8-4.1 2.5-12.4-2.8 4.2-2.4z" fill="#a59dbe"/><path d="m105.6 47.4-3.7 15.7-7.2 4.2 3.7-15.8z" fill="#d3cfdf"/><path d="m98.4 51.5-3.7 15.8-3.2 1.8 3.7-15.7z" fill="#a59dbe"/><path d="m89.2 56.8-3.7 15.8-4.1 2.4 3.6-15.8z" fill="#a59dbe"/><path d="m108.8 45.5-3.6 15.7-3.3 1.9 3.7-15.7z" fill="#a59dbe"/><path d="m145.7 121.8-113.5 65.5-.2-81.3c0-.8 1.1-2.5 1.8-3l111.7-64.5.2 83.2z" fill="#eeedf3"/><path d="m156.8 115.8v8.4c0 4.7-3.3 10.4-7.4 12.8l-121.3 70.1c-4.1 2.4-7.5.5-7.5-4.2v-8.4s136.2-78.6 136.2-78.6z" fill="#d3cfdf"/><path d="m20.9 194.4v11.9l-10.1-5.8c-1.4-.8-2.2-2.5-2.2-4.8v-8.4s12.3 7.1 12.3 7.1z" fill="#d3cfdf"/><path d="m92 160.2c0 2.1-1.5 4.7-3.3 5.7-1.8 1.1-3.3.2-3.3-1.9s1.5-4.7 3.3-5.7 3.3-.2 3.3 1.9z" fill="#6b5f8e"/><path d="m188.7 163.7-14-7.3-.2-81.5 14 7.4z" fill="#d3cfdf"/><path d="m188.5 82.3-14-7.4 90.9-54.2 14 7.4z" fill="#d3cfdf"/><path d="m279.4 28.1.2 81.4-90.9 54.2-.2-81.4z" fill="#eeedf3"/><path d="m236.6 65c4.5-2.6 8.2-.5 8.3 4.7 0 5.2-3.7 11.6-8.2 14.2s-8.2.5-8.2-4.7 3.7-11.6 8.2-14.2zm0 22.3c9.2-5.3 16.9-1.7 17.9 8.1.1 1.1-.7 2.7-1.7 3.3l-32.2 18.6c-1.1.6-1.9 0-1.8-1.2 1-10.9 8.5-23.4 17.8-28.7z" fill="#a59dbe"/><path d="m215.3 126.9v3.8l50.4-29.1v2.8l-50.4 29v3.8l-2.4 1.4v-3.7l-5.1 2.9v-2.8l5.1-2.9-.1-3.8z" fill="#b2abc7"/><path d="m142.5 191v-10.7c0-1.7-1-3.3-2.7-4.3l-25.5-14.8 37.1-21.4c5-2.9 9-9.8 9-15.6l-.3-96.8c0-3.5-1.4-6.2-3.9-7.5-.4-.4-5.4-3.2-12.2-7.2-2.4-1.4-5.5-1.1-8.4.6l-121.4 70c-5 3-9 9.8-8.9 15.6l.3 96.8c0 3.4 1.3 6.1 3.7 7.5 9.8 3.9 12.6 11.2 20.8 6.6l15.8-9.1v5.6c0 1 .4 2.8 2.7 4.3l27.4 15.8c2.6 1.5 6.2 1.4 8.6 0l55.2-31.2c1.7-.9 2.8-2.5 2.8-4.3zm-120.1 13.7c0-.4 0-10 0-9.4l131.6-75.9 1.4-.8v5.7c0 4.2-3 9.4-6.6 11.6-.4.2-116.2 67-121.3 70-2.2 1.3-4.3 1.3-5-1.1zm118.4-186.4 7.1 4.2-120.5 69.5c-2.1 1.2-4 3.2-5.4 5.5l-8.6-4.2s0 0 0 0c1.1-1.8 2.5-3.5 4.1-4.4l121.2-70.1c.8-.4 1.3-.6 1.8-.6h.3zm-121.4 185.5h-.2c0-.1-7.6-4.5-7.6-4.5-.9-.6-1.4-1.8-1.4-3.5v-5.8c.4.2 9.7 5.7 9.3 5.4 0 .7 0 9 0 8.5zm14.1-97.6c0-.5.8-1.7 1-1.9l109.5-63.2.2 79.8-110.5 63.8zm120.2-78.8.3 88.3-6.7 3.9-.2-81.1c0-.6-.3-1-.8-1.3s-1-.3-1.5 0l-111.8 64.7c-1 .7-2.2 2.8-2.4 4.2l.2 80.8-8.3 4.8-.3-85.6c0-4.2 3-9.4 6.6-11.6l121.4-70c.3-.1.5-.3.7-.3 2.2 1.5 2.8.9 2.8 3.3zm-133.2 72.7c-.8 2-1.3 4-1.3 6l.3 85.8-7.7-4.4-.2-88.5c0-.9.2-1.9.5-2.9s8.5 4.1 8.5 4.1zm115.6 90-54.3 30.7v-5.7c.2 0 .3 0 .5-.2.3 0 1-.4 1.3-.5l52.5-29.6v5.4zm0-8.8-54 30.5s0 0 0 0c-.6.4-2.6.6-3.8 0l-25.7-14.9 17.4-10v12c0 .5.2 1 .7 1.3l8.6 5c.3.1.5.2.8.2s.5 0 .7-.2l27.5-16c.5-.3.7-.8.7-1.3v-22.3h.3l26.9 15.6zm-63.3 3.8 5.7-3.3v19.4s-5.7-3.3-5.7-3.3v-12.9zm8.7-5c.4-.2 26.2-15 24.6-14v20.8s-24.6 14.3-24.6 14.3zm-4.8 34.2c.4.2 1.2.5 2.1.7v5.8c-3.7-2.1-27.1-15.7-26.6-15.5v-5.4s24.5 14.3 24.5 14.3zm205.9-186.2c0-1.2-.7-2.2-1.7-2.8l-14-7.4c-1-.6-2.2-.5-3.1 0l-90.9 54.2c-.9.6-1.5 1.6-1.5 2.7l.2 81.4c0 1.2.7 2.2 1.7 2.8l14 7.3c.5.3 1 .4 1.5.4s1.1-.2 1.6-.5l90.9-54.2c.9-.6 1.5-1.6 1.5-2.8l-.2-81.4zm-94.1 53-9.6-5 86.6-51.7 9.6 5c-118.6 70.8-77.7 46.4-86.6 51.7zm-10.7 73.3-.2-76.6 9.7 5.1.3 76.6zm11.7-71.5c8.9-5.3-32.1 19.2 86.7-51.8l.2 76.5-86.6 51.7z" fill="#403956"/><path d="m120.5 79.7c2.6-1.5 4.6-5.1 4.6-8s-2.1-4.1-4.6-2.6c-2.6 1.5-4.6 5.1-4.6 8 0 1.6.6 2.6 1.5 3.1.7.3 1.6.3 2.6-.2.1 0 .3-.1.5-.2" fill="#796d9e"/><path d="m121.1 72.5c.7 0 1 .8.7 1.8l-1.8 5.6c-1 .5-1.9.5-2.6.2l1.8-5.7c.2-.8.7-1.4 1.3-1.7.2-.1.4-.2.6-.2zm-17.2 50.7.7-2.3c1-.5 1.9-.5 2.7-.2l-1.8 5.7c-.2.7-.7 1.3-1.2 1.7-.5.3-1 .3-1.2 0l-2.5-2.7c.6-1.2 1.4-2.4 2.4-3.3l1 1.1z" fill="#796d9e"/><path d="m112.9 121.4c0 5.6-3.9 12.3-8.7 15.1s-8.8.6-8.8-5c0-2.8 1.1-6 2.7-8.8.7-1.2 1.5-2.3 2.4-3.2 1.1-1.3 2.3-2.3 3.6-3.1.7-.4 1.5-.7 2.2-.9.9-.3 1.8-.4 2.6-.2 2.4.4 3.9 2.6 4 6.1z" fill="#b2abc7"/><path d="m106.3 115.5 9.4-29.9c.8.1 1.7 0 2.6-.2l-9.4 29.9c-.8-.1-1.7 0-2.7.2zm-21.4-13.3 15.6 17.2c-.9 1-1.7 2.1-2.4 3.3l-15.6-17.3c.9-1 1.7-2.1 2.4-3.2z" fill="#a59dbe"/><path d="m80 96.8 2.5 2.8c-.6 1.2-1.4 2.4-2.4 3.2l-1.1-1.2-.8 2.5c-1 .4-1.9.4-2.6 0l1.9-5.6c.2-.7.7-1.3 1.2-1.6h.1c.5-.3.9-.3 1.2 0z" fill="#796d9e"/><path d="m63.2 140.4 10.5-31c.8.2 1.6.2 2.6 0l-10.5 30.9c-.8-.2-1.6-.2-2.6 0z" fill="#a59dbe"/><path d="m60.8 156.8c2.6-1.5 4.6-5 4.6-8 0-1.5-.5-2.5-1.4-3-.7-.4-1.6-.4-2.6 0-.2 0-.4.2-.6.3-2.6 1.5-4.6 5.1-4.6 8s2.1 4.1 4.6 2.6" fill="#796d9e"/><path d="m59.5 151.5 1.9-5.7c1-.4 1.9-.4 2.6 0l-1.9 5.6c-.3.7-.8 1.4-1.3 1.7-.2.1-.4.2-.6.2-.7 0-1-.8-.7-1.8z" fill="#796d9e"/><path d="m129.2 69.3c0 5.6-3.9 12.3-8.7 15.1-.7.4-1.4.7-2.1 1-1 .3-1.8.3-2.7.2-2.4-.4-3.9-2.6-3.9-6.1 0-5.5 3.9-12.3 8.7-15.1 4.9-2.8 8.8-.5 8.8 5z" fill="#bcb6cf"/><path d="m87.6 93.3c0 2.9-1.1 6.1-2.7 8.9-.7 1.2-1.5 2.3-2.4 3.2-1.1 1.2-2.3 2.2-3.6 3-.9.5-1.8.9-2.6 1.1-.9.2-1.8.2-2.5 0-2.2-.5-3.7-2.7-3.7-6 0-5.5 3.9-12.3 8.7-15.1 4.9-2.8 8.8-.5 8.8 5z" fill="#9e95b9"/><path d="m69.5 146.5c0 5.6-3.9 12.3-8.7 15.1s-8.7.6-8.8-5c0-5.6 3.9-12.3 8.7-15.1.9-.5 1.7-.8 2.5-1.1.9-.2 1.8-.2 2.6 0 2.2.5 3.6 2.7 3.6 6z" fill="#948bb1"/><path d="m237.9 209.1c.4 1.8 1.1 3.3 2.3 4.2.2.1.4.2.6.3.3.2.6.3.9.4.3 0 .6.1 1 .1s.6 0 .9 0c.7-.1 1.4-.4 2.1-.8 11.7-6.8 11.4-31.1 23.9-38.1 2.4-1.4 4.9-1.9 7-1.6.3 0 1.2.3 1.6.5.4.1.7.3 1.1.5l-13-7.5c-4.6-2.7-10.3 0-14 4.2-4.7 5.4-6.7 12.8-9.3 19.5-1.2 3.3-3 6.8-5.1 9.7-.3 3.1-.5 6.1 0 8.6zm-70.5 22.8c4.7 1.6 7.8 8.2 13.4 7.5 7.2-.8 14.4-11.5 17.5-18.3 7.7-16.8 8.6-37.6 24.9-48.5 3.5-1.9 6.8-1.8 9.3-.3l-13-7.5c-4.2-2.5-7.8 0-9.7.6-20.5 11.8-20.4 64.3-42.1 66.5-.1 0-.3 0-.4 0z" fill="#bcb6cf"/><path d="m136.5 277.6 13 7.5c-.7-10.6-1.1-37.9 4.2-45.5 2-2.9 4.5-5.2 6.9-6.7 2.9-1.7 5.6-2 8.5-.4-11.9-5.9-14.5-11.3-21.4-7.2-2.5 1.4-5 3.8-6.9 6.7-5.3 7.6-4.9 34.9-4.2 45.5z" fill="#bcb6cf"/><path d="m223.2 172.7c6.2-3.4 11.5-.5 13.6 4.9 3.8 9.7-.3 24.6 1 31.4.7 3.2 2.6 5.5 5.6 5 .7-.1 1.4-.4 2.1-.8 12-6.9 11.2-30.8 23.9-38.1 4.6-2.7 9.4-2 11.9 1.3 2.8 3.7 3.4 21 3.4 30.7l-135.3 78.1c-.7-10.6-1.1-37.9 4.2-45.5 2-2.9 4.5-5.3 6.9-6.7 11.3-6.5 12.8 11.6 24.3 5 21-12.1 17.6-54 38.4-65.3z" fill="#d4d0df"/><path d="m164.8 231.6c.8.2 1.6.4 2.6.3-.8-.3-1.7-.4-2.6-.3z" fill="#8f85ad"/></svg>