<svg height="288" width="288" xmlns="http://www.w3.org/2000/svg"><svg enable-background="new 0 0 68 68" height="288" viewBox="0 0 68 68" width="288" xmlns="http://www.w3.org/2000/svg"><path d="m58.1773186 29.1219044c-.0054283.0711937-.0518684.138958-.133503.1863995l-3.7386284 2.1726532c-.1807632.1050472-.4732933.1050396-.6552887-.0000362-.1761169-.1016808-.1770859-.2711239.0036774-.376173l3.6044655-2.0946865-.0112572-1.9997787c-.3923302-.0508251-.7673912-.1593132-1.0726662-.3355637-.839489-.4846783-.8439865-1.2778206-.0041122-1.7659016.8340302-.4846859 2.2033157-.4846725 3.0428047.0000057.8453674.4880733.8498306 1.2811947.0158005 1.7658806-.3032913.1762543-.6771812.2847176-1.0630989.3321705zm-.4593773-2.6166458c.3100777-.0033588.6198769-.0678234.8590088-.2067909.4782143-.2779083.4756889-.7320843-.0115662-1.013401-.4813766-.2779236-1.2655182-.2779293-1.7437325-.000021-.4841385.2813492-.4815674.7355556-.0001907 1.0134773.240696.1389656.5512199.2033329.8613663.206707l.0175323-.0033569zm-15.2503281-6.4533577c.0004044.0745621-.0459862.1423531-.1276207.1897945l-3.7386284 2.1726532c-.1807671.1050491-.4733429.1050129-.655323-.0000534s-.1771049-.2711353.0036583-.3761826l3.6044693-2.0946884-.0171051-2.0031528c-.386467-.0474396-.761528-.1559277-1.0668221-.3321896-.8453331-.4880543-.8498306-1.2811947-.0099564-1.7692757.8340302-.4846859 2.2033157-.4846735 3.0486526.0033808.8453827.4880819.8439827 1.2778196.0099525 1.7625055-.3032913.1762543-.6713181.2881031-1.0631104.3389492zm-.4535446-2.6132794c.3100777-.0033569.6140289-.0711975.8531609-.210165.4782143-.2779083.4756889-.7320862-.0057182-1.0100269-.4813766-.2779226-1.2713509-.2812939-1.7495651-.0033875-.4841385.2813511-.4757347.7389221.0056419 1.0168457.2348137.1355705.5512352.2033405.8614159.2067337l.0174789-.0033855zm5.8486176 5.7281265c.0004196.0745716-.0518837.1389484-.1335182.1863899l-3.7386284 2.1726532c-.1807671.1050491-.4674301.1084251-.6494293.0033493-.1819763-.1050644-.1829491-.2745094-.002182-.3795567l3.6044655-2.0946884-.0112572-1.9997787c-.3923492-.0508327-.7674255-.1593323-1.066803-.3321781-.8453522-.4880638-.8498344-1.2811947-.0099602-1.7692757.8340302-.4846878 2.2033005-.484684 3.0486526.0033798.8394852.4846783.8439674 1.2778091.0099373 1.7624969-.3032951.1762524-.6713181.2881012-1.0630989.3321686zm-.4593735-2.6166458c.3159218.0000172.619873-.0678234.859005-.2067909.4782143-.2779064.4756889-.7320843-.0057182-1.010025-.4872742-.2813263-1.2713661-.2813053-1.7495804-.003397-.4841385.2813511-.481617.735527.0056572 1.0168533.2348175.1355724.5512199.2033329.8614006.2067261l.0174942-.003376zm5.6137504 5.5925255c.0004196.0745716-.04599.1423531-.1276245.1897945l-3.7386284 2.1726532c-.1807632.1050491-.4732933.1050415-.655323-.0000534-.1819801-.1050663-.1771011-.2711334.0036621-.3761826l3.6044655-2.0946884-.0171013-2.0031528c-.3864708-.0474396-.761528-.1559277-1.0667725-.3321609-.8453827-.4880829-.8498306-1.2811947-.0099602-1.7692757.834034-.4846859 2.20327-.4847012 3.0486526.0033817.8453369.4880524.8498306 1.2811947.0158005 1.7658806-.3032913.1762543-.6772118.2846985-1.0690079.3355446zm-.4535293-2.6132698c.3100586-.0033665.6140594-.0711784.8531914-.210146.4782143-.2779083.4756584-.7321053-.0057182-1.0100269-.4814072-.2779408-1.2713966-.2813225-1.7496109-.0034142-.4841385.2813492-.4757195.7389297.0056877 1.0168724.2348175.1355705.5512199.203331.8613663.2067051l.017498-.003376zm-25.0278912 26.8612671c.8453674.4880753.8439693 1.2778091.0040951 1.765892-.8398895.4880905-2.2032623.4914742-3.0486298.0033989-.8453503-.4880638-.849865-1.2811966-.0099754-1.7692871.3032913-.1762505.6771793-.2847137 1.0630989-.3321686l-.0118866-2.1149826c-.0003815-.0677605.0460243-.1355438.1335182-.1863899l3.7386284-2.1726532c.1807632-.1050491.4733582-.1050949.6553555-.0000229.1761322.1016922.177021.271183-.0037441.3762321l-3.6044674 2.0946884.0171032 2.0031509c.3865032.0474588.7616119.1558839 1.066904.332142zm-2.3971252 1.3930588c.4814091.2779388 1.2712803.2745628 1.7495766-.0033951.4782791-.2779465.4756737-.7320747-.0057354-1.0100174-.2406788-.1389542-.5452957-.2067909-.855442-.2101669l-.0176125.0034065-.0175209-.0034256c-.310091.0034256-.6140099.0711899-.8531418.2101593-.4782963.2779541-.4814988.7355156-.000124 1.0134392m-8.1581974-7.4803887c.8453503.4880638.85569 1.2777901.0158157 1.7658691-.8398895.4880905-2.2091408.4880791-3.054492.0000153-.8453684-.4880714-.8498487-1.2811852-.0099592-1.7692757.3032923-.1762543.6771793-.2847176 1.0630989-.3321686l-.0118876-2.1149826c-.0004311-.067791.0459747-.1355743.1334686-.1864204l3.7386293-2.1726532c.1807632-.1050491.4734077-.1050682.6553879-.0000038.1761322.1016922.177021.271183-.0037441.3762321l-3.6044664 2.0946884.0171194 2.0031624c.3864708.0474397.7557545.1592828 1.0610295.335537zm-2.3912668 1.3896523c.4813757.2779198 1.2712955.2745705 1.7495909-.0033836.478281-.2779465.475626-.7321053-.0057507-1.0100288-.240696-.1389656-.5452785-.2067833-.8613329-.2067795l-.0117054.0000267-.017519-.0034218c-.3101425.0033951-.6140118.0711861-.8531427.2101555-.4782963.277954-.4815493.7354888-.0001402 1.0134315m7.5456438 1.5862274c.8453827.4880829.8556881 1.2777901.0158157 1.765873-.8398895.4880905-2.2091084.4880943-3.054493.0000114-.839489-.4846764-.8439522-1.2777786-.0040627-1.7658691.3032913-.1762543.6712666-.2881317 1.0572033-.3355751l-.0060425-2.1116066c-.0062771-.071167.0460091-.1355553.133503-.1864014l3.7386284-2.1726532c.1807632-.1050491.4675293-.1084633.6495075-.0033951.1819801.1050644.1829185.2745857.0021534.3796349l-3.6044655 2.0946846.0112228 1.9997597c.3923494.0508346.761633.1626815 1.0610296.3355369zm-2.3912678 1.3896523c.4872723.2813263 1.2771759.2779655 1.7554722.0000114.4782791-.2779465.4756413-.7320938-.011631-1.0134201-.2348156-.1355743-.5452785-.2067871-.8554268-.2101593l-.0176125.0034027-.0116234-.0000191c-.3160381-.0000076-.6257477.0711823-.8590393.2067528-.4782963.2779579-.481514.735508-.0001392 1.0134316m-7.9175186-7.3414345c.8395214.4846992.849843 1.2744179.0099697 1.7624969-.8398895.4880905-2.2091255.4880867-3.048646.0033913-.8453345-.4880562-.8498483-1.2811852-.0099583-1.7692757.3032913-.1762543.6772118-.2846985 1.0631313-.3321533l-.0119371-2.1150093c-.0003815-.0677605.0460243-.1355438.1335182-.1863899l3.7386284-2.1726532c.1807642-.1050491.4733763-.1050873.6495085-.0033989.1819792.1050682.1829004.2745781.0021372.3796272l-3.6044674 2.0946846.0112228 1.9997597c.3923674.0508461.7616501.1626892 1.0668927.3389206zm-2.3912669 1.3896522c.4814081.2779427 1.2712793.2745628 1.7495756-.0033913.4782791-.2779465.4756737-.7320747-.0057344-1.0100174-.2406626-.1389465-.5511427-.2101669-.8554258-.2101593l-.01758.0034256-.017519-.0034218c-.3101254.0034027-.6199083.0677834-.8590393.206749-.4782963.277958-.4814997.7355195.0057229 1.0168152" fill="#8f85ad"/><path d="m13.9871941 31.2980995c.1819792.1050663.1829824.2745495.0021362.3796444-.180747.1050396-.4733429.1050129-.6553221-.0000534l-3.628047-2.0946541-3.4523845.0000439c-.0806603.2236958-.266705.4406281-.5699964.6168823-.83989.4880905-2.2091258.4880867-3.0544934.0000134-.8453841-.4880829-.8498482-1.2811852-.0099585-1.7692757.8340318-.4846859 2.2032511-.4846916 3.0486352.0033913.3052759.1762505.4995708.3897877.5827494.6134815l3.645547.0033493c.1228762-.0033875.2400312.0237427.3280973.0745869zm-10.7106975-1.4743557c.4813755.2779217 1.2654378.277956 1.7495754-.0033932.2332902-.1355743.3551745-.3152027.3600407-.4948692l-.0059676-.0101357-.0000381-.0068092c-.0009971-.183033-.1190567-.3592472-.3597527-.4982128-.4813757-.2779217-1.2654543-.2779655-1.7437342-.000021-.4841377.2813511-.4814989.7355175-.0001235 1.0134411m16.0648635-1.6371441c.1819801.1050663.1829834.2745476.0079937.3762398-.1807632.1050472-.4733582.1050205-.6553383-.0000458l-3.628046-2.0946541-3.4523849.0000458c-.0865183.2270985-.2725468.4440212-.5758381.6202755-.8340321.4846859-2.2032681.484684-3.0486355-.0033894-.8453841-.4880829-.8498483-1.2811852-.0158167-1.765873.8398895-.4880905 2.2091093-.4880962 3.054493-.0000134.3052759.1762505.4937954.3931446.5769577.616848l3.6513386-.0000172c.1170187.0000191.2341728.0271473.3222399.0779934zm-10.7048397-1.4777622c.4813757.2779217 1.2655039.2779198 1.7437172.0000114.2391319-.1389675.3610325-.3186073.3658829-.4982643l-.0059681-.0101357-.0000381-.0068092c-.0068388-.1796379-.1190567-.3592453-.3597527-.4982109-.4813757-.2779236-1.2654381-.277977-1.7495756.0033741-.4782143.2779065-.4756413.7321129.0057344 1.0100346m15.8315563-1.5015602c.1819801.1050644.1829834.2745476.0022354.3795853-.1808453.1050968-.4734402.1050701-.6554203.0000038l-3.628046-2.0946541-3.4523849.0000439c-.0806618.2236958-.2666893.4406185-.5699978.6168823-.8398724.488081-2.2091246.4880867-3.054492.0000134-.8453846-.4880829-.8498325-1.2811947-.0099592-1.7692757.8340321-.4846859 2.2032671-.4847012 3.0486526.0033817.305275.1762505.4995708.3897877.5828152.6134434l3.6454792.0033875c.1228619-.003376.240015.0237522.3280811.0745983zm-10.71068-1.4743671c.4813757.2779217 1.2655029.2779179 1.7495584-.0033836.2332907-.1355743.3551912-.3152122.3600407-.4948692l-.0058851-.0101833-.0001202-.0067616c-.0009975-.183033-.1189747-.3592949-.3596706-.4982605-.4813757-.2779217-1.2655201-.2779274-1.7438164.0000286-.4840555.2813014-.4814825.7355079-.0001068 1.0134296m15.8316383-1.5016098c.1819801.1050663.1829014.2745953.0021362.3796444-.1749878.1016922-.4675655.101656-.6495457-.0034103l-3.628046-2.0946541-3.4582443.0034485c-.0806599.2236938-.2666874.4406185-.5699959.6168823-.8340321.4846859-2.2032661.4846821-3.0486355-.0033913-.8453827-.4880829-.8498478-1.2811852-.0158157-1.765871.8398895-.4880905 2.2091084-.4880962 3.054493-.0000134.3052769.1762505.4937954.3931446.576973.6168365l3.6513233-.0000057c.1170177.0000172.2342548.0270996.3223209.0779438zm-10.7049217-1.4777127c.4813766.2779217 1.2655201.2779083 1.7437191.0000095.2391472-.1389771.3551731-.3152008.3600388-.4948673l-.0058842-.0101852.0057201-.0101547c-.0068378-.1796379-.1189575-.3593044-.3596535-.49827-.4813747-.2779217-1.2655354-.2779179-1.7496738.0034313-.4781971.2778987-.4756412.7321128.0057335 1.0100364m41.1325951 20.1600857c.8453865.4880829.8439865 1.2778206.0041122 1.7659035-.8340302.484684-2.1974182.4880753-3.0428047-.0000076-.3052406-.1762314-.4995384-.3897667-.5826988-.613472l-3.6455154-.0034065c-.1228447.0034065-.2459412-.0270805-.3281631-.0745506l-3.7630348-2.1725883c-.1819801-.1050644-.1829338-.2745209-.0021057-.3796082.1808472-.1050949.4733925-.1050949.6553726-.0000305l3.6280289 2.0946465 3.4523544.0000305c.0807419-.2237434.2725105-.4440422.5699615-.6169014.8398742-.4880792 2.2091598-.4880678 3.0544929-.0000154zm-2.3912659 1.3896561c.4814072.2779388 1.2655029.277916 1.7437172.0000076.4841385-.2813492.4816132-.735527.000206-1.0134659-.4813766-.2779236-1.2713661-.2813034-1.7555046.0000458-.2332916.1355743-.3492928.318615-.3540611.4982262l.0058861.0101814.0000038.0067902c.0010643.1829948.119091.3592643.3597526.4982147m7.7454987-4.501194c.8453827.4880829.8497772 1.2744522.0098877 1.7625427-.8398056.4880447-2.2032623.4914742-3.048645.0033913-.3052444-.1762314-.4936829-.3931732-.5768585-.6168671l-3.6513557-.0000114c-.1169853 0-.2401047-.0304756-.3223228-.0779457l-3.7630348-2.1725883c-.1819801-.1050682-.1829338-.2745209-.0020905-.3796158.1749725-.1016846.4675179-.1016846.649498.0033798l3.6280289 2.0946465 3.4582939-.0034218c.0806618-.2236938.266655-.4406357.5698814-.6168518.8398894-.4880906 2.2033804-.4847108 3.0487174.0033416zm-2.3913498 1.3897018c.4814072.2779388 1.2655182.2779083 1.7495728-.0033951.4782791-.2779465.4757767-.732132-.0056305-1.0100746-.4813766-.2779198-1.2713852-.281292-1.7496643-.0033455-.2390671.1389275-.3492775.3186035-.3540611.4982224l.0058823.0101852-.0057526.0101357c.0068396.1796379.1189917.3593254.3596534.4982719m-13.2104912 7.6770973c.8453827.4880829.8440018 1.2778091.0099678 1.7624969-.8398895.4880905-2.2032623.4914742-3.048645.0033913-.3052444-.1762352-.493679-.3931732-.5768585-.6168671l-3.6514397.0000343c-.1169853 0-.2400169-.0305214-.3222389-.0779915l-3.7630348-2.1725922c-.1819801-.1050644-.1829338-.2745171-.007946-.3762093.1807632-.1050491.4733772-.1050873.6553535-.0000229l3.6280327 2.0946426 3.4523697.0000229c.0865021-.2270889.2725105-.4440422.5758018-.6202965.834034-.4846837 2.2033005-.4846608 3.0486374.0033915zm-2.3912697 1.3896523c.481411.2779427 1.265522.2779083 1.7495766-.0033913.4782791-.2779465.4757729-.732132-.0056343-1.0100746-.4813766-.2779236-1.2713852-.2812958-1.7496643-.0033493-.2391472.1389771-.3551369.32201-.3599205.5016289l.0058861.0101852.0000229.0067787c.0068397.1796379.1190719.3592759.3597335.4982224m7.512146-4.3655777c.8453827.4880829.8498573 1.2744026.0099678 1.7624931s-2.2032623.4914742-3.048645.0033913c-.3052444-.1762314-.4936981-.3931656-.5768585-.6168671l-3.651371-.0000038c-.117054.000042-.2400856-.0304832-.3223076-.0779533l-3.7630348-2.1725883c-.1819801-.1050682-.1829338-.2745209-.0021057-.3796082.1749878-.1016922.4675369-.1016922.6495132.0033722l3.6280327 2.0946465 3.45821-.0033722c.080658-.2236938.266655-.4406395.5699615-.6169014.8398895-.4880906 2.2033005-.484665 3.0486374.0033912zm-2.3912697 1.3896522c.481411.2779388 1.265522.2779083 1.7495766-.0033951.4782791-.2779465.4757576-.7321205-.0056534-1.0100632-.4813728-.2779236-1.2713661-.2813034-1.7496452-.0033569-.2391472.1389771-.3492928.318615-.3540611.4982224l.0058861.0101852-.0058365.0101852c.0068359.179638.1190719.3592759.3597335.4982224" fill="#665a87"/><path d="m53.415451 30.6349888c1.0374641.5989799 1.0429688 1.5751057.0122375 2.1741009l-17.4841994 10.1607055c-1.0307312.5989952-2.7223053.6027069-3.7597694.003727l-17.5921402-10.156826c-1.043869-.6026802-1.0493946-1.5862122-.0186634-2.1852074l17.4842014-10.1607075c1.0307312-.5989952 2.7223244-.5952988 3.7661934.0073795z" fill="#8f85ad"/><path d="m54.2014198 31.7259541-.0100403 4.5530529c0 .3913269-.2607994.7824059-.7723656 1.0833702l-17.483139 10.1608925c-1.0331116.6018066-2.7282639.6018066-3.7614365 0l-17.59346-10.1508523c-.5216055-.3009644-.7824078-.7020836-.7824078-1.1033287l.0100403-4.5332165c0 .391325.2708426.7824078.7824078 1.0833721l17.5934601 10.1508522c1.0331726.6018066 2.7283249.6018066 3.7614365 0l17.483139-10.1608925c.5115661-.3009643.7623252-.692047.7723655-1.0832499z" fill="#efedf3"/><path d="m53.415451 30.6349888c1.0374641.5989799 1.0429688 1.5751057.0122375 2.1741009l-17.4841994 10.1607055c-1.0307312.5989952-2.7223053.6027069-3.7597694.003727l-17.5921402-10.156826c-1.043869-.6026802-1.0493946-1.5862122-.0186634-2.1852074l17.4842014-10.1607075c1.0307312-.5989952 2.7223244-.5952988 3.7661934.0073795z" fill="#d3cfdf"/><path d="m34.096 43.421v4.554" fill="#eaf0f6"/><path d="m53.794178 29.9830799-17.5942383-10.1513672c-1.237793-.7138672-3.3041992-.7192383-4.5229492-.0083008l-17.4819336 10.1601563c-.7124023.4125977-1.1201172 1.0288086-1.1347656 1.7016602-.0009766.0166016-.0014648.0336914-.0014648.0507813l-.0102539 4.5332012c0 .6894531.421875 1.3286133 1.1572266 1.7524414l17.5913086 10.1494141c1.2658386.7379036 3.2483635.7388 4.515625.0004883l17.4873047-10.1630859c.7250977-.4272461 1.1411133-1.0576172 1.1411133-1.7280273l.0102539-4.5546856c-.0000001-.683594-.4218751-1.3188479-1.1572267-1.742676zm-.7519531 6.7309551-17.4838867 10.1611328c-.2922974.1704102-.6902466.274353-1.112793.3141479v-3.4402466c.6658096-.0517693 1.2943382-.2537689 1.6762695-.4764404l17.3262329-10.0697021-.006897 3.0760498c.0000001.0996094-.1245117.2734375-.3989257.4350586zm-38.4936524-.4428711.0070801-3.0684814c23.9181786 13.8052559 15.6687679 9.0438042 17.4533691 10.0738525.475708.2746582 1.0848999.4351807 1.7363281.4766235v3.4400635c-.4518433-.0337524-.8831177-.1374512-1.1958008-.319519l-17.5942382-10.1513672c-.3002929-.1728515-.4067383-.3520508-.4067383-.4511719zm38.9028321-4.5468731-.0014648.6441021c-.2555237.1992989-.3447495.206234-17.6821289 10.2987671-.877121.5095787-2.5384827.5062103-3.4086914-.0004883-1.8040161-1.0411491 6.5232773 3.764782-17.5927734-10.1533203-.078125-.0450439-.1444702-.0944824-.2087402-.1442871l.0012207-.5334454c.0024414-.0322266.003418-.0649414.0014648-.0981445-.0063477-.1416016.1376953-.3120117.3876953-.456543l17.4833983-10.1611327c.7587891-.4418945 2.2421875-.4365234 3.0190315.0112305l17.5942497 10.1513672c.2807504.1621093.4067384.3393554.4067384.4418944z" fill="#413956"/><path d="m46.975 29.678.023 4.089-9.432 5.481-7.046-.008-9.493-5.481-.023-4.073 9.432-5.481 7.045-.008z" fill="#fff"/><path d="m34.4474258 26.6596146c.2301331-.1328678.3525658-.2969589.3400383-.4923611.0147247-.1953144-.1057816-.3594513-.3344955-.4923649-.2285652-.1328278-.5115356-.203167-.8622398-.2031021-.3238297-.0000668-.6074791.0703354-.8376122.2032032-.2300606.1328259-.3525276.2968941-.3670273.4922962.0122223.1953583.1328049.3594494.3613701.4922771.228714.1329155.5116081.2032967.8353653.2031898.350853.0000669.6345406-.0703143.8646011-.2031382z" fill="#a49bbd"/><path d="m42.48 30.559-6.361-3.696-1.353.781 6.361 3.697z" fill="#a49bbd"/><path d="m28.091898 29.1917171 12.0601635 2.7118912-1.5160065.8752689-2.7353172-.6173553-4.2097282 2.4304886 1.0568504 1.5864182-1.5160065.8752632-4.6559601-6.9867077zm5.9222126 2.5477715-4.9721718-1.1175747 1.9266396 2.8759117z" fill="#716495"/></svg></svg>