<svg height="288" width="288" xmlns="http://www.w3.org/2000/svg"><svg enable-background="new 0 0 68 68" height="288" viewBox="0 0 68 68" width="288" xmlns="http://www.w3.org/2000/svg"><path d="m26.904 62.921 4.759 2.766 33.38-19.212-13.623-7.917-.703.406 12.932 7.515-31.981 18.405-4.068-2.365z" fill="#38314a"/><path d="m3.38 26.757 29.169 19.334-6.668 3.849.691.402 7.37-4.255-29.168-19.333 6.691-3.863-.692-.402z" fill="#38314a"/><path d="m34.4226151 11.7848301-.0303116 5.3898201c0 .2629852-.1719284.5259686-.5158463.7283306l-14.0690956 8.1723881c-.6877708.4046001-1.8105164.4046001-2.4982872 0l-14.1804032-8.1825123c-.3438549-.2023621-.5259066-.4653454-.5157821-.7283306l.0201867-5.3898201c0 .2629843.1719892.5258446.5259683.7282066l14.1702785 8.1825123c.6978951.4046001 1.8104534.4046001 2.4982262 0l14.0792847-8.1825123c.3438531-.1922369.5157816-.4552212.5157816-.7180824z" fill="#efedf3"/><path d="m33.8020096 11.0569744c.6909714.3989325.6946564 1.0476561.0017242 1.4503431l-14.0760822 8.1801252c-.686491.3989449-1.8064537.3989315-2.4974251-.0000019l-14.1746407-8.183733c-.6974313-.4026623-.6946559-1.0476561-.0081642-1.4466009l14.0760803-8.1801243c.6929321-.4026875 1.8064327-.4064033 2.5038643-.003741z" fill="#d3cfdf"/><path d="m7.681 11.772 10.698-6.217 10.797 6.234-10.698 6.217z" fill="#c7c1d6"/><path d="m7.2145729 16.9736824c-.1742291-.1005898-.3151894-.020277-.3157568.1799583-.0005493.1937523.1394954.4363041.3137245.5368958l6.2945614 3.6341667c.1742296.1005917.3151846.0202751.3157339-.1734772.0005684-.2002354-.139472-.4427853-.3137016-.543375zm-2.7819195-1.6255302c-.1854677-.1070805-.3320818-.0171347-.3326678.1895828-.0005856.2066288.1450396.4653873.3305078.5724659.185463.1070786.3320818.0170479.3326674-.1895819.0005859-.2067165-.1450444-.4653902-.3305074-.5724668zm1.2757731.7365684c-.185463-.1070776-.3320818-.0171356-.3326678.1895828-.0005856.2066288.1450443.4653893.3305078.5724659.1798458.1038342.3320818.0170479.3326674-.1895828.0005864-.2067165-.1506611-.4686317-.3305074-.5724659z" fill="#706294"/><path d="m29.8743401 16.9736824c.1742287-.1005898.3151894-.020277.3157578.1799583.0005493.1937523-.1394958.4363041-.3137245.5368958l-6.2945634 3.6341667c-.1742287.1005917-.3151836.0202751-.315733-.1734772-.0005684-.2002354.139473-.4427853.3137016-.543375zm2.7819213-1.6255302c.1854668-.1070805.3320808-.0171347.3326645.1895828.0005875.2066288-.1450386.4653873-.3305054.5724659-.185463.1070786-.3320808.0170479-.3326683-.1895819-.0005874-.2067165.1450463-.4653902.3305092-.5724668zm-1.275774.7365684c.185463-.1070776.3320808-.0171356.3326664.1895828.0005856.2066288-.1450443.4653893-.3305073.5724659-.1798458.1038342-.3320808.0170479-.3326664-.1895828-.0005874-.2067165.1506596-.4686317.3305073-.5724659z" fill="#7c6f9f"/><path d="m15.0153904 21.4580975c-.1910849-.110323-.3320866-.0171356-.3326721.1895809-.0005856.2066288.1394272.4621468.330512.5724697.179841.1038322.3320866.0170498.3326721-.1895809.0005866-.2067166-.150671-.4686375-.330512-.5724697zm1.2701511.7333221c-.185463-.1070766-.3264647-.0138912-.3270502.1928272-.0005856.2066288.1394262.4621468.3248892.5692234.1854649.1070766.3320885.0170498.332674-.189579.0005856-.2067184-.14505-.465393-.330513-.5724716z" fill="#706294"/><path d="m22.0735226 21.4580975c.1910858-.110323.3320866-.0171356.3326721.1895809.0005856.2066288-.1394272.4621468-.3305111.5724697-.179842.1038322-.3320866.0170498-.332674-.1895809-.0005856-.2067166.150671-.4686375.330513-.5724697zm-1.2701512.7333221c.185463-.1070766.3264637-.0138912.3270512.1928272.0005856.2066288-.1394272.4621468-.3248901.5692234s-.3320866.0170498-.332674-.189579c-.0005856-.2067184.14505-.465393.3305129-.5724716z" fill="#7c6f9f"/><path d="m32.9107933 55.046463-.0214806 3.819725c0 .1863747-.1218452.3727493-.3655777.5161629l-9.970665 5.7917137c-.4874172.2867355-1.2831001.2867355-1.7705173 0l-10.0495481-5.7988892c-.2436876-.1434097-.3727055-.3297844-.365531-.5161629l.0143061-3.819725c0 .1863747.1218882.3726616.3727503.5160751l10.0423717 5.7988853c.4945946.2867393 1.2830563.2867393 1.7704754 0l9.9778843-5.7988853c.2436867-.136238.3655319-.3226127.3655319-.5088996z" fill="#efedf3"/><path d="m32.470974 54.5306358c.4896851.2827225.4922981.742466.0012207 1.0278473l-9.9756126 5.7971954c-.4865131.2827301-1.2802219.2827187-1.769907 0l-10.0454655-5.7997513c-.4942636-.2853661-.4922972-.742466-.005785-1.0251961l9.9756145-5.7971954c.4910755-.2853813 1.2802067-.2880135 1.7744713-.0026512z" fill="#d3cfdf"/><path d="m63.6068916 19.6103153-3.9186821-2.2772808c-.5704918-.331543-1.2586021-.4578915-2.0215111-.3542786l3.9186897 2.277298c.7629052-.1036205 1.4510156.0227299 2.0215035.3542614z" fill="#8f85ad"/><path d="m60.0126381 15.3055315-3.9186783-2.2772779c-.9957466-.5786734-2.3735352-.4963074-3.8847618.3761997-.383358.2213316-.738266.4752817-1.0788269.7536182l3.9186897 2.2772961c.3405571-.2783413.6954651-.5322905 1.0788231-.753623 1.5112267-.8725071 2.8890152-.9548731 3.8847542-.3762131zm-25.937336 26.0570669 3.9186859 2.277298c-1.0291786-.5980988-1.6629715-1.8776016-1.6681519-3.7056084-.0055275-1.94981.7277374-4.1545334 1.9100189-6.0465126l-3.9186859-2.2772827c-1.1822815 1.8919716-1.9155464 4.0966949-1.9100189 6.046505.0051804 1.8280029.6389733 3.1075096 1.6681519 3.7056007z" fill="#bdb6cf"/><path d="m40.4548149 20.5466633 3.9254112 2.2796001c.7894821-2.9579754 2.8690643-5.9381428 5.3488159-7.3726063 1.6123543-.9229832 3.0580177-1.0119629 4.1032372-.4003057l-3.925415-2.2796659c-1.0340881-.6004591-2.4797516-.5226107-4.0921059.4115038-2.4797516 1.4344634-4.5593338 4.4035005-5.3599434 7.361474zm3.7801094 2.2779903-3.9186821-2.277277c-.2272377.1066837-.4474411.2092972-.6746063.3404503-3.0457764 1.7584801-5.4730263 5.9872189-5.4632416 9.4381123.0013199.4650173.0451775.8972988.1387749 1.284544l3.9186935 2.2772999c-.093605-.3872528-.1374626-.8195343-.1387825-1.2845535-.0097847-3.4508915 2.4174652-7.6796322 5.4632416-9.4381104.2271652-.1311531.4473686-.2337666.6746025-.3404656z" fill="#bdb6cf"/><path d="m49.7341499 15.4589958c-2.4849396 1.4346828-4.5602226 4.4060745-5.3553963 7.3656578-.2272339.106699-.4474373.2093124-.6746025.3404655-3.0457726 1.7584782-5.4730225 5.9872189-5.4632416 9.4381104.0013199.4650192.0451775.8973007.1387749 1.2845459-1.1822815 1.8919792-1.9155464 4.0967026-1.9100189 6.0465126.0104294 3.6793594 2.5675201 5.1365967 5.7694893 3.287941l17.3235245-10.0017433c3.1522789-1.8199692 5.7424507-6.2489796 5.7320213-9.9283409-.0079346-2.7982368-1.5624847-4.3276653-3.7093163-4.0360985.0209122-.142828.0204735-.2978249.020031-.4528217-.0098495-3.4754019-2.4814453-4.8512707-5.4775314-3.12148-.383358.2213326-.738266.4752817-1.0788269.7536192-.8728027-1.8658495-2.9151878-2.361846-5.3149071-.976368z" fill="#d4d0df"/><path d="m24.7019539 53.3260651c1.6395779.9466095 1.6482048 2.4855919.0193176 3.4321976-1.634161.9496689-4.2963066.9527473-5.9358864.0061378-1.6448517-.9496574-1.6482391-2.4916801-.0140781-3.4413528 1.6288872-.9466057 4.2857952-.9466363 5.9306469.0030174z" fill="#c9c4d8"/><path d="m34.1346321 46.599968c-.7070847.4099884-1.8598061.4099884-2.5668869 0-.7130299-.4099922-.7130299-1.0754738-.0059471-1.485466.7011337-.4099884 1.8538551-.4099884 2.560936 0 .7070846.4099922.7130317 1.0754737.011898 1.485466zm31.4810524.5991973c-.707077.4099922-1.8597984.4099922-2.5668831 0-.713028-.4099884-.713028-1.0754738-.0059471-1.4854622.7011337-.4099884 1.8538589-.4099884 2.560936 0 .7070846.4099885.7130356 1.0754738.0118942 1.4854622zm-32.6124039 18.6585389c-.7070808.4099884-1.8598042.4099884-2.566885 0-.7130299-.4099884-.7130299-1.07547-.005949-1.485466.7011356-.4099846 1.8538551-.4099846 2.5609398 0 .7070809.409996.713028 1.0754776.0118942 1.485466zm-27.3685422-38.3763485c-.7070823.4099903-1.8598034.4099903-2.5668855 0-.7130299-.4099884-.7130299-1.0754738-.0059476-1.4854622.7011344-.4099903 1.8538556-.4099903 2.5609374 0 .7070824.4099884.71303 1.0754738.0118957 1.4854622z" fill="#b2abc7"/><g fill="#413956"><path d="m7.3330064 11.7698517c0 .1300049.0599976.2399902.1700439.3099976l10.7999878 6.2299805c.0499878.0300293.1099854.0499878.1699829.0499878.0700073 0 .1300049-.0199585.1799927-.0499878l10.7000122-6.2199707c.1099854-.0599976.1699829-.1800537.1699829-.3000488 0-.1300049-.0599976-.2399902-.1699829-.2999878l-10.7999883-6.2399903c-.1100464-.0599976-.2399902-.0599976-.3500366 0l-10.6999507 6.2199707c-.1100464.0600586-.1700439.1800537-.1700439.3000488zm11.0499873-5.8099976 10.0900269 5.8299561-10 5.8099976-10.0900269-5.8299561z"/><path d="m20.1830425 26.7298126 14.079958-8.1799927c.7700195-.4599609.8800049-1.0599976.8800049-1.3699951l.0300293-5.3800049c.0199585-.539978-.3099976-1.0499878-.8900146-1.3999634l-14.1799947-8.1800536c-.9000244-.5199586-2.3499756-.5099488-3.2600098.0100098l-14.0800168 8.1799926c-.5599976.3400269-.8800048.8300171-.8800048 1.3600464l-.0199585 5.3800049c-.0200195.539978.2999877 1.039978.8900145 1.3999634l14.1799927 8.1799927c.8959654.5294513 2.3400934.5376891 3.2499998-.0000001zm-.8300171-23.2099609 14.1799946 8.1799927c.0800171.0499878.1199951.0899658.1400146.0899658v.3800049c-.0100098.0100098-.0300293.0200195-.0499878.0300293l-14.0700092 8.1900024c-.5793419.3185768-1.4941502.3235607-2.0499878-.0100098l-14.1300046-8.1600341v-.3899536c.0099487-.0100098.0499878-.0700073.1499634-.1300049l14.0800171-8.1699829c.4400022-.2600098 1.3099973-.2600098 1.7499997-.0100098zm-.4700317 22.0700073c-.0007324.0001221-.0015259.000061-.0015259.000061l-.0007324-4.2700806h.0022583c.0572834-.0572834.5055485.0068741 1.1200562-.3300171l13.6699848-7.9500122-.0200195 4.0900269c-.0100098.0100098-.0499878.0700073-.1499634.1300049l-14.080019 8.1699829c-.1400147.0800171-.3300171.1400147-.5400391.1600342zm-1.8299561-4.6000366c.3193359.1796265.7084351.2992554 1.1275024.3295898v4.2696533c-.1887817-.0301514-.3582153-.0796509-.4974976-.1592407l-14.1700436-8.1799926c-.0799561-.0499878-.1300049-.0900269-.1499634-.0900269l.0100098-4.0699463zm15.8699971 32.8900146-10.0499897-5.7999878c-.7000122-.4000244-1.8200073-.4000244-2.5300293.0100098l-9.9799805 5.7999878c-.460022.2699585-.7300415.6900024-.7300415 1.1499634l-.0199585 3.8000488c-.0100098.4599609.2600098.8899536.7399902 1.1900024l10.0499878 5.789978c.3500366.210022.7999878.3200073 1.2700195.3200073.4599609 0 .9099731-.1099854 1.25-.3099976l9.9899921-5.7999878c.460022-.2800293.7299805-.7000122.7299805-1.1600342l.0200195-3.7999878c.0100099-.4700316-.2499999-.9000242-.7399901-1.1900023zm-10.7999897-4.5 10.0399799 5.7999878v.1600342l-9.8400288 5.7099609c-.1300049.0800171-.3199463.1300049-.5099487.1500244-.1100464.0100098-.210022.0100098-.3200073 0-.1900024-.0200195-.3800049-.0700073-.5200195-.1500244l-9.8400269-5.6900024v-.1900024l9.960022-5.789978c.25-.1400147.789978-.1400147 1.0300293-.0000001zm-11 6.8399659 9.4299927 5.4400024c.2086792.1193237.4671021.2084351.7451782.2390137v2.6890869c-.0574341-.0193481-.1065063-.0387573-.1452026-.0580444l-10.039978-5.8000488zm10.8800049 8.3800048c-.0014038.0003052-.0032349.0001831-.0046387.0004883v-2.7104492h.0046387c.2699585-.0300293.5299683-.1099854.7399902-.2300415l9.4099751-5.4799805-.0100098 2.5599976-9.9699726 5.7900391c-.0499878.0299682-.1099854.0499877-.1699829.0699462zm41.9799823-45.6399536-1.6699829-.9700317c-.200695-1.7703629-1.0857773-2.90166-1.8800049-3.2999878-.0100098-.0100098-.0500488-.0300293-.0800171-.0499878 0 0-.0100098 0-.0100098-.0100098l-3.8699951-2.25c-1.2700195-.7399902-2.960022-.5999756-4.6300049.3699951-.0800171.0499878-.1599731.0900269-.2399902.1400146l-1.3200073-.7600097c-1.3099976-.7700195-3.0599976-.6199951-4.8400269.4099731-2.5 1.4400024-4.6799927 4.3500366-5.6199951 7.4800415-3.4367867 1.7191429-6.2604332 6.3580494-6.25 10.2999878 0 .4099731.0400391.789978.1000366 1.1499634-1.2000122 2-1.869997 4.2400513-1.869997 6.1900024.0100098 2.0400391.7299824 3.5900269 2.0399799 4.3500366l3.7999878 2.2099609c.0200195.0100098.0400391.0200195.0499878.0300293 1.4900932.9148941 3.3572197.521553 4.9200439-.3800049l17.3200073-10c5.5091783-3.170946 8.2966615-12.4328917 4.0499879-14.909973zm-2.5700073.5999756h.0100098c.0833588.0836143.2864189.0100098.6199951.0100098.6311874.5728912 2.4787369.6081924 2.5 3.7299805.0100098 3.4000244-2.3900146 7.5599976-5.3599854 9.2700195l-17.3200073 10c-1.2900391.7399902-2.5100098.8999634-3.3400269.4199829-.0299683-.0100098-.0499878-.0299683-.0700073-.039978l-1.0899658-.6300049c-.3500366-.6199951-.5400391-1.4199829-.5400391-2.3900146-.0099487-1.8200073.6700439-3.960022 1.8500366-5.8599854.0499878-.0800171.0700073-.1699829.0499878-.2600098-.0900269-.3499756-.1300049-.7600098-.1300049-1.210022-.0097198-3.2528801 2.2695427-7.6352158 5.9000244-9.4499512.0100098 0 .0199585 0 .0299683-.0100098.0700073-.0300293.1199951-.0700073.1500244-.1300049.0299683-.0300293.039978-.0599976.0499878-.0900269.9169693-3.3935699 3.9929771-7.5258951 7.2299805-7.8800049 2.2346497-.1710091 2.6774521 1.4772072 2.8699951 1.6700439.0500488.0299683.0900269.0599976.1500244.0700073.4075737.0813656 1.5764351-1.4319811 3.5200195-1.4900513 1.8104439.8191719 2.2523346 1.7152615 2.3399658 3.1199951.0100098.0200195.0100098.0500488.0100098.0800171.0341988.4270668.2999382.5225468.4000244.6199951.0198594.1014865-.0472259.3776096.169983.4500125zm-11.8800049-6.1400146 1.25.7300415v.039978c.021183.2327805.1600075.2359972.2600098.3200073-3.087719.8363218-5.7620468 4.4429169-6.8800049 7.789978l-2.9400024-1.7099609c.7999878-2.7900391 2.7800293-5.4900513 4.9699707-6.7600098 1.2800293-.7399902 2.5100097-.8900146 3.3400268-.4100341zm7.9799805 1.3099975c-.1080246.0240374-.1335564.0277176-.5299683.1600342-.0100098 0-.0100098 0-.0200195.0100098-.6482658.2593575-1.237545.5673409-1.7999878 1-.6735535-1.0917721-1.5541191-1.3088932-2.460022-1.9100342 2.633091-1.4527321 3.4653588.2315998 4.8099976.7399902zm-16.7299805 6.4899903h.0100098l2.7000122 1.5800171c-3.8962898 2.5975246-5.7588539 6.6430454-5.75 9.7999878 0 .2200317.0100098.4200439.0299683.6199951l-2.5800171-1.5c.0200195-.0899658.0200195-.1899414 0-.2799683-.0799561-.3300171-.1199951-.710022-.1199951-1.1199951-.0099487-3.2200317 2.2800293-7.1600342 5.1000366-8.789978.5722084-.3053189.4615135-.2358132.6099853-.3100586zm-5.8900146 11.1300048h.0100098l2.8500366 1.6600342c-1.1400146 1.9299927-1.7800293 4.0700073-1.7800293 5.9299927.0100098.6199951.0800171 1.2000122.2199707 1.710022l-1.5999756-.9300537c-.8200073-.4899902-1.289978-1.5799561-1.289978-3.0599976 0-1.6499634.5700073-3.5699463 1.5899658-5.3099976z"/><path d="m18.6130352 57.0698395c1.7904243 1.023098 4.5824165.9802475 6.2799683-.0100098 1.8767357-1.0843468 1.8470192-2.952652-.0199585-4.039978-1.6900024-.9800415-4.6000366-.9800415-6.2800293 0-1.8672772 1.0787544-1.8582478 2.9560318.0200195 4.0499878zm5.9099731-3.4400025c1.3440094.7596817 1.4739704 1.9746895.0200195 2.8300171-1.4700317.8499756-4.1000366.8599854-5.5800171 0-1.329195-.7513084-1.4923763-1.9729195-.0200195-2.8300171 1.5369206-.8929977 4.039774-.8950042 5.5800171 0zm21.4600239-23.9199829c-.9700317.5599976-1.75 1.9099731-1.75 3.0199585.0100098 1.1100464.789978 1.5500488 1.7600098.9899902.9599609-.5499878 1.7399902-1.8999634 1.7299805-3 0-1.1199951-.7800293-1.5599975-1.7399903-1.0099487zm6.0200196-3.4700317c-.9700317.5599976-1.7600098 1.9100342-1.75 3.0200195 0 1.1099854.789978 1.5499878 1.7599487.9899902.9500122-.5499878 1.7300415-1.9000244 1.7300415-3.0100098s-.7900391-1.5499877-1.7399902-.9999999zm6.0099487-3.4699707c-.9699707.5599976-1.75 1.8999634-1.75 3.0199585.0100098 1.1000366.7900391 1.5400391 1.7600098.9800415.960022-.5500488 1.7399902-1.8900146 1.7399902-3-.0099487-1.1100464-.789978-1.5500488-1.75-1z"/></g></svg></svg>