<svg viewBox="0 0 288 288" xmlns="http://www.w3.org/2000/svg"><path d="m177.8 32.5v91.4s-154.9 89.4-154.9 89.4v-91.4s154.9-89.4 154.9-89.4z" fill="#eeedf3"/><path d="m174.9 17.9c-1.5-.8-3.5-.7-5.8.7l-138 79.7c-4.6 2.7-8.4 9.2-8.4 14.6l.2 100.5v9.6c0 2.7 1 4.5 2.5 5.4l-2.5-1.5-11.5-6.6c-1.5-.9-2.5-2.8-2.5-5.4v-9.6s-.3-100.5-.3-100.5c0-5.4 3.8-11.9 8.4-14.6l138.1-79.7c2.3-1.4 4.5-1.5 6-.6l13.8 8.1z" fill="#e5e5f9"/><path d="m169.1 18.6c4.7-2.7 8.5-.5 8.5 4.8l.3 100.5-155 89.4-.3-100.5c0-5.4 3.8-11.9 8.4-14.6z" fill="#fff"/><path d="m169.1 18.6c4.7-2.7 8.5-.5 8.5 4.8l.3 9.1-155 89.4-.3-9.1c0-5.4 3.8-11.9 8.4-14.6zm8.7 105.3v9.6c0 5.4-3.7 11.9-8.4 14.6l-138 79.6c-4.7 2.7-8.5.5-8.5-4.8v-9.6s154.9-89.4 154.9-89.4z" fill="#cdccff"/><path d="m73 203.7 18.1 14.1c4.9 3.3 13.6 3.5 18.9.4l42.3-24.4c5.3-3.1 5-8.1-.7-11l-24.1-10.6z" fill="#cdccff"/><path d="m22.9 213.3v13.5l-11.5-6.6c-1.5-.9-2.5-2.8-2.5-5.4v-9.6s13.9 8.1 13.9 8.1z" fill="#d5d5ef"/><path d="m103.4 174.6c0 2.2-1.5 4.8-3.4 5.8-1.8 1.1-3.4.2-3.4-1.9s1.5-4.7 3.4-5.8c1.8-1.1 3.4-.2 3.4 1.9zm-64.7-74.6c1.7-1 3-.2 3.1 1.8 0 2-1.4 4.3-3 5.3-1.7 1-3.1.2-3.1-1.7 0-2 1.4-4.4 3.1-5.4zm12.6-7.2c1.7-1 3.1-.2 3.1 1.8s-1.4 4.3-3.1 5.3-3.1.2-3.1-1.8 1.4-4.4 3.1-5.4zm12.5-7.3c1.7-1 3.1-.2 3.1 1.8s-1.4 4.3-3.1 5.3-3.1.2-3.1-1.7c0-2 1.4-4.4 3.1-5.4z" fill="#5b5aa7"/><path d="m34.4 161.4v31.9s41.5-23.9 41.5-23.9v-31.9s-41.5 24-41.5 24z" fill="#d2d2ff"/><path d="m166.3 85.3-41.5 24v31.9s41.5-23.9 41.5-23.9z" fill="#d2d2ff"/><path d="m75.9 137.5v31.9s48.9-28.2 48.9-28.2v-31.9s-48.9 28.2-48.9 28.2z" fill="#a09fec"/><path d="m34.4 128.6 131.9-76.2v19.9s-131.9 76.2-131.9 76.2z" fill="#fff"/><path d="m277.2 98.5c-1.1-.6-2.7-.6-4.4.4l-65.2 37.6c-3.4 2-6.1 6.7-6.1 10.7l.4 127.1c0 1.9.7 3.3 1.8 4l-12.7-7.3c-1.1-.6-1.8-2-1.8-4l-.4-127.1c0-3.9 2.7-8.7 6.1-10.6l65.2-37.6c1.7-1 3.3-1.1 4.4-.4l12.7 7.3z" fill="#e5e5f9"/><path d="m279.3 229.6c0 3.9-2.7 8.7-6.2 10.7l-65.2 37.6c-3.4 2-6.2.4-6.2-3.5l-.4-127.1c0-3.9 2.8-8.7 6.2-10.7l65.2-37.6c3.4-2 6.2-.4 6.2 3.5l.3 127.1z" fill="#eeedf3"/><path d="m279.3 111-77.9 45v-8.8c0-3.9 2.8-8.7 6.2-10.7l65.2-37.6c3.4-2 6.2-.4 6.2 3.5z" fill="#cdccff"/><path d="m246.6 122.5-12.4 7.2" fill="#c1ccd6"/><path d="m201.9 266.2 77.5-44.8.4 8.6c0 3.9-2.8 8.7-6.2 10.7l-65.2 37.6c-3.4 2-6.2.4-6.2-3.5z" fill="#d5d5ef"/><path d="m202.8 142-12.9-6.9" fill="#98acc3"/><g fill="#5b5aa7"><path d="m176.5 15.2-13.8-8.1c-2.6-1.5-6-1.3-9.1.6l-138.1 79.7c-5.6 3.3-10 10.9-10 17.3l.3 110.1c0 3.7 1.4 6.6 4 8.2l13.9 8c2.9 1.7 6.3 1.1 9.2-.6l39.7-23 16.6 12.9c5.9 4.1 15.9 4.2 22.3.6l42.3-24.4c7.3-4.2 7.4-12.5-1.1-16.6l-18.3-8.1 36.5-21c5.6-3.3 10-10.9 10-17.4l-.3-110c0-4.5-2.3-7.4-4.2-8.2zm-146.6 209.7c-1.2.7-2.3 1-2.9.6l-2.4-1.4c-.2-1 0-1.5-.1-10l150.2-86.7v6c0 4.3-3.1 9.7-6.8 11.9-7.9 4.6-133.4 77-138 79.6zm-5.5-14.2c0-120.4 0-78.9 0-87.9l149-86.1 1-.6.2 87.8zm149-190s0 0 0 0c.4.2.8 1 .8 2.6v9.4s-149.8 86.7-149.8 86.7l-.2-6.6c0-4.1 2.6-9.9 7.7-13.3 146.6-84.6 138.1-79.8 139.1-80.2zm-143.1 76.3c-3 1.7-5.8 5.3-6.2 6.4s0 0 0 0l-10.3-5.1s0 0 0 0c1.3-2.2 3-4.2 4.9-5.4l138-79.7c.7-.4 2.2-1 2.8-.6l8.5 4.9zm-18.4 7.6c0-1.1.2-2.4.7-3.7l10.2 5c-.2.7-1.5 3.4-1.5 6.9v.2c0 .5.2 98.1.2 97.6l-9.3-5.4-.3-100.7zm-1.4 103.2c.4.2 11.6 6.8 10.9 6.4 0 .4 0 10.8 0 10.1l-9.3-5.3c-1.1-.7-1.7-2.2-1.7-4.2v-7zm139.7-22.1c3.2 1.5 3.8 3.4.6 5.3l-42.3 24.4c-4.4 2.5-11.8 2.2-15.4-.2l-14.3-11.2 49-28.3z"/><path d="m165.6 84c-53.2 30.7 29-16.8-131.9 76.1-.4.3-.7.8-.7 1.3v31.9c0 .6.3 1 .7 1.3.2.1.5.2.7.2s.5 0 .8-.2c4.2-2.4 120.8-69.8 131.8-76.1.5-.3.7-.8.7-1.3v-32c0-.6-.3-1-.7-1.3-.5-.3-1.1-.3-1.5 0zm-129.7 78.3 38.5-22.2v28.5l-38.5 22.2zm41.5-24 46-26.5v28.5s-46 26.5-46 26.5zm87.4-21.9-38.5 22.2v-28.5s38.5-22.2 38.5-22.2zm.8-65.3-131.9 76.2c-.4.3-.7.8-.7 1.3v19.9c0 .5.3 1 .7 1.3.5.3 1 .3 1.5 0l131.8-76.1c.5-.3.7-.8.7-1.3v-19.9c0-.6-.3-1-.7-1.3-.5-.3-1.1-.3-1.5 0zm-.8 20.4-128.9 74.4v-16.5s128.9-74.4 128.9-74.4zm68.6 56.9c-1.7 1-.2 3.5 1.5 2.6 10.3-6.5 14.3-6.9 13-9.2-.4-.7-3.7 1-14.4 6.6z"/><path d="m282.1 102.5c0-2.9-1.1-5.3-3.2-6.6l-12.9-7.5c-2.2-1.3-5-1.1-7.6.4l-65.1 37.6c-4.4 2.5-7.8 8.4-7.8 13.4l.3 127.1c0 3 1.3 5.5 3.4 6.7l12.7 7.3c1.9 1.1 4.7 1.3 7.5-.4l65.2-37.7c4.4-2.5 7.8-8.3 7.8-13.4l-.3-127.1zm-89.6 165.7s-.3-.5-.3-1.3l-.3-127.1c0-.6 0-1.2.3-1.8l8.7 4.6c-.6 1.5-1 3.1-1 4.6 0 49.4-.2-85.7.4 125.5zm10.4-121c0-3.4 2.5-7.7 5.4-9.4l65.2-37.6s.1 0 .2 0l1.9 1.1c.5.7.1 2.4.3 10.1l-72.9 42.1v-6.2zm-.7-7.2s0 0 0 0l-8.8-4.7c.8-1.4 1.9-2.6 3.1-3.3 74-42.5 64.2-37.4 66.4-38.1l7.8 4.5c-65.4 38.5-65 35.9-68.4 41.6zm.7 16.9 72.9-42.1.3 106.9-72.8 42.1-.3-106.9zm.5 110.1 72.7-42c-.2 1.1 1.4 8.9-4.6 12.5-39 22.4-65.4 38-66.3 38s-1.4-.8-1.4-.8l-.3-7.7z"/><path d="m238.6 254.1 4.6-2.6c1.2-.7 2.1-2.3 2.1-3.7s-1-1.9-2.1-1.2l-4.6 2.6c-1.2.7-2.1 2.3-2.1 3.7s1 1.9 2.1 1.2zm-43.3-89.7v10.5c0 .7.5 1.5 1 1.8.6.3 1.1 0 1.1-.6v-10.5c0-.7-.4-1.5-1-1.8s-1.1 0-1.1.6zm0 18.1v10.5c0 .7.5 1.5 1 1.8.6.3 1.1 0 1.1-.6v-10.5c0-.7-.4-1.5-1-1.8s-1.1 0-1.1.6z"/></g><path d="m267.9 196-55.3 31.9-.2-63.5 55.3-31.9z" fill="#e3e3ff"/><path d="m267.9 209.5c1-.6 1.9-.1 1.9 1.1 0 1.1-.8 2.6-1.8 3.2l-55.3 31.9c-1 .6-1.8.1-1.8-1 0-1.2.8-2.6 1.8-3.2l55.3-31.9z" fill="#e3e3ff"/><path d="m231.7 183.1c1.1 5.3 5.7 7.1 11.2 3.9.4-.2.9-.5 1.3-.8-.3 5.6-4.2 12.2-9 15-5 2.9-9.1.6-9.1-5.2 0-4.4 2.3-9.5 5.6-13z" fill="#a09fec"/><path d="m242.8 160.6c6.3-3.7 11.5-.7 11.5 6.6 0 6.8-4.4 14.9-10.2 19-.4.3-.8.6-1.3.8-5.5 3.2-10.1 1.4-11.2-3.9-.2-.8-.3-1.7-.3-2.6 0-7.3 5.1-16.2 11.4-19.8z" fill="#a09fec" opacity=".5"/></svg>