<svg viewBox="0 0 777 223.7" xmlns="http://www.w3.org/2000/svg"><g fill-rule="evenodd"><g fill="#171e25"><path d="m34.9 204.5h21.8c1 0 1.6.3 2 1.3l8.2 13c.7 1.3.3 2.6-.7 3.6-.3.3-1 .3-1.3.3h-62.3c-1.3 0-2.6-1-2.6-2.6v-11.1c0-.7.3-1.3.7-1.6l32-36.8c1-1 .7-2.6-.3-3.6-.3-.3-1-.7-1.6-.7h-26.9c-1.3 0-2.6-1-2.6-2.6v-13c0-1.3 1-2.6 2.6-2.6h59.3c1.3 0 2.6 1 2.6 2.6v10.8c0 .7-.3 1.3-.7 1.6l-32 36.8c-1 1-.7 2.6.3 3.6.3.7.7 1 1.3 1"/><path d="m117 179c1.3 0 2.6-1 2.6-2.6v-.3c-.7-7.2-6.8-12.4-14-12.1-7.2 0-13 4.9-14.7 11.7-.3 1.3.3 2.6 1.6 3.3zm22.9 12.8h-45.6c-1.3 0-2.6 1-2.6 2.3s0 .7.3 1c2.6 6.5 9.1 10.8 16.3 10.4 5.9 0 11.4-2.3 16-5.9 1-1 2.3-1 3.3 0l9.1 9.1c1 1 1 2.6 0 3.6-8.5 7.5-18.9 11.7-30.3 11.4-21.2 0-35.5-12.1-38.5-30.3-4.6-28.7 17.3-48.6 45.6-44.3 19.9 3.3 30 18.3 29.3 41.1-.7.3-1.6 1.3-2.9 1.6z"/><path d="m176.1 157.5c4.2-5.2 10.1-8.8 16.6-10.1 1.3-.3 2.6.7 2.9 2.3v16.3c0 1.3-1 2.6-2.6 2.6-12.4-.3-20.2 6.2-21.5 15.6v35.2c0 1.3-1 2.6-2.6 2.6h-18.6c-1.3 0-2.6-1-2.6-2.6v-68.5c0-1.3 1-2.6 2.6-2.6h18.6c1.3 0 2.6 1 2.6 2.6v5.2c0 1.3 1.3 2.6 2.6 2.6 1-.3 1.6-.7 2-1.3"/><path d="m217.1 185.6c0 11.4 6.8 18.9 16.6 18.9s16.6-7.8 16.6-18.9-6.8-18.9-16.6-18.9-16.6 7.5-16.6 18.9m57.1-.4c0 22.5-16.3 37.5-40.1 37.5s-40.4-15-40.4-37.5 16.3-37.5 40.4-37.5 40.1 15 40.1 37.5"/><path d="m361.9 184.6c0-11.4-6.8-18.9-16.6-18.9s-16.3 8.2-16.3 18.9 6.8 19.2 16.3 19.2 16.6-7.8 16.6-19.2m23.8.6c0 22.2-13.4 37.2-33.9 37.2s-13.4-2.3-18.3-6.5c-1-1-2.6-.7-3.6.3-.3.3-.7 1-.7 1.6v1.3c0 1.3-1 2.6-2.6 2.6h-18.6c-1.3 0-2.6-1-2.6-2.6v-96.2c0-1.3 1-2.6 2.6-2.6h18.6c1.3 0 2.6 1 2.6 2.6v28.7c0 1.3 1 2.6 2.6 2.6s1.3-.3 1.6-.7c5.2-4.2 11.4-6.5 17.6-6.5 20.9.3 34.6 15.3 34.6 38.1"/><path d="m408.8 185.6c0 11.4 6.8 18.9 16.6 18.9s16.6-7.8 16.6-18.9-6.8-18.9-16.6-18.9-16.6 7.5-16.6 18.9m56.4-.4c0 22.5-16.3 37.5-40.1 37.5s-40.4-16.3-40.4-37.5 16.3-37.5 40.4-37.5 40.1 15 40.1 37.5"/><path d="m542.2 205.5-18.6 13.7c-1 .7-2.6.7-3.6-.7-.3-.3-.3-1-.3-1.3 0-1.3-1.3-2.6-2.6-2.6s-1.3.3-2 .7c-5.2 5.2-12.4 7.8-19.6 7.5-16 0-26.1-11.1-26.1-28v-44.3c0-1.3 1-2.6 2.3-2.6h18.6c1.3 0 2.6 1 2.6 2.6v37.2c0 8.8 4.9 14 12.4 14s14.3-7.5 14.3-17.6v-33.6c0-1.3 1-2.6 2.3-2.6h18.6c1.3 0 2.6 1 2.6 2.6v52.8c0 1-.3 1.6-1 2.3"/><path d="m629.9 175.8v44c0 1.3-1 2.6-2.6 2.6h-18.3c-1.3 0-2.6-1-2.6-2.6v-37.5c0-8.8-5.2-14-13-14s-14 6.2-15 15v33.9c0 1.3-1 2.6-2.6 2.6s-1-.3-1.6-.3l-18.6-13.7c-.7-.3-1-1.3-1-2v-52.8c0-1.3 1-2.6 2.6-2.6h18.6c1.3 0 2.6 1 2.6 2.6v2.3c0 1.3 1 2.6 2.6 2.6s1.3-.3 1.6-.7c5.5-5.2 13-7.8 20.2-7.8 16.3.3 27.1 11.1 27.1 28.4"/><path d="m702.3 165.7-13 7.8c-1 .7-2.3.3-3.3-.3-3.6-3.9-8.5-6.2-13.7-6.2-9.1 0-15.6 7.5-15.6 18.3s6.5 18.6 15.6 18.6c5.5.3 10.8-2.3 14-6.5.7-1 2.3-1.3 3.3-.7l13 7.8c1.3.7 1.6 2.3 1 3.3-6.5 9.5-17.6 15-32 15-22.5 0-37.8-15-37.8-37.5s15.6-37.8 38.1-37.8 24.5 5.2 31.3 14.3c.3 1.6 0 2.9-1 3.9"/><path d="m751.5 179c1.3 0 2.6-1 2.6-2.6v-.3c-.7-7.2-6.8-12.4-14-12.1-7.2 0-13 4.9-14.7 11.7-.3 1.3.3 2.6 1.6 3.3zm22.8 12.8h-46c-1.3 0-2.6 1-2.6 2.3s0 .7.3 1c2.6 6.5 9.1 10.8 16.3 10.4 5.9 0 11.4-2.3 16-5.9 1-1 2.3-1 3.3 0l9.1 9.1c1 1 1 2.6 0 3.6-8.5 7.5-18.9 11.7-30.3 11.4-21.2 0-35.5-12.1-38.5-30.3-4.6-28.7 17.3-48.6 45.6-44.3 19.9 3.3 30 18.3 29.3 41.1-.3.3-1.3 1.6-2.6 1.6z"/></g><path d="m56.1 54.5c67.8-17.6 182.9-30 225.6 66.5.7 1.3 2 2 3.3 1.3.7-.3 1.3-1 1.3-1.6 3.3-12.4 16.3-34.2 63.9-51.8 1.3-.7 2.6 0 3.3 1.3s0 2.6-1.3 3.3c-22.5 13-54.1 34.9-65.2 61.3 0 0-.7 3.3-2.3.3 0 0-51.8-105-227.6-76.3-1.3 0-2.3-1.3-2.3-2.6s.7-1 1.3-1.6" fill="#fbdd46"/><path d="m474.1 19.4-27.1 27.7c-.7.7-1.6 1-2.6.7l-35.9-15c-1.3-.7-2-2-1.3-3.3.3-.7 1-1.3 2-1.6l62.6-13c1.3-.3 2.6.3 2.9 1.6s0 2.3-.7 2.9m-69 65.2-9.8-47.3c-.3-1.3.7-2.6 2-2.9h1.3l46.6 19.2c1 .3 2 .3 2.6-.7l35.5-35.9c1-1 2.6-1 3.6 0 .3.3.7.7.7 1.3l7.5 34.6-4.2-46.6c0-1.3-1.3-2.3-2.6-2.3h-.3l-97.8 19.9c-1.3.3-2.3 1.6-2 2.9l13 63.2c.3 1.3 1.6 2.3 2.9 2l91.9-18.6-88 12.7c-1.3.3-2.6-.3-2.9-1.6" fill="#171e25"/></g></svg>