<svg enable-background="new 0 0 780 500" viewBox="0 0 780 500" xmlns="http://www.w3.org/2000/svg" xmlns:xlink="http://www.w3.org/1999/xlink"><clipPath id="a"><path d="m0 0h780v500h-780z"/></clipPath><g clip-path="url(#a)"><path d="m40 0h700c22.1 0 40 17.9 40 40v420c0 22.1-17.9 40-40 40h-700c-22.1 0-40-17.9-40-40v-420c0-22.1 17.9-40 40-40z" fill="#0c6"/></g><path d="m379.5 180.6c0-9.4 7.9-17 17.2-17s17.2 7.7 17.2 17c0 9.4-7.6 17.2-17.2 17.2s-17.2-7.6-17.2-17.2zm-51.1-14.6h30v168h-30zm83.5 48h-30.2v120h30.2zm217.4 55.9c22.8-14 38.2-34.8 44.4-56h-30.2c-7.9 20.2-26 35.3-45.8 41.8v-89.7h-30.2v168h30.2v-50c23.1 5.8 41.3 25.7 47.6 50h30.4c-4.7-25.5-22.1-49.3-46.4-64.1zm-163.8-42.5c7.9-10.5 23.4-16.6 35.9-16.6 23.4 0 42.7 17.1 42.7 42.9v80.3h-30.2v-73.6c0-10.6-4.7-22.8-20-22.8-18 0-28.4 16-28.4 34.6v61.8h-30.2v-120h30.3c-.1.1-.1 13.4-.1 13.4z"/><path d="m178.5 350c55.2 0 100-44.8 100-100s-44.8-100-100-100-100 44.8-100 100 44.8 100 100 100z"/><path d="m173.9 190h-30.8c6 25.1 23.5 46.5 45.4 60-22 13.5-39.4 34.9-45.4 60h30.8c7.6-23.2 28.8-43.4 54.8-47.5v-25.1c-26-4-47.2-24.2-54.8-47.4z" fill="#0c6"/></svg>