<svg viewBox="0 0 780 500" xmlns="http://www.w3.org/2000/svg" xmlns:xlink="http://www.w3.org/1999/xlink"><clipPath id="a"><path d="m0 0h780v500h-780z"/></clipPath><g clip-path="url(#a)"><path d="m40 0h700c22.1 0 40 17.9 40 40v420c0 22.1-17.9 40-40 40h-700c-22.1 0-40-17.9-40-40v-420c0-22.1 17.9-40 40-40z" fill="#6772e7"/><path d="m702.8 269.9h-84.6c2 20.3 16.8 26.8 33.6 26.8 14.8.3 29.4-3.2 42.5-10v34.8c-14.5 8.4-31.1 12.4-47.9 11.5-42.1 0-71.7-26.2-71.7-78.5s25.1-78.9 66.1-78.9 62.6 34.4 62.6 78.7-.4 13.2-.6 15.5zm-62-59c-10.8 0-22.8 7.6-22.8 27.1h44.8c-.3-19.4-11.5-27.1-22.1-27.1h.2zm-134.1 122.2c-11.2.1-22-3.7-30.6-10.8l-.2 48.6-43.2 9.1v-201.5h39.5l.8 10.7c9.2-8.7 21.3-13.5 33.9-13.5 30.4 0 59 27.3 59 77.7 0 54.9-28.3 79.7-59.3 79.7h.2zm-9.9-119.2c-7.8-.4-15.4 2.7-20.7 8.5l.2 64.3c5.2 5.7 12.8 8.7 20.5 8.2 16 0 26.7-17.2 26.7-40.6-.2-22.6-11.1-40.3-26.9-40.3h.2zm-123.7-35.4h43.4v151.5h-43.4zm0-49.4 43.4-9.1v35.3l-43.4 9.2zm-45.3 98.2v102.7h-43.2v-151.5h38.8l1.2 12.9c10.3-18.6 32.2-14.8 37.9-12.8v39.6c-5.3-1.8-23.9-4.5-34.7 9.1zm-89.7 49.5c0 25.5 27.3 17.7 32.7 15.4v35.3c-5.8 3.1-16.2 5.6-30.3 5.6-24 .7-44-18.2-44.8-42.2v-140.5l42.2-9v37.2h33v37h-32.8v61.3zm-51.7 7.4c0 31-24.1 48.9-60.2 48.9-16.1 0-32.1-3.3-46.8-9.7v-41.3c14.5 7.9 32.5 13.8 46.8 13.8s16-2.5 16-10.3c0-20.7-65.7-13-65.7-60.9s24.1-48.8 59-48.8c14.7-.2 29.3 2.4 43 7.7v40.7c-13.3-7-28-10.8-43-11.1-9 0-15.1 2.6-15.1 9.4 0 19.4 66 10.3 66 61.7h-.1z" fill="#fff"/></g></svg>